<mxfile host="app.diagrams.net" agent="Mozilla/5.0 (Macintosh; Intel Mac OS X 10.15; rv:143.0) Gecko/20100101 Firefox/143.0" version="28.2.5">
  <diagram name="Home" id="30-Tt9NE4u_cW5eCb92I">
    <mxGraphModel dx="397" dy="840" grid="1" gridSize="10" guides="1" tooltips="1" connect="1" arrows="1" fold="1" page="1" pageScale="1" pageWidth="850" pageHeight="1100" math="0" shadow="0">
      <root>
        <mxCell id="0" />
        <mxCell id="1" parent="0" />
        <mxCell id="Q5DaKckmjncQYjnSBQdU-8" style="edgeStyle=orthogonalEdgeStyle;rounded=0;orthogonalLoop=1;jettySize=auto;html=1;exitX=0.5;exitY=1;exitDx=0;exitDy=0;" parent="1" source="Q5DaKckmjncQYjnSBQdU-1" target="Q5DaKckmjncQYjnSBQdU-6" edge="1">
          <mxGeometry relative="1" as="geometry" />
        </mxCell>
        <mxCell id="Q5DaKckmjncQYjnSBQdU-1" value="Internet" style="image;aspect=fixed;perimeter=ellipsePerimeter;html=1;align=left;shadow=0;dashed=0;spacingTop=3;image=img/lib/active_directory/internet_globe.svg;labelPosition=right;verticalLabelPosition=top;verticalAlign=bottom;" parent="1" vertex="1">
          <mxGeometry x="1260" y="20" width="50" height="50" as="geometry" />
        </mxCell>
        <mxCell id="S_Dw8AdSrTLTYOOq0gJy-7" style="edgeStyle=orthogonalEdgeStyle;rounded=0;orthogonalLoop=1;jettySize=auto;html=1;entryX=0;entryY=0.5;entryDx=0;entryDy=0;" parent="1" source="Q5DaKckmjncQYjnSBQdU-5" edge="1">
          <mxGeometry relative="1" as="geometry">
            <mxPoint x="1130" y="265" as="targetPoint" />
          </mxGeometry>
        </mxCell>
        <mxCell id="Q5DaKckmjncQYjnSBQdU-5" value="&lt;div&gt;Ubiquiti UniFi&lt;/div&gt;&lt;div&gt;Cloud fiber gateway&lt;/div&gt;" style="sketch=0;verticalLabelPosition=top;sketch=0;aspect=fixed;html=1;verticalAlign=bottom;strokeColor=none;fillColor=#000000;align=left;outlineConnect=0;pointerEvents=1;shape=mxgraph.citrix2.router;labelPosition=right;" parent="1" vertex="1">
          <mxGeometry x="1260" y="240" width="50" height="50" as="geometry" />
        </mxCell>
        <mxCell id="Q5DaKckmjncQYjnSBQdU-7" value="" style="edgeStyle=orthogonalEdgeStyle;rounded=0;orthogonalLoop=1;jettySize=auto;html=1;fontSize=8;" parent="1" source="Q5DaKckmjncQYjnSBQdU-6" target="Q5DaKckmjncQYjnSBQdU-5" edge="1">
          <mxGeometry relative="1" as="geometry" />
        </mxCell>
        <mxCell id="Q5DaKckmjncQYjnSBQdU-12" value="&lt;font style=&quot;font-size: 8px;&quot;&gt;Ethernet&lt;/font&gt;" style="edgeLabel;html=1;align=center;verticalAlign=middle;resizable=0;points=[];" parent="Q5DaKckmjncQYjnSBQdU-7" vertex="1" connectable="0">
          <mxGeometry x="-0.0905" relative="1" as="geometry">
            <mxPoint x="-25" as="offset" />
          </mxGeometry>
        </mxCell>
        <mxCell id="Q5DaKckmjncQYjnSBQdU-6" value="&lt;div&gt;Modem(Telia)&lt;/div&gt;" style="sketch=0;verticalLabelPosition=top;sketch=0;aspect=fixed;html=1;verticalAlign=bottom;strokeColor=none;fillColor=#000000;align=left;outlineConnect=0;pointerEvents=1;shape=mxgraph.citrix2.router;labelPosition=right;" parent="1" vertex="1">
          <mxGeometry x="1260" y="120" width="50" height="50" as="geometry" />
        </mxCell>
        <mxCell id="Q5DaKckmjncQYjnSBQdU-14" value="Coax" style="edgeLabel;html=1;align=center;verticalAlign=middle;resizable=0;points=[];" parent="1" vertex="1" connectable="0">
          <mxGeometry x="1260" y="90" as="geometry" />
        </mxCell>
        <mxCell id="S_Dw8AdSrTLTYOOq0gJy-8" value="&lt;div&gt;Ubiquiti UniFi U6+&lt;/div&gt;" style="html=1;verticalLabelPosition=top;align=left;labelBackgroundColor=#ffffff;verticalAlign=bottom;strokeWidth=2;strokeColor=#0080F0;shadow=0;dashed=0;shape=mxgraph.ios7.icons.wifi;pointerEvents=1;labelPosition=right;" parent="1" vertex="1">
          <mxGeometry x="1080" y="240" width="49.7" height="41" as="geometry" />
        </mxCell>
        <mxCell id="8MkO7Q4THgauLzWzDWwj-1" value="Hyper1" style="shape=image;verticalLabelPosition=bottom;verticalAlign=top;imageAspect=0;aspect=fixed;image=data:image/svg+xml,PHN2ZyB4bWxucz0iaHR0cDovL3d3dy53My5vcmcvMjAwMC9zdmciIHZpZXdCb3g9IjAgMCA0OCA0OCI+PGRlZnM+PGNsaXBQYXRoIGlkPSJwcm94bW94X3N2Z19fYSIgY2xpcFBhdGhVbml0cz0idXNlclNwYWNlT25Vc2UiPjxwYXRoIGQ9Ik0tODMtMzQ3LjcxNGg0MzYuNDAydjMyNi40MUgtODN6IiBzdHlsZT0iZmlsbDojZTU3MDAwO2ZpbGwtb3BhY2l0eToxO2ZpbGwtcnVsZTpldmVub2RkO3N0cm9rZTpub25lIiB0cmFuc2Zvcm09Im1hdHJpeCguNzM0NSAuNjc4NjIgLS43ODQ5NyAuNjE5NTMgMCAwKSIvPjwvY2xpcFBhdGg+PC9kZWZzPjxnIHN0eWxlPSJmaWxsOiMwMDAiPjxnIGNsaXAtcGF0aD0idXJsKCNwcm94bW94X3N2Z19fYSkiIHN0eWxlPSJmb250LXN0eWxlOm5vcm1hbDtmb250LXZhcmlhbnQ6bm9ybWFsO2ZvbnQtd2VpZ2h0OjQwMDtmb250LXN0cmV0Y2g6bm9ybWFsO2ZvbnQtc2l6ZToxNDRweDtsaW5lLWhlaWdodDoxMjUlO2ZvbnQtZmFtaWx5OkhlbGlvbjstaW5rc2NhcGUtZm9udC1zcGVjaWZpY2F0aW9uOkhlbGlvbjtsZXR0ZXItc3BhY2luZzowO3dvcmQtc3BhY2luZzowO2ZpbGw6IzAwMDtmaWxsLW9wYWNpdHk6MTtzdHJva2U6bm9uZSIgdHJhbnNmb3JtPSJtYXRyaXgoLS4wODM0MyAwIDAgLjA4MzQzIDQ3LjA1MSAzLjc1NikiPjxwYXRoIGQ9Ik0yNzYuMzA0IDIyNi42MjMgNDY2Ljg5MiAxNy4wMjFDNDU5LjUgOS42MjggNDUwLjg4OCAzLjgxOSA0NDEuMDU4LS40MDVjLTkuODMtNC4yMjUtMjAuMzkyLTYuMzc3LTMxLjY4NC02LjQ1OS0xMS45OTMuMDkyLTIyLjk4IDIuNDY4LTMyLjk2MyA3LjEyOS05Ljk4MiA0LjY2MS0xOC42NTUgMTEuMDU5LTI2LjAxNyAxOS4xOTNsLTc0LjA5IDgwLjkxNUwyMDIuNyAxOS40NThjLTcuNjI3LTguMTM0LTE2LjUwMi0xNC41MzItMjYuNjI3LTE5LjE5My0xMC4xMjQtNC42NjEtMjEuMDcxLTcuMDM3LTMyLjg0LTcuMTI5LTExLjI5My4wODItMjEuODU0IDIuMjM0LTMxLjY4NCA2LjQ1OS05LjgzIDQuMjI0LTE4LjQ0MiAxMC4wMzMtMjUuODM1IDE3LjQyNmwxOTAuNTk0IDIwOS41OTciIHN0eWxlPSJmaWxsOiMwMDA7ZmlsbC1vcGFjaXR5OjEiLz48L2c+PGcgY2xpcC1wYXRoPSJ1cmwoI3Byb3htb3hfc3ZnX19hKSIgc3R5bGU9ImZvbnQtc3R5bGU6bm9ybWFsO2ZvbnQtdmFyaWFudDpub3JtYWw7Zm9udC13ZWlnaHQ6NDAwO2ZvbnQtc3RyZXRjaDpub3JtYWw7Zm9udC1zaXplOjE0NHB4O2xpbmUtaGVpZ2h0OjEyNSU7Zm9udC1mYW1pbHk6SGVsaW9uOy1pbmtzY2FwZS1mb250LXNwZWNpZmljYXRpb246SGVsaW9uO2xldHRlci1zcGFjaW5nOjA7d29yZC1zcGFjaW5nOjA7ZmlsbDojMDAwO2ZpbGwtb3BhY2l0eToxO3N0cm9rZTpub25lIiB0cmFuc2Zvcm09Im1hdHJpeCguMDgzNDMgMCAwIC0uMDgzNDMgLjk1IDQ0LjI0NCkiPjxwYXRoIGQ9Ik0yNzYuMzA0IDIyNi42MjMgNDY2Ljg5MiAxNy4wMjFDNDU5LjUgOS42MjggNDUwLjg4OCAzLjgxOSA0NDEuMDU4LS40MDVjLTkuODMtNC4yMjUtMjAuMzkyLTYuMzc3LTMxLjY4NC02LjQ1OS0xMS45OTMuMDkyLTIyLjk4IDIuNDY4LTMyLjk2MyA3LjEyOS05Ljk4MiA0LjY2MS0xOC42NTUgMTEuMDU5LTI2LjAxNyAxOS4xOTNsLTc0LjA5IDgwLjkxNUwyMDIuNyAxOS40NThjLTcuNjI3LTguMTM0LTE2LjUwMi0xNC41MzItMjYuNjI3LTE5LjE5My0xMC4xMjQtNC42NjEtMjEuMDcxLTcuMDM3LTMyLjg0LTcuMTI5LTExLjI5My4wODItMjEuODU0IDIuMjM0LTMxLjY4NCA2LjQ1OS05LjgzIDQuMjI0LTE4LjQ0MiAxMC4wMzMtMjUuODM1IDE3LjQyNmwxOTAuNTk0IDIwOS41OTciIHN0eWxlPSJmaWxsOiMwMDA7ZmlsbC1vcGFjaXR5OjEiLz48L2c+PHBhdGggZD0ibTExNjAuNjMgOTg4LjIwNS0xNDMuMjY3LTE1Ny4xMTJjLTguMzMzLTguODg3LTE4LjAzLTE1Ljg3Ny0yOS4wOTMtMjAuOTctMTEuMDYzLTUuMDkzLTIzLjAyNC03LjY5LTM1Ljg4NC03Ljc5LTEyLjMzOC4wOS0yMy44NzcgMi40NDItMzQuNjE4IDcuMDU3LTEwLjc0IDQuNjE2LTIwLjE1IDEwLjk2My0yOC4yMjcgMTkuMDRsMTQ1LjM5NyAxNTkuNzc4LTE0NS4zOTcgMTU5Ljc3N2M4LjA3NyA4LjMzMyAxNy40ODYgMTQuODM1IDI4LjIyNyAxOS41MDcgMTAuNzQgNC42NyAyMi4yOCA3LjA0NSAzNC42MTggNy4xMjMgMTIuODk0LS4xIDI0LjkyMS0yLjY5NiAzNi4wODQtNy43OSAxMS4xNjItNS4wOTIgMjAuNzkzLTEyLjA4MiAyOC44OTMtMjAuOTdsMTQzLjI2Ni0xNTcuNjVtMzEuOTkxIDAgMTQzLjI2Ny0xNTcuMTEyYzguMzMzLTguODg3IDE4LjAzLTE1Ljg3NyAyOS4wOTMtMjAuOTcgMTEuMDYzLTUuMDkzIDIzLjAyNC03LjY5IDM1Ljg4My03Ljc5IDEyLjMzOS4wOSAyMy44NzggMi40NDIgMzQuNjE5IDcuMDU3IDEwLjc0IDQuNjE2IDIwLjE1IDEwLjk2MyAyOC4yMjcgMTkuMDRsLTE0NS4zOTcgMTU5Ljc3OCAxNDUuMzk3IDE1OS43NzdjLTguMDc3IDguMzMzLTE3LjQ4NiAxNC44MzUtMjguMjI3IDE5LjUwNy0xMC43NCA0LjY3LTIyLjI4IDcuMDQ1LTM0LjYxOCA3LjEyMy0xMi44OTQtLjEtMjQuOTIxLTIuNjk2LTM2LjA4NC03Ljc5LTExLjE2Mi01LjA5Mi0yMC43OTMtMTIuMDgyLTI4Ljg5My0yMC45N2wtMTQzLjI2Ni0xNTcuNjUiIHN0eWxlPSJmb250LXN0eWxlOm5vcm1hbDtmb250LXZhcmlhbnQ6bm9ybWFsO2ZvbnQtd2VpZ2h0OjQwMDtmb250LXN0cmV0Y2g6bm9ybWFsO2ZvbnQtc2l6ZToxMDU5LjYxcHg7bGluZS1oZWlnaHQ6MTI1JTtmb250LWZhbWlseTpIZWxpb247LWlua3NjYXBlLWZvbnQtc3BlY2lmaWNhdGlvbjpIZWxpb247bGV0dGVyLXNwYWNpbmc6MDt3b3JkLXNwYWNpbmc6MDtmaWxsOiNlNTcwMDA7ZmlsbC1vcGFjaXR5OjE7c3Ryb2tlOm5vbmUiIHRyYW5zZm9ybT0idHJhbnNsYXRlKC03NC4zNjUgLTU4LjYxMykgc2NhbGUoLjA4MzYpIi8+PC9nPjwvc3ZnPg==" vertex="1" parent="1">
          <mxGeometry x="1201" y="440" width="48" height="48" as="geometry" />
        </mxCell>
        <mxCell id="8MkO7Q4THgauLzWzDWwj-2" value="Hyper2" style="shape=image;verticalLabelPosition=bottom;verticalAlign=top;imageAspect=0;aspect=fixed;image=data:image/svg+xml,PHN2ZyB4bWxucz0iaHR0cDovL3d3dy53My5vcmcvMjAwMC9zdmciIHZpZXdCb3g9IjAgMCA0OCA0OCI+PGRlZnM+PGNsaXBQYXRoIGlkPSJwcm94bW94X3N2Z19fYSIgY2xpcFBhdGhVbml0cz0idXNlclNwYWNlT25Vc2UiPjxwYXRoIGQ9Ik0tODMtMzQ3LjcxNGg0MzYuNDAydjMyNi40MUgtODN6IiBzdHlsZT0iZmlsbDojZTU3MDAwO2ZpbGwtb3BhY2l0eToxO2ZpbGwtcnVsZTpldmVub2RkO3N0cm9rZTpub25lIiB0cmFuc2Zvcm09Im1hdHJpeCguNzM0NSAuNjc4NjIgLS43ODQ5NyAuNjE5NTMgMCAwKSIvPjwvY2xpcFBhdGg+PC9kZWZzPjxnIHN0eWxlPSJmaWxsOiMwMDAiPjxnIGNsaXAtcGF0aD0idXJsKCNwcm94bW94X3N2Z19fYSkiIHN0eWxlPSJmb250LXN0eWxlOm5vcm1hbDtmb250LXZhcmlhbnQ6bm9ybWFsO2ZvbnQtd2VpZ2h0OjQwMDtmb250LXN0cmV0Y2g6bm9ybWFsO2ZvbnQtc2l6ZToxNDRweDtsaW5lLWhlaWdodDoxMjUlO2ZvbnQtZmFtaWx5OkhlbGlvbjstaW5rc2NhcGUtZm9udC1zcGVjaWZpY2F0aW9uOkhlbGlvbjtsZXR0ZXItc3BhY2luZzowO3dvcmQtc3BhY2luZzowO2ZpbGw6IzAwMDtmaWxsLW9wYWNpdHk6MTtzdHJva2U6bm9uZSIgdHJhbnNmb3JtPSJtYXRyaXgoLS4wODM0MyAwIDAgLjA4MzQzIDQ3LjA1MSAzLjc1NikiPjxwYXRoIGQ9Ik0yNzYuMzA0IDIyNi42MjMgNDY2Ljg5MiAxNy4wMjFDNDU5LjUgOS42MjggNDUwLjg4OCAzLjgxOSA0NDEuMDU4LS40MDVjLTkuODMtNC4yMjUtMjAuMzkyLTYuMzc3LTMxLjY4NC02LjQ1OS0xMS45OTMuMDkyLTIyLjk4IDIuNDY4LTMyLjk2MyA3LjEyOS05Ljk4MiA0LjY2MS0xOC42NTUgMTEuMDU5LTI2LjAxNyAxOS4xOTNsLTc0LjA5IDgwLjkxNUwyMDIuNyAxOS40NThjLTcuNjI3LTguMTM0LTE2LjUwMi0xNC41MzItMjYuNjI3LTE5LjE5My0xMC4xMjQtNC42NjEtMjEuMDcxLTcuMDM3LTMyLjg0LTcuMTI5LTExLjI5My4wODItMjEuODU0IDIuMjM0LTMxLjY4NCA2LjQ1OS05LjgzIDQuMjI0LTE4LjQ0MiAxMC4wMzMtMjUuODM1IDE3LjQyNmwxOTAuNTk0IDIwOS41OTciIHN0eWxlPSJmaWxsOiMwMDA7ZmlsbC1vcGFjaXR5OjEiLz48L2c+PGcgY2xpcC1wYXRoPSJ1cmwoI3Byb3htb3hfc3ZnX19hKSIgc3R5bGU9ImZvbnQtc3R5bGU6bm9ybWFsO2ZvbnQtdmFyaWFudDpub3JtYWw7Zm9udC13ZWlnaHQ6NDAwO2ZvbnQtc3RyZXRjaDpub3JtYWw7Zm9udC1zaXplOjE0NHB4O2xpbmUtaGVpZ2h0OjEyNSU7Zm9udC1mYW1pbHk6SGVsaW9uOy1pbmtzY2FwZS1mb250LXNwZWNpZmljYXRpb246SGVsaW9uO2xldHRlci1zcGFjaW5nOjA7d29yZC1zcGFjaW5nOjA7ZmlsbDojMDAwO2ZpbGwtb3BhY2l0eToxO3N0cm9rZTpub25lIiB0cmFuc2Zvcm09Im1hdHJpeCguMDgzNDMgMCAwIC0uMDgzNDMgLjk1IDQ0LjI0NCkiPjxwYXRoIGQ9Ik0yNzYuMzA0IDIyNi42MjMgNDY2Ljg5MiAxNy4wMjFDNDU5LjUgOS42MjggNDUwLjg4OCAzLjgxOSA0NDEuMDU4LS40MDVjLTkuODMtNC4yMjUtMjAuMzkyLTYuMzc3LTMxLjY4NC02LjQ1OS0xMS45OTMuMDkyLTIyLjk4IDIuNDY4LTMyLjk2MyA3LjEyOS05Ljk4MiA0LjY2MS0xOC42NTUgMTEuMDU5LTI2LjAxNyAxOS4xOTNsLTc0LjA5IDgwLjkxNUwyMDIuNyAxOS40NThjLTcuNjI3LTguMTM0LTE2LjUwMi0xNC41MzItMjYuNjI3LTE5LjE5My0xMC4xMjQtNC42NjEtMjEuMDcxLTcuMDM3LTMyLjg0LTcuMTI5LTExLjI5My4wODItMjEuODU0IDIuMjM0LTMxLjY4NCA2LjQ1OS05LjgzIDQuMjI0LTE4LjQ0MiAxMC4wMzMtMjUuODM1IDE3LjQyNmwxOTAuNTk0IDIwOS41OTciIHN0eWxlPSJmaWxsOiMwMDA7ZmlsbC1vcGFjaXR5OjEiLz48L2c+PHBhdGggZD0ibTExNjAuNjMgOTg4LjIwNS0xNDMuMjY3LTE1Ny4xMTJjLTguMzMzLTguODg3LTE4LjAzLTE1Ljg3Ny0yOS4wOTMtMjAuOTctMTEuMDYzLTUuMDkzLTIzLjAyNC03LjY5LTM1Ljg4NC03Ljc5LTEyLjMzOC4wOS0yMy44NzcgMi40NDItMzQuNjE4IDcuMDU3LTEwLjc0IDQuNjE2LTIwLjE1IDEwLjk2My0yOC4yMjcgMTkuMDRsMTQ1LjM5NyAxNTkuNzc4LTE0NS4zOTcgMTU5Ljc3N2M4LjA3NyA4LjMzMyAxNy40ODYgMTQuODM1IDI4LjIyNyAxOS41MDcgMTAuNzQgNC42NyAyMi4yOCA3LjA0NSAzNC42MTggNy4xMjMgMTIuODk0LS4xIDI0LjkyMS0yLjY5NiAzNi4wODQtNy43OSAxMS4xNjItNS4wOTIgMjAuNzkzLTEyLjA4MiAyOC44OTMtMjAuOTdsMTQzLjI2Ni0xNTcuNjVtMzEuOTkxIDAgMTQzLjI2Ny0xNTcuMTEyYzguMzMzLTguODg3IDE4LjAzLTE1Ljg3NyAyOS4wOTMtMjAuOTcgMTEuMDYzLTUuMDkzIDIzLjAyNC03LjY5IDM1Ljg4My03Ljc5IDEyLjMzOS4wOSAyMy44NzggMi40NDIgMzQuNjE5IDcuMDU3IDEwLjc0IDQuNjE2IDIwLjE1IDEwLjk2MyAyOC4yMjcgMTkuMDRsLTE0NS4zOTcgMTU5Ljc3OCAxNDUuMzk3IDE1OS43NzdjLTguMDc3IDguMzMzLTE3LjQ4NiAxNC44MzUtMjguMjI3IDE5LjUwNy0xMC43NCA0LjY3LTIyLjI4IDcuMDQ1LTM0LjYxOCA3LjEyMy0xMi44OTQtLjEtMjQuOTIxLTIuNjk2LTM2LjA4NC03Ljc5LTExLjE2Mi01LjA5Mi0yMC43OTMtMTIuMDgyLTI4Ljg5My0yMC45N2wtMTQzLjI2Ni0xNTcuNjUiIHN0eWxlPSJmb250LXN0eWxlOm5vcm1hbDtmb250LXZhcmlhbnQ6bm9ybWFsO2ZvbnQtd2VpZ2h0OjQwMDtmb250LXN0cmV0Y2g6bm9ybWFsO2ZvbnQtc2l6ZToxMDU5LjYxcHg7bGluZS1oZWlnaHQ6MTI1JTtmb250LWZhbWlseTpIZWxpb247LWlua3NjYXBlLWZvbnQtc3BlY2lmaWNhdGlvbjpIZWxpb247bGV0dGVyLXNwYWNpbmc6MDt3b3JkLXNwYWNpbmc6MDtmaWxsOiNlNTcwMDA7ZmlsbC1vcGFjaXR5OjE7c3Ryb2tlOm5vbmUiIHRyYW5zZm9ybT0idHJhbnNsYXRlKC03NC4zNjUgLTU4LjYxMykgc2NhbGUoLjA4MzYpIi8+PC9nPjwvc3ZnPg==" vertex="1" parent="1">
          <mxGeometry x="1261" y="440" width="48" height="48" as="geometry" />
        </mxCell>
        <mxCell id="8MkO7Q4THgauLzWzDWwj-3" value="DS1522+&#xa;Nas1" style="shape=image;verticalLabelPosition=bottom;verticalAlign=top;imageAspect=0;aspect=fixed;image=data:image/svg+xml,PHN2ZyB4bWxucz0iaHR0cDovL3d3dy53My5vcmcvMjAwMC9zdmciIHZpZXdCb3g9IjAgMCA0OCA0OCI+PGRlZnM+PGNsaXBQYXRoIGlkPSJzeW5vbG9neS1ibGFja19zdmdfX2EiPjxwYXRoIGQ9Ik0wIDE4My44OWg1OTUuMjc2VjBIMFoiLz48L2NsaXBQYXRoPjwvZGVmcz48ZyBmaWxsPSIjMjMxOTE2IiBjbGlwLXBhdGg9InVybCgjc3lub2xvZ3ktYmxhY2tfc3ZnX19hKSIgdHJhbnNmb3JtPSJtYXRyaXgoLjA4Njc1IDAgMCAtLjA4Njc1IC0xLjgwMiAzMS45OTUpIj48cGF0aCBkPSJtMjAuNzcyIDg2Ljc0NyAxOS4yNTYgMS44MDRjMS4xODgtNi40NjcgMy41NDUtMTEuMjI5IDcuMDg4LTE0LjI3OSAzLjU2My0zLjAyMyA4LjM3MS00LjUzMyAxNC40MTctNC41MzMgNi4zODYgMCAxMS4yMSAxLjM3IDE0LjQ4NCA0LjA1MSAzLjI0MSAyLjc0NiA0Ljg0MyA1Ljg4MSA0Ljg0MyA5LjQ2NCAwIDIuMzI0LS42ODcgNC4zNTUtMi4wMzMgNS45ODMtMS4zNjggMS41OTktMy43NDMgMy4wNTQtNy4xMjkgNC4yMDQtMi4zMzcuODg5LTcuNjI3IDIuMzExLTE1Ljg3MSA0LjQwOC0xMC42MzYgMi42MTctMTguMTA0IDUuODkzLTIyLjM1IDkuNzQxLTYuMDMgNS40NjgtOS4wNTIgMTIuMTMxLTkuMDUyIDE5LjkzNiAwIDUuMDI0IDEuMzg3IDkuNzc0IDQuMjY3IDE0LjEwNSAyLjgyMyA0LjM5NiA2Ljk0NSA3Ljc0MyAxMi4zMDggMTAuMDYxIDUuMzQ1IDIuMjM2IDExLjc1IDMuNDAyIDE5LjM4MSAzLjQwMiAxMi4zMjYgMCAyMS42MTMtMi43MyAyNy44NzQtOC4xNTQgNi4yNDMtNS41MjUgOS41MDEtMTIuNzc4IDkuODA3LTIxLjg3OGwtMTkuOTQtLjY2N2MtLjg4IDQuOTY3LTIuNjQ1IDguNjI2LTUuNDY4IDEwLjg3NC0yLjc3MiAyLjIyOC02Ljk2NCAzLjM0MS0xMi41MDggMy4zNDEtNS43NTcgMC0xMC4yNzctMS4xODItMTMuNTE1LTMuNTk2LTIuMTIyLTEuNTUxLTMuMTY2LTMuNTQ0LTMuMTY2LTYuMDg1IDAtMi4zNzUuOTcyLTQuMzI5IDIuOTUtNS45OTYgMi40ODMtMi4xNTggOC41ODMtNC4zNSAxOC4yMy02LjYwMyA5LjY2My0yLjI5OCAxNi43OS00LjY3NiAyMS4zOTYtNy4xNCA0LjYyNS0yLjQ2NCA4LjI2LTUuODE3IDEwLjg3MS0xMC4wOTcgMi41OTEtNC4xNzUgMy45NC05LjUxMiAzLjk0LTE1Ljc3NyAwLTUuNjUxLTEuNTg0LTEwLjk5OS00LjcxNi0xNS45MTMtMy4xMzEtNC45MTctNy41NzYtOC42MzktMTMuMjk4LTExLjA1Mi01Ljc0Mi0yLjM1LTEyLjg4My0zLjYwNy0yMS40MzItMy42MDctMTIuNDUzIDAtMjIuMDQ0IDIuOTA4LTI4LjcwMyA4LjcyNy02LjY1OSA1Ljc5MS0xMC42MzYgMTQuMjI2LTExLjkzMSAyNS4yNzYiLz48cGF0aCBkPSJNOTguMzMxIDEyNi4yaDE5Ljk5NGwxNy4wNzgtNTAuODQ1IDE2LjY0NCA1MC44NDVoMTkuNDg5bC0yNS4wNDgtNjguODU2LTQuNTg5LTEyLjU2M2MtMS42NTUtNC4xOTItMy4yMTktNy4zNjgtNC43MTUtOS41NjUtMS40OTMtMi4yNDctMy4yMjEtNC4wNTQtNS4xNjQtNS4zOTgtMS45NzktMS4zMzQtNC4zNzMtMi40MTItNy4xNjMtMy4xNzYtMi44NjItLjc3NS02LjA2My0xLjIwNy05LjY0Ni0xLjIwNy0zLjYxNSAwLTcuMTc5LjQzMi0xMC42ODggMS4yMDdsLTEuNTY1IDE0Ljg3M2MyLjkzMS0uNjIxIDUuNTk1LS45MjYgNy45NTUtLjkyNiA0LjM1NCAwIDcuNTkzIDEuMjgyIDkuNjc4IDMuODQ4IDIuMTA1IDIuNjMgMy43MSA1Ljk1OCA0LjgyMyA5Ljk0N3pNMjM3LjA5IDU0LjU3NGgtMTguODI0djM2LjQ2YzAgNy42NzYtLjM5NSAxMi42My0xLjIyMiAxNC45MTktLjgyOSAyLjI2LTIuMTA1IDQuMDI1LTMuOTYgNS4yODMtMS44MTggMS4yNDQtNC4wNTEgMS44OC02LjYwNiAxLjg4LTMuMzA5IDAtNi4yNDMtLjkxOS04Ljg4OC0yLjcxOC0yLjY0Ni0xLjc4NS00LjQyNy00LjE0My01LjM5OC03LjA1Ny0uOTUzLTIuOTktMS40NTctOC40MjMtMS40NTctMTYuNDQyVjU0LjU3NGgtMTguNzg4djcxLjYyNWgxNy40MDN2LTEwLjQ5M2M2LjI2MSA3LjkzNCAxNC4xMjQgMTEuODUyIDIzLjYwNiAxMS44NTIgNC4yMTQgMCA4LjAyOC0uNzcgMTEuNTAzLTIuMjExIDMuNDY5LTEuNTQ4IDYuMTE1LTMuNDE1IDcuODYxLTUuNzc4IDEuNzY1LTIuMzM5IDMuMDA1LTQuOTgxIDMuNzA5LTcuOTE1LjY5OS0yLjkxNCAxLjA2MS03LjIwMiAxLjA2MS0xMi43MDJ6bTE5LjM4IDM1LjYxNWMwLTcuMTUxIDEuNjc0LTEyLjYxMyA1LjA3Ni0xNi4zMjMgMy4zODMtMy44MjIgNy41NC01LjcyNiAxMi41MDctNS43MjYgNC45NjYgMCA5LjEyMyAxLjkwNCAxMi41MDYgNS43MjYgMy4zMyAzLjcxIDUuMDA0IDkuMjM2IDUuMDA0IDE2LjQxMSAwIDcuMDc2LTEuNjc0IDEyLjQ4OC01LjAwNCAxNi4yMzQtMy4zODMgMy43NDItNy41NCA1LjY4Ni0xMi41MDYgNS42ODYtNC45NjcgMC05LjEyNC0xLjk0NC0xMi41MDctNS42ODYtMy40MDItMy43NDYtNS4wNzYtOS4yMTYtNS4wNzYtMTYuMzIybS0xOS4yNzIuOTU0YzAgNi4zNSAxLjU2NSAxMi4zODIgNC42NjIgMTguMzAyIDMuMDkyIDUuODY0IDcuNDg1IDEwLjM2NiAxMy4xNzMgMTMuNDg5IDUuNjgzIDMuMTEzIDEyLjAzNyA0LjYyNSAxOS4wMzUgNC42MjUgMTAuODUyIDAgMTkuNzA5LTMuNTA1IDI2LjYxNC0xMC41NDEgNi45MjktNy4wMzkgMTAuNDA0LTE1LjkzMSAxMC40MDQtMjYuNjUyIDAtMTAuODMzLTMuNTA2LTE5Ljc3NS0xMC40OTItMjYuOTE1LTYuOTgtNy4wOTktMTUuNzk4LTEwLjcwNi0yNi4zOTktMTAuNzA2LTYuNTUgMC0xMi43OTQgMS41MTEtMTguNzY5IDQuNDcxLTUuOTU0IDIuOTczLTEwLjQ3NCA3LjMxNy0xMy41NjYgMTMuMDcxLTMuMDk3IDUuNjktNC42NjIgMTIuNjUtNC42NjIgMjAuODU2Ii8+PHBhdGggZD0iTTMzNC4xOSAxNjIuOTJWNzAuNDUxYzAtNC40MS4zMjYtNy4zMzEuOTQxLTguNzI3LjY0OC0xLjQ2MyAxLjYxOS0yLjU0MSAyLjkyNy0zLjI2NiAxLjMzMy0uNzM3IDMuNzk5LTEuMTE2IDcuMzYyLTEuMTE2di0yLjc2OGgtMzQuMTY5djIuNzY4YzMuMjAyIDAgNS4zNzkuMzI5IDYuNjA1IDEuMDI4IDEuMTMxLjY4NiAyLjA0NSAxLjcyOSAyLjcxMiAzLjI3OC42NjcgMS41MTEuOTczIDQuNDQ1Ljk3MyA4LjgwM3Y2My4xMDFjMCA3LjkzOC0uMTU5IDEyLjc5OC0uNTAyIDE0LjYzNC0uMzI1IDEuODE2LS45MDIgMy4wMzctMS42NTkgMy42ODQtLjc3NC42ODQtMS43MzkgMS4wNjctMi45MTYgMS4wNjctMS4yNzYgMC0yLjkxMy0uNDcxLTQuODc2LTEuMjQ1bC0xLjI5NSAyLjcwNiAyMC41MTkgOC41MjJ6bTQyLjgyLTQxLjYyYy0yLjcgMC01LjM5OC0uNy04LjExNy0yLjMzNy0yLjcxOS0xLjYxNS00LjkyOS00LjM3MS02LjYwNi04LjMzMy0xLjY3LTQuMDQ1LTIuNTE1LTkuMTU4LTIuNTE1LTE1LjQzMiAwLTEwLjEzNyAyLjA1MS0xOC43ODUgNi4wNTktMjYuMTkzIDQuMDUyLTcuMjc3IDkuMzYyLTEwLjk4NyAxNS45NDgtMTAuOTg3IDQuOTY2IDAgOS4wMTEgMi4wNzMgMTIuMTggNi4wODQgMy4yMjEgNC4wNDEgNC44MjggMTAuOTg5IDQuODI4IDIwLjg4MiAwIDEyLjM3Mi0yLjY2OSAyMi4wMzMtNy45OTcgMjkuMTQtMy42MTMgNC44MjUtOC4yMDYgNy4xNzYtMTMuNzggNy4xNzZtMi4zMzcgNS4xMzFjMTAuNiAwIDE5LjA3Ny00LjAxNSAyNS40OTgtMTIuMDQzIDUuNDM2LTYuODMzIDguMTU1LTE0LjY5NSA4LjE1NS0yMy41NjYgMC02LjI2OC0xLjQ3My0xMi41ODItNC40ODQtMTguOTQ2LTMuMDA1LTYuMzg3LTcuMTI1LTExLjIxNi0xMi40MTYtMTQuNDUzLTUuMjcxLTMuMjUyLTExLjEwMS00Ljg3OS0xNy41NjEtNC44NzktMTAuNTYxIDAtMTguOTMyIDQuMTkzLTI1LjEyNCAxMi41MzgtNS4yMzIgNy4wMzYtNy44NjIgMTQuOTYxLTcuODYyIDIzLjc2MyAwIDYuNDA0IDEuNTg3IDEyLjcxNiA0Ljc1IDE5LjAwMyAzLjIwOCA2LjM2NSA3LjM4IDEwLjk4OCAxMi41ODEgMTQuMDg4IDUuMTgyIDIuOTcyIDEwLjY3IDQuNDk1IDE2LjQ2MyA0LjQ5NW02Mi4yMTMtMy44NTFjLTMuNzQ3IDAtNi44NC0xLjU2Mi05LjM4MS00LjUzNS0yLjUxNS0yLjk3My0zLjc1OS03LjQzMS0zLjc1OS0xMy42MDUgMC03Ljk1IDEuNzA4LTE0LjExIDUuMTMxLTE4LjUxOCAyLjY0Mi0zLjMxNSA1LjkzOC00Ljk3NyA5Ljk1MS00Ljk3NyAzLjgzMSAwIDcgMS40NyA5LjQ0NCA0LjM0MiAyLjQ2NiAyLjg3MSAzLjY5MSA3LjM0OSAzLjY5MSAxMy40NjQgMCA4LjA0OS0xLjcwOSAxNC4yOTEtNS4xODMgMTguODExLTIuNjEgMy4yOS01Ljg4NiA1LjAxOC05Ljg5NCA1LjAxOG0tMTMuODk2LTY4LjAwNGMtMi4zMTktMi41MTYtNC4wNDctNC45MzEtNS4yNTMtNy4yMDQtMS4yMDYtMi4xMjEtMS43NjUtNC4yMDQtMS43NjUtNi4wMTggMC0yLjQ5MiAxLjQ0Mi00LjU3NiA0LjM3NS02LjM5MSA1LjA3NC0zLjEgMTIuMzk3LTQuNzExIDIxLjk1Ny00LjcxMSA5LjEgMCAxNS43OTQgMS42MTEgMjAuMTUxIDQuODEyIDQuMzU1IDMuMTc2IDYuNDk2IDYuNTY2IDYuNDk2IDEwLjE4NyAwIDIuNTc4LTEuMjk2IDQuNDQ0LTMuODg3IDUuNTYzLTIuNjQ3IDEuMTItNy44NjIgMS43NjYtMTUuNzEyIDEuOTMyLTExLjQyNS4zNC0yMC4yMjggMS4wMDItMjYuMzYyIDEuODNtLjYyOSAyNS41NjdjLTQuMjQyIDIuMTU5LTcuNDY5IDUuMDA0LTkuNzY4IDguNzI2LTIuMjQ5IDMuNzY3LTMuMzg2IDcuODUtMy4zODYgMTIuMzMyIDAgNi45MTMgMi41NiAxMi44NyA3Ljc0MiAxNy43NiA1LjE5NyA0Ljk2NyAxMS44NTggNy40NjggMTkuOTU1IDcuNDY4IDYuNjE4IDAgMTIuMzYtMS41NjIgMTcuMjE3LTQuODIyaDE0Ljc0M2MyLjE5NiAwIDMuNDUyLS4wNjggMy44MzQtLjE5NmEyLjA0IDIuMDQgMCAwIDAgLjczNy0uNjQ3Yy4yODUtLjQ3MS40NjMtMS4yODIuNDYzLTIuNDMzIDAtMS4zMjctLjE0LTIuMzA1LS4zOTQtMi43NjdhMS4zMDMgMS4zMDMgMCAwIDAtLjgwNi0uNTkyYy0uMzgyLS4xNTMtMS42MzgtLjIxNy0zLjg1NC0uMjE3aC05LjA4OGMyLjg4Mi0zLjY3IDQuMzA1LTguMzU5IDQuMzA1LTE0LjA1OSAwLTYuNDc4LTIuNTItMTIuMDY4LTcuNDU2LTE2LjY2NC00Ljk2Ny00LjYyNS0xMS42MjMtNi45NjItMTkuOTM2LTYuOTYyLTMuNDU0IDAtNi45NjguNTA3LTEwLjU4MSAxLjYzOC0yLjEyMi0xLjk5Ni0zLjU2NC0zLjY1OS00LjI4MS01LjEwNS0uNzc0LTEuNDg3LTEuMTU2LTIuNjkzLTEuMTU2LTMuNjcxIDAtLjkzLjQxNC0xLjcyNyAxLjI3Ny0yLjU3OS44MTMtLjc4OSAyLjQ3MS0xLjM4NiA0Ljg5Ni0xLjcxNCAxLjM4NS0uMjY3IDQuOTY3LS40NTggMTAuNjE5LS42MjMgMTAuNDE2LS4zMyAxNy4xODctLjcyNSAyMC4yNDItMS4yNDYgNC43MTctLjY0OCA4LjQ5OS0yLjQyNiAxMS4zMDYtNS4yMjEgMi44MDQtMi44MTkgNC4yMDgtNi4yNjIgNC4yMDgtMTAuMzc3IDAtNS42NTItMi42OTgtMTEuMDM4LTguMDU4LTE2LjAxNi03Ljg0OS03LjMyOS0xOC4xNDUtMTEuMDAxLTMwLjgyOS0xMS4wMDEtOS43NTQgMC0xNy45OTggMi4xNDUtMjQuNzI0IDYuNTU1LTMuNzk3IDIuNTQyLTUuNjcxIDUuMTQ1LTUuNjcxIDcuOTAyIDAgMS4xNjYuMjczIDIuNDEyLjc5NCAzLjYzLjg0NCAxLjkwNyAyLjU5MSA0LjQxIDUuMjE0IDcuNzYxLjM0NC40ODMgMi45MDIgMy4yMDIgNy41OTYgOC4xOC0yLjYxMSAxLjY0MS00LjQ3NyAzLjAyMi01LjUzOSA0LjMwOC0xLjA4NSAxLjI0My0xLjYzOCAyLjY3OC0xLjYzOCA0LjI0IDAgMS44MDYuNjk4IDMuODc2IDIuMTIyIDYuMjUxIDEuNDQxIDIuNDI2IDQuNzUgNS44NDQgOS44OTUgMTAuMTYxTTQ4MS45OSAxMjQuNGgzMi42MjZ2LTIuNzg5aC0xLjU4MWMtMi4zMDcgMC00LjAxNS0uNTM5LTUuMTY0LTEuNDgxLTEuMTM3LTEuMDIxLTEuNjg5LTIuMjQ3LTEuNjg5LTMuNjgxIDAtMi4wMjIuODA2LTQuNzM5IDIuNTE1LTguMjMxbDE3LjAwOS0zNS4yODUgMTUuNTY0IDM4LjU1MWMuODY1IDIuMTIxIDEuMjk2IDQuMTUxIDEuMjk2IDYuMjYgMCAuOTAyLS4yMTYgMS41NjQtLjUzNyAyLjAxMi0uNDE1LjU0LTEuMDQ5IDEuMDI0LTEuOTEzIDEuMzE2LS44NDUuMzQzLTIuMzg5LjUzOS00LjU0Ni41Mzl2Mi43ODloMjIuNTY0di0yLjc4OWMtMS44NzQtLjE5Ni0zLjMyOS0uNjI4LTQuMzM4LTEuMjI2LTEuMDMxLS42MjktMi4xNDEtMS43MzktMy4zNDYtMy4zNzgtLjQ3MS0uNzM1LTEuMzczLTIuNjQ5LTIuNjEyLTUuODU0TDUxOS41NyA0MS42MDhjLTIuNzU2LTYuNzgyLTYuMzU3LTExLjg1LTEwLjgzNS0xNS4zMDUtNC40NjUtMy40ODEtOC43NjUtNS4xNDUtMTIuOTA0LTUuMTQ1LTMuMDA2IDAtNS40Ny44MDEtNy40MzEgMi41OC0xLjkyNiAxLjcwMS0yLjg5NSAzLjY3MS0yLjg5NSA1LjkzMSAwIDIuMTA5LjY5NSAzLjc1OSAyLjA5OSA1LjA4IDEuNDA0IDEuMzQ2IDMuMzY2IDEuOTQzIDUuOCAxLjk0MyAxLjY5IDAgNC4wMTQtLjU0NSA2LjkxLTEuNjI1IDIuMDMxLS42OTggMy4zMjctMS4xNDMgMy44NDktMS4xNDMgMS41MzEgMCAzLjE2OS44MjUgNS4wMDUgMi4zODcgMS43OTcgMS41NTEgMy42MTMgNC41ODcgNS40MzYgOS4wNTdsNC45MjggMTIuMTQ2LTI1LjEwNCA1Mi40NjljLS43NjkgMS41OS0xLjk5NSAzLjUzMS0zLjY1MiA1Ljg4Ny0xLjI3NiAxLjc2LTIuMzIgMi45NjgtMy4xMzMgMy42MTYtMS4xNjkuNzYxLTMuMDYyIDEuNDk3LTUuNjUzIDIuMTI1em04MS43OSAxMi4zOWgtMy45Mzd2NC42MDloNC40MDdjMS4wMSAwIDEuNzY1LS4yMTMgMi4yMzEtLjYzMi40ODctLjQzMi43MjItLjk2Ni43MjItMS42MDIgMC0uNDQ1LS4xMDgtLjg3NS0uMzgxLTEuMjc2LS4yNDctLjM2My0uNTkxLS43MDUtMS4wNzktLjgwNy0uNDYzLS4yNDEtMS4xMzEtLjI5Mi0xLjk2My0uMjkybTYuMTgtNy4zNTUtMi4xNjQgMy4zOThhOS4yMSA5LjIxIDAgMCAxLTEuNTE0IDEuODE2Yy0uMjMzLjE5OC0uNTkuNDUyLTEuMDk5LjY4MiAxLjMzNi4xODIgMi4zMjUuNjMzIDIuOTM0IDEuMzMxLjY2Ny42NDkuOTcyIDEuNDgxLjk3MiAyLjUwMyAwIC43MjUtLjE3NyAxLjQyMy0uNTcyIDIuMTA3LS40LjU5OC0uODYyIDEuMDMtMS41MzEgMS4yNTktLjY2Ni4yOTQtMS41OTkuNDUxLTIuODQ1LjQ1MWgtNi4xMzN2LTEzLjk2NmgxLjgzNXY2LjE5MmgyLjEwMWMuNDcgMCAuODMzLS4wMyAxLjA0OC0uMDkzLjI4Ny0uMDg5LjU3MS0uMTU0LjgyNi0uMzE5LjI4Ny0uMjM2LjU2LS41Mi45MzMtLjk5MS4zNDMtLjQzMi43OTQtMS4xMTYgMS4zMzUtMS45MDVsMS44NTMtMi44ODRoMS41NTFhOS41MDMgOS41MDMgMCAwIDAtNi4wMzItMi4xNThjLTUuMzExIDAtOS42MzIgNC4zMzYtOS42MzIgOS42NjUgMCA1LjMwMSA0LjMyMSA5LjYxMyA5LjYzMiA5LjYxMyA1LjI5MiAwIDkuNTk2LTQuMzEyIDkuNTk2LTkuNjEzYTkuNjY0IDkuNjY0IDAgMCAwLTMuMDk0LTcuMDg4bS02LjUwMiAxNy43MDFjLTUuODYzIDAtMTAuNjMyLTQuNzYxLTEwLjYzMi0xMC42MTMgMC01Ljg4IDQuNzY5LTEwLjY2NSAxMC42MzItMTAuNjY1IDUuODQzIDAgMTAuNTk2IDQuNzg1IDEwLjU5NiAxMC42NjUgMCA1Ljg1Mi00Ljc1MyAxMC42MTMtMTAuNTk2IDEwLjYxMyIvPjwvZz48L3N2Zz4=" vertex="1" parent="1">
          <mxGeometry x="1129.7" y="445" width="48" height="48" as="geometry" />
        </mxCell>
        <mxCell id="8MkO7Q4THgauLzWzDWwj-4" value="&lt;div&gt;&lt;span&gt;Ubiquiti UniF&lt;/span&gt;&lt;/div&gt;&lt;div&gt;&lt;span&gt;Lite 8 PoE&lt;/span&gt;&lt;/div&gt;" style="fontColor=default;verticalAlign=bottom;verticalLabelPosition=top;labelPosition=right;align=left;html=1;outlineConnect=0;fillColor=#CCCCCC;strokeColor=#6881B3;gradientColor=none;gradientDirection=north;strokeWidth=2;shape=mxgraph.networks.switch;" vertex="1" parent="1">
          <mxGeometry x="1249" y="340" width="72" height="20" as="geometry" />
        </mxCell>
        <mxCell id="8MkO7Q4THgauLzWzDWwj-5" style="edgeStyle=orthogonalEdgeStyle;rounded=0;orthogonalLoop=1;jettySize=auto;html=1;entryX=0.5;entryY=0;entryDx=0;entryDy=0;entryPerimeter=0;" edge="1" parent="1" source="Q5DaKckmjncQYjnSBQdU-5" target="8MkO7Q4THgauLzWzDWwj-4">
          <mxGeometry relative="1" as="geometry" />
        </mxCell>
        <mxCell id="8MkO7Q4THgauLzWzDWwj-6" value="Hyper3" style="shape=image;verticalLabelPosition=bottom;verticalAlign=top;imageAspect=0;aspect=fixed;image=data:image/svg+xml,PHN2ZyB4bWxucz0iaHR0cDovL3d3dy53My5vcmcvMjAwMC9zdmciIHZpZXdCb3g9IjAgMCA0OCA0OCI+PGRlZnM+PGNsaXBQYXRoIGlkPSJwcm94bW94X3N2Z19fYSIgY2xpcFBhdGhVbml0cz0idXNlclNwYWNlT25Vc2UiPjxwYXRoIGQ9Ik0tODMtMzQ3LjcxNGg0MzYuNDAydjMyNi40MUgtODN6IiBzdHlsZT0iZmlsbDojZTU3MDAwO2ZpbGwtb3BhY2l0eToxO2ZpbGwtcnVsZTpldmVub2RkO3N0cm9rZTpub25lIiB0cmFuc2Zvcm09Im1hdHJpeCguNzM0NSAuNjc4NjIgLS43ODQ5NyAuNjE5NTMgMCAwKSIvPjwvY2xpcFBhdGg+PC9kZWZzPjxnIHN0eWxlPSJmaWxsOiMwMDAiPjxnIGNsaXAtcGF0aD0idXJsKCNwcm94bW94X3N2Z19fYSkiIHN0eWxlPSJmb250LXN0eWxlOm5vcm1hbDtmb250LXZhcmlhbnQ6bm9ybWFsO2ZvbnQtd2VpZ2h0OjQwMDtmb250LXN0cmV0Y2g6bm9ybWFsO2ZvbnQtc2l6ZToxNDRweDtsaW5lLWhlaWdodDoxMjUlO2ZvbnQtZmFtaWx5OkhlbGlvbjstaW5rc2NhcGUtZm9udC1zcGVjaWZpY2F0aW9uOkhlbGlvbjtsZXR0ZXItc3BhY2luZzowO3dvcmQtc3BhY2luZzowO2ZpbGw6IzAwMDtmaWxsLW9wYWNpdHk6MTtzdHJva2U6bm9uZSIgdHJhbnNmb3JtPSJtYXRyaXgoLS4wODM0MyAwIDAgLjA4MzQzIDQ3LjA1MSAzLjc1NikiPjxwYXRoIGQ9Ik0yNzYuMzA0IDIyNi42MjMgNDY2Ljg5MiAxNy4wMjFDNDU5LjUgOS42MjggNDUwLjg4OCAzLjgxOSA0NDEuMDU4LS40MDVjLTkuODMtNC4yMjUtMjAuMzkyLTYuMzc3LTMxLjY4NC02LjQ1OS0xMS45OTMuMDkyLTIyLjk4IDIuNDY4LTMyLjk2MyA3LjEyOS05Ljk4MiA0LjY2MS0xOC42NTUgMTEuMDU5LTI2LjAxNyAxOS4xOTNsLTc0LjA5IDgwLjkxNUwyMDIuNyAxOS40NThjLTcuNjI3LTguMTM0LTE2LjUwMi0xNC41MzItMjYuNjI3LTE5LjE5My0xMC4xMjQtNC42NjEtMjEuMDcxLTcuMDM3LTMyLjg0LTcuMTI5LTExLjI5My4wODItMjEuODU0IDIuMjM0LTMxLjY4NCA2LjQ1OS05LjgzIDQuMjI0LTE4LjQ0MiAxMC4wMzMtMjUuODM1IDE3LjQyNmwxOTAuNTk0IDIwOS41OTciIHN0eWxlPSJmaWxsOiMwMDA7ZmlsbC1vcGFjaXR5OjEiLz48L2c+PGcgY2xpcC1wYXRoPSJ1cmwoI3Byb3htb3hfc3ZnX19hKSIgc3R5bGU9ImZvbnQtc3R5bGU6bm9ybWFsO2ZvbnQtdmFyaWFudDpub3JtYWw7Zm9udC13ZWlnaHQ6NDAwO2ZvbnQtc3RyZXRjaDpub3JtYWw7Zm9udC1zaXplOjE0NHB4O2xpbmUtaGVpZ2h0OjEyNSU7Zm9udC1mYW1pbHk6SGVsaW9uOy1pbmtzY2FwZS1mb250LXNwZWNpZmljYXRpb246SGVsaW9uO2xldHRlci1zcGFjaW5nOjA7d29yZC1zcGFjaW5nOjA7ZmlsbDojMDAwO2ZpbGwtb3BhY2l0eToxO3N0cm9rZTpub25lIiB0cmFuc2Zvcm09Im1hdHJpeCguMDgzNDMgMCAwIC0uMDgzNDMgLjk1IDQ0LjI0NCkiPjxwYXRoIGQ9Ik0yNzYuMzA0IDIyNi42MjMgNDY2Ljg5MiAxNy4wMjFDNDU5LjUgOS42MjggNDUwLjg4OCAzLjgxOSA0NDEuMDU4LS40MDVjLTkuODMtNC4yMjUtMjAuMzkyLTYuMzc3LTMxLjY4NC02LjQ1OS0xMS45OTMuMDkyLTIyLjk4IDIuNDY4LTMyLjk2MyA3LjEyOS05Ljk4MiA0LjY2MS0xOC42NTUgMTEuMDU5LTI2LjAxNyAxOS4xOTNsLTc0LjA5IDgwLjkxNUwyMDIuNyAxOS40NThjLTcuNjI3LTguMTM0LTE2LjUwMi0xNC41MzItMjYuNjI3LTE5LjE5My0xMC4xMjQtNC42NjEtMjEuMDcxLTcuMDM3LTMyLjg0LTcuMTI5LTExLjI5My4wODItMjEuODU0IDIuMjM0LTMxLjY4NCA2LjQ1OS05LjgzIDQuMjI0LTE4LjQ0MiAxMC4wMzMtMjUuODM1IDE3LjQyNmwxOTAuNTk0IDIwOS41OTciIHN0eWxlPSJmaWxsOiMwMDA7ZmlsbC1vcGFjaXR5OjEiLz48L2c+PHBhdGggZD0ibTExNjAuNjMgOTg4LjIwNS0xNDMuMjY3LTE1Ny4xMTJjLTguMzMzLTguODg3LTE4LjAzLTE1Ljg3Ny0yOS4wOTMtMjAuOTctMTEuMDYzLTUuMDkzLTIzLjAyNC03LjY5LTM1Ljg4NC03Ljc5LTEyLjMzOC4wOS0yMy44NzcgMi40NDItMzQuNjE4IDcuMDU3LTEwLjc0IDQuNjE2LTIwLjE1IDEwLjk2My0yOC4yMjcgMTkuMDRsMTQ1LjM5NyAxNTkuNzc4LTE0NS4zOTcgMTU5Ljc3N2M4LjA3NyA4LjMzMyAxNy40ODYgMTQuODM1IDI4LjIyNyAxOS41MDcgMTAuNzQgNC42NyAyMi4yOCA3LjA0NSAzNC42MTggNy4xMjMgMTIuODk0LS4xIDI0LjkyMS0yLjY5NiAzNi4wODQtNy43OSAxMS4xNjItNS4wOTIgMjAuNzkzLTEyLjA4MiAyOC44OTMtMjAuOTdsMTQzLjI2Ni0xNTcuNjVtMzEuOTkxIDAgMTQzLjI2Ny0xNTcuMTEyYzguMzMzLTguODg3IDE4LjAzLTE1Ljg3NyAyOS4wOTMtMjAuOTcgMTEuMDYzLTUuMDkzIDIzLjAyNC03LjY5IDM1Ljg4My03Ljc5IDEyLjMzOS4wOSAyMy44NzggMi40NDIgMzQuNjE5IDcuMDU3IDEwLjc0IDQuNjE2IDIwLjE1IDEwLjk2MyAyOC4yMjcgMTkuMDRsLTE0NS4zOTcgMTU5Ljc3OCAxNDUuMzk3IDE1OS43NzdjLTguMDc3IDguMzMzLTE3LjQ4NiAxNC44MzUtMjguMjI3IDE5LjUwNy0xMC43NCA0LjY3LTIyLjI4IDcuMDQ1LTM0LjYxOCA3LjEyMy0xMi44OTQtLjEtMjQuOTIxLTIuNjk2LTM2LjA4NC03Ljc5LTExLjE2Mi01LjA5Mi0yMC43OTMtMTIuMDgyLTI4Ljg5My0yMC45N2wtMTQzLjI2Ni0xNTcuNjUiIHN0eWxlPSJmb250LXN0eWxlOm5vcm1hbDtmb250LXZhcmlhbnQ6bm9ybWFsO2ZvbnQtd2VpZ2h0OjQwMDtmb250LXN0cmV0Y2g6bm9ybWFsO2ZvbnQtc2l6ZToxMDU5LjYxcHg7bGluZS1oZWlnaHQ6MTI1JTtmb250LWZhbWlseTpIZWxpb247LWlua3NjYXBlLWZvbnQtc3BlY2lmaWNhdGlvbjpIZWxpb247bGV0dGVyLXNwYWNpbmc6MDt3b3JkLXNwYWNpbmc6MDtmaWxsOiNlNTcwMDA7ZmlsbC1vcGFjaXR5OjE7c3Ryb2tlOm5vbmUiIHRyYW5zZm9ybT0idHJhbnNsYXRlKC03NC4zNjUgLTU4LjYxMykgc2NhbGUoLjA4MzYpIi8+PC9nPjwvc3ZnPg==" vertex="1" parent="1">
          <mxGeometry x="1321" y="440" width="48" height="48" as="geometry" />
        </mxCell>
        <mxCell id="8MkO7Q4THgauLzWzDWwj-11" value="" style="shape=image;verticalLabelPosition=bottom;verticalAlign=top;imageAspect=0;aspect=fixed;image=data:image/svg+xml,PHN2ZyB4bWxucz0iaHR0cDovL3d3dy53My5vcmcvMjAwMC9zdmciIHZpZXdCb3g9IjAgMCA0OCA0OCI+PHBhdGggZD0iTTMzLjYtMTJDMTkuNC0xMiAyLjItOC42LTEyLTEuM2MwIDE1LjktLjIgNTUuNyA0NS42IDgyLjhDNzkuNSA1NC40IDc5LjMgMTQuNyA3OS4zLTEuMyA2NS4xLTguNiA0Ny45LTEyIDMzLjYtMTJ6IiBzdHlsZT0iZmlsbDojNjhiYzcxIiB0cmFuc2Zvcm09InRyYW5zbGF0ZSg2LjcyNSA2LjE2KSBzY2FsZSguNTEzMzcpIi8+PHBhdGggZD0iTTMzLjYgODEuNUMtMTIuMiA1NC40LTEyIDE0LjctMTItMS4zIDIuMS04LjYgMTkuMy0xMiAzMy42LTEydjkzLjV6IiBzdHlsZT0iZmlsbDojNjdiMjc5IiB0cmFuc2Zvcm09InRyYW5zbGF0ZSg2LjcyNSA2LjE2KSBzY2FsZSguNTEzMzcpIi8+PHBhdGggZD0ibTMyIDUwLjQgMjcuNi0zNy4yYy0yLTEuNi0zLjgtLjUtNC44LjRsLTIzIDIzLjktOC43LTEwLjRDMTguOSAyMi40IDEzLjMgMjYgMTIgMjdsMjAgMjMuNCIgc3R5bGU9ImZpbGw6I2ZmZiIgdHJhbnNmb3JtPSJ0cmFuc2xhdGUoNi43MjUgNi4xNikgc2NhbGUoLjUxMzM3KSIvPjwvc3ZnPg==" vertex="1" parent="1">
          <mxGeometry x="1290" y="630" width="48" height="48" as="geometry" />
        </mxCell>
        <mxCell id="8MkO7Q4THgauLzWzDWwj-13" value="" style="shape=image;verticalLabelPosition=bottom;labelBackgroundColor=default;verticalAlign=top;aspect=fixed;imageAspect=0;image=data:image/png,iVBORw0KGgoAAAANSUhEUgAABLAAAASwCAYAAADrIbPPAAAgAElEQVR4XuzdCZheZ1k38NmTSdKm6Q5t03a2ZDpdoMMOSgCtVASFGlTaIiAoKruKiPIRBQWRHT9FBBFaQL6wiAIVUCgVrKVOS9NOk1kbmtJSuqRtkk5med/57glN7JI2s7zLOef5zXXNlcnknOfc9+85aZJ/n/OcxgYfBAgQIECAAAECBAgQIECAAAECBDIs0Jjh2pRGgAABAgQIECBAgAABAgQIECBAoEGA5SYgQIAAAQIECBAgQIAAAQIECBDItIAAK9PTozgCBAgQIECAAAECBAgQIECAAAEBlnuAAAECBAgQIECAAAECBAgQIEAg0wICrExPj+IIECBAgAABAgQIECBAgAABAgQEWO4BAgQIECBAgAABAgQIECBAgACBTAsIsDI9PYojQIAAAQIECBAgQIAAAQIECBAQYLkHCBAgQIAAAQIECBAgQIAAAQIEMi0gwMr09CiOAAECBAgQIECAAAECBAgQIEBAgOUeIECAAAECBAgQIECAAAECBAgQyLSAACvT06M4AgQIECBAgAABAgQIECBAgAABAZZ7gAABAgQIECBAgAABAgQIECBAINMCAqxMT4/iCBAgQIAAAQIECBAgQIAAAQIEBFjuAQIECBAgQIAAAQIECBAgQIAAgUwLCLAyPT2KI0CAAAECBAgQIECAAAECBAgQEGC5BwgQIECAAAECBAgQIECAAAECBDItIMDK9PQojgABAgQIECBAgAABAgQIECBAQIDlHiBAgAABAgQIECBAgAABAgQIEMi0gAAr09OjOAIECBAgQIAAAQIECBAgQIAAAQGWe4AAAQIECBAgQIAAAQIECBAgQCDTAgKsTE+P4ggQIECAAAECBAgQIECAAAECBARY7gECBAgQIECAAAECBAgQIECAAIFMCwiwMj09iiNAgAABAgQIECBAgAABAgQIEBBguQcIECBAgAABAgQIECBAgAABAgQyLSDAyvT0KI4AAQIECBAgQIAAAQIECBAgQECA5R4gQIAAAQIECBAgQIAAAQIECBDItIAAK9PTozgCBAgQIECAAAECBAgQIECAAAEBlnuAAAECBAgQIECAAAECBAgQIEAg0wICrExPj+IIECBAgAABAgQIECBAgAABAgQEWO4BAgQIECBAgAABAgQIECBAgACBTAsIsDI9PYojQIAAAQIECBAgQIAAAQIECBAQYLkHCBAgQIAAAQIECBAgQIAAAQIEMi0gwMr09CiOAAECBAgQIECAAAECBAgQIEBAgOUeIECAAAECBAgQIECAAAECBAgQyLSAACvT06M4AgQIECBAgAABAgQIECBAgAABAZZ7gAABAgQIECiswDnnnLPy5ptvPn56evr4aPKocrl81NyPs7OzR8eP+z7je4fFj23x2drY2NgSv9Y69/P4unXu6/ix6b7vNcX3m+Oz5b7vzX3dHF8/4O9T9x17wDR+efr+wPHrs/HzUnyW7/txJo4px7dLc8fGj3Pfnztn3+d93zvwdVNT0+74/h1R923x9e1x/J3x4x3x4x3Nzc0/Wr169Y+uuOKKewo7qRojQIAAAQIEkhQQYCU57ZomQIAAAQLZFti4cWPz1Vdf3bJs2bLWXbt2tba1tbVExcdEmLM+PnsivOmJn6+L0KY7Po/JdjeZq+6uCLqGS6XScPw4FOHXcHjOfd68YsWK6ampqZnJycnpxz/+8dObN2+eC9p8ECBAgAABAgTqLiDAqvsUKIAAAQIECKQlcMYZZ6yZmJh4dHR9QoRPj45Aau7rUyJAOTnClLXxvRPjc1VaKtnsNuZmb1R2U3z+IL6+MX7cPvfzmJ9bYr5+2NraevPw8PDt2axeVQQIECBAgECRBARYRZpNvRAgQIAAgQwIPOEJTzjqzjvvfEoEHo+PkOPxEXacEmXNBVJznyvjc+4RPR/FEZhbpbU75nt3zPXc440/bGlpuTK+vvLwww//r4GBgVuK06pOCBAgQIAAgXoJCLDqJe+6BAgQIEAgZwJ9fX1tsZfU4RFKrY6VUo+KR9A2RAtPi+DiKfftI5WzjpRba4G4VybimlfE53fi8cVvxz20Pb6+J75/9+jo6GSt63E9AgQIECBAID8CAqz8zJVKCRAgQIBATQS6urrm9pp6TIRSj4kLnhaf3fHZFStqjqtJAS6SqsCd0fjI3Gfca1vj8cTvx9fXxCOKP0wVRN8ECBAgQIDA/woIsNwNBAgQIEAgUYFYUbUqVlQ9P8KCjbES5onB0B7B1fIHv0UvUR5tZ0Qg7smZKGVv3Jd7Y9XWXKj1udjUf/Pg4OBc4OWDAAECBAgQSERAgJXIRGuTAAECBJIUaIyQ6rjYMP3E+If/6REA/GwonBMrq45OUkPThRSIx1nn9t76Rvz49Wjw6gi8bhoaGro5fpwtZMOaIkCAAAECiQoIsBKdeG0TIECAQPEE4tG/s+Mf8s+Mzp4cnz3x2R0/X1a8TnVE4JACcxvLj0SINRw/fi8eR/zWtm3b5vbemvu+DwIECBAgQCCHAgKsHE6akgkQIECAQE9PT0eEU6+OR/9+MzTa49Of6W4LAocWmFuVNRVvSbw4fvxQ7K91zaFPcQQBAgQIECCQBQF/2c3CLKiBAAECBAg8jEBnZ2dXrCI5LT6fFWHVc+OwU2ERIFBxgR/FI4j/Gr/PvhYjXz8yMjK3cstqrYozG5AAAQIECCxeQIC1eDtnEiBAgACBigqceOKJ7cuXL39BDPrC2KdqXfxjem6VVWtFL2IwAgQOKXDfxvE/iAPn3or4xfh9+Nnx8fG7D3miAwgQIECAAIGqCQiwqkZrYAIECBAg8LACjf39/e0zMzNr7r333tfGyqrfjSNX8CJAIPMC5Xghwt+3t7e/L37f/jDehHhvVFzOfNUKJECAAAECBRAQYBVgErVAgAABAtkXiEcBT49HlJ4WK6ueHas5zomK5/at8kGAQL4FpqP8b8Um8V+NQPo7Y2NjVwu08j2hqidAgACB7AoIsLI7NyojQIAAgRwLdHd3PybCqjdEWPW0aOPR8eltgDmeT6UTmKfAXKB1SzyCOBArtd4Xm8T/5zzPcxgBAgQIECBwCAEBlluEAAECBAgsUaCvr+/IycnJU+IfrXNvBXzJEodzOgECBROIMOsL8d+H90WoPTQ6OnpbwdrTDgECBAgQqImAAKsmzC5CgAABAkUS6OrqOjz6eW6srnpO/KP0nPhH6VFF6k8vBAhUTyAeJd4T/+34RoRaX1m5cuWXrr76aoFW9biNTIAAAQIFEhBgFWgytUKAAAEC1RPo6en5mfhH51/ECqt1cZXD4tOfodXjNjKBZAQiBN8dodaO+O/L/xkZGfl8/Hw2meY1SoAAAQIEFiDgL98LwHIoAQIECKQhsG7dusPiH5O9sbLqJfH5suja/lVpTL0uCWRCIAKtiyPI+vu2trbr4k2Hd2aiKEUQIECAAIE6Cwiw6jwBLk+AAAEC2RCIFVZnRVj1igiunjEXXkVV/ozMxtSogkDSAhFkjcXnZfHI4ceGhoa+mzSG5gkQIEAgaQF/OU96+jVPgACBtAXWr19/3vT09N9FYLUmJJrS1tA9AQI5EJh7vHAywqzXxRsOP+JxwxzMmBIJECBAoGICAqyKURqIAAECBLIsEG8KbJuZmXl87GH1a7HS6jei1uVZrldtBAgQmI9AhFgXRaD1iampqe9u375973zOcQwBAgQIEMijgAArj7OmZgIECBCYl0C8LXBZhFWvjIMviH/knRUrrVrndaKDCBAgkD+BcpR8XXx+ftWqVe/ZsmXLnvy1oGICBAgQIPDwAgIsdwcBAgQIFEmgKVZaHTE5OfmnEVy9qkiN6YUAAQILFYiVWf8UYdZrVq9evfPSSy+dWej5jidAgAABAlkSEGBlaTbUQoAAAQILFti0aVPTpz/96Z+LRwMvjBVWvxoD+LNtwYpOIECg4AKz8WbDL8dK1E8cffTRX7388ssnCt6v9ggQIECggAL+kl/ASdUSAQIEUhCIxwPn9rF6Q4RWPfHZkkLPeiRAgEAFBEoxxg0RZn3k7LPPfu/mzZvnfu6DAAECBAhkXkCAlfkpUiABAgQIzAnEGwOPilVWPxdh1Yfi8cAjqRAgQIBARQQmI8z6g/jv6v+74YYbbq3IiAYhQIAAAQJVEBBgVQHVkAQIECBQGYEzzzzzxL17974i/mF1YXyeWplRjUKAAAECBxOIIOvHc281bGlp+ci2bduGKREgQIAAgSwJCLCyNBtqIUCAAIGGDRs2tNx8881/OTMz85LgWBOf/qxyXxAgQKD2AnfHvllfeuYzn/nyj3zkI9O1v7wrEiBAgACBBwr4R4E7ggABAgTqLtDR0bE2/q//C6OQP4tHBNvrXpACCBAgQOCAQPz3eTr+2/zuCLQ+Njo6OoaGAAECBAjUQ0CAVQ911yRAgACBhlNOOeWI1tbWN8SjgS+Kfxh1IiFAgACBXAjc0tzc/Nl4zPBdW7duvSUXFSuSAAECBAohIMAqxDRqggABAvkRWLdu3W9MT0//TVTcGp/+HMrP1KmUAAECDxaYiiDrT4eHh/8CDQECBAgQqLaAfzhUW9j4BAgQSFwg9rRaftNNN/1srLR6W1CclTiH9gkQIFBIgXjMcDxWZr059i/8t/Hx8bsL2aSmCBAgQKCuAgKsuvK7OAECBIor0NPT87RSqfS2eDzwqdHl3GorHwQIECBQfIFShFlXxuc7Yr+sfyl+uzokQIAAgVoJCLBqJe06BAgQSEAgHg88LEKr/xurrS5MoF0tEiBAgMAhBGLj96+tXr36VwYGBu6JQ2eBESBAgACBxQoIsBYr5zwCBAgQ2CfQ39+/eteuXRdEcPXmWG31aCwECBAgQOAgAjvnNn5va2v7+HXXXXcrIQIECBAgsFABAdZCxRxPgAABAvsEYrXVM2Mz9g/El73x2YyFAAECBAjMQ2BuFdZIrMz6k3jEcPM8jncIAQIECBDYJyDAciMQIECAwLwFOjs7j41/dPxxrLZ6zbxPciABAgQIEHgYgfgz5bOtra2v37p164/iEI8YulMIECBA4GEFBFhuDgIECBB4RIF4i2DLjTfeeGFsyPt78YhgHy4CBAgQIFBpgfgz5sb4M+a97e3tfzs4ODhV6fGNR4AAAQL5FxBg5X8OdUCAAIGqCPT19a2amJj4Sgz+xPhcVpWLGJQAAQIECNxPIIKsmfjpNc3Nzc8eHh6+HQ4BAgQIENgvIMByLxAgQIDAAYEnP/nJ7bfffvsz4y2Cn4j/E34UGgIECBAgUEeBe2Pj99+JUOsLQ0NDu+pYh0sTIECAQAYEBFgZmAQlECBAoN4Cvb29J8/MzLwzgqvzIrhqrXc9rk+AAAECBO4nMBt7ZX1lbuP3WJV1DRkCBAgQSFNAgJXmvOuaAAEC+wTiTYJPjeDqKxFarUZCgAABAgRyIDARq7JeGkHWZ3NQqxIJECBAoIICAqwKYhqKAAECeRCIva2On5qa+p14k+Cbo97mPNSsRgIECBAg8GCBWJH1N7FX1rvj8cIb6BAgQIBA8QUEWMWfYx0SIEBgn0CstnpcrLb6QKy2egoSAgQIECBQIIFrYp+sN42Njf1bgXrSCgECBAg8SECA5ZYgQIBAsQWae3p6nhvB1ReL3abuCBAgQIBAQ0Nra+tvP+pRj/ropZdeOvc2Qx8ECBAgUCABAVaBJlMrBAgQ2C8Qm7I/KkKrN8Rjgm+I7zWRIUCAAAECCQnMbfr+8Vhx/I5YlTWaUN9aJUCAQKEFBFiFnl7NESCQmsDc2wSnp6c/H28TfKzgKrXZ1y8BAgQIPEhgLsi6Pr534ejo6NV0CBAgQCDfAgKsfM+f6gkQINCwadOmps985jNnR3D19eBYg4QAAQIECBB4iMBkbPh+3gknnPA1jxe6OwgQIJBPAQFWPudN1QQIEGjYuHFj81VXXfX62Lj2/8SKq8OQECBAgAABAo8sEH9mluKId7S0tLwr3l64ixcBAgQI5EdAgJWfuVIpAQIE9gls2LChZceOHZ+ML8+L/T3asBAgQIAAAQILE4gga26T9+/Gi05+7pJLLplc2NmOJkCAAIF6CAiw6qHumgQIEFiEQGdn50nxF+4PxmqrX1rE6U4hQIAAAQIEDiIQjxZ+J/5sfakN390eBAgQyLaAACvb86M6AgQINHR0dDwuGN4bnz+FgwABAgQIEKiawDWxsvkPbrjhhm9U7QoGJkCAAIFFCwiwFk3nRAIECFRXIB5r6CiVSlfEX6aPru6VjE6AAAECBAjsF4jVzrvj7YXPGRkZuYwKAQIECGRHQICVnblQCQECBOYEGuNRwWfHX54vjscZjkRCgAABAgQI1EcgQqzpuPIFq1ev/uLAwMDc1z4IECBAoI4CAqw64rs0AQIE7i/Q3d39ylhx9db43vFkCBAgQIAAgcwI7Iww6wOjo6N/mpmKFEKAAIEEBQRYCU66lgkQyJRAU1dX1wtitdXmTFWlGAIECBAgQOAhArHh+xvj0cL3xC+U8RAgQIBAbQUEWLX1djUCBAjsE4h9rRrXr1//yunp6XfHT1dgIUCAAAECBHIjUI5H/d967LHHvufyyy+fyE3VCiVAgEDOBQRYOZ9A5RMgkDuBuT2u/jQCrDdE5StzV72CCRAgQIAAgX0CEWJNxg8XXXjhhb+1adMmK7LcFwQIEKiygACrysCGJ0CAwJxAX19f29TU1Etjj6sPEyFAgAABAgSKJRCPFr5tYmLiHTfddJMVWcWaWt0QIJAhAQFWhiZDKQQIFE9g7lHBdevWvW5mZubt0Z1HBYs3xToiQIAAAQL7BGJF1nRs9v6X559//lutyHJTECBAoPICAqzKmxqRAAEC+wTiUcHfiwBr7o1FHhV0TxAgQIAAgUQEIsiailY/HG8tfF18PZtI29okQIBA1QUEWFUndgECBFIS2LBhQ0s8PvBL3iqY0qzrlQABAgQIHFwgHi18ZfzPrH+MMGtuvywfBAgQILAEAQHWEvCcSoAAgfsLxKOCF8Sjgu+Ov6geR4YAAQIECBAgMCcQq7DumXtrYYRY7ydCgAABAosXEGAt3s6ZBAgQ2CfQ1dX12Pjh27Hq6jAkBAgQIECAAIGHEZhoaWk5f3h4+IuECBAgQGDhAgKshZs5gwABAvsE1q9f3z89Pf3lWHF1PBICBAgQIECAwHwEYjXWva2trc/Ztm3bpfM53jEECBAg8BMBAZY7gQABAgsUiEcFT43g6rNx2uMXeKrDCRAgQIAAAQL7BbbFiqxfjRVZ1yAhQIAAgUMLCLAObeQIAgQI7BOY26B9x44d/xUrrgRX7gkCBAgQIECgIgKxImtHfJ4ee2TdU5EBDUKAAIGCCgiwCjqx2iJAoHICseLqsFKp9I7Y4+p3KzeqkQgQIECAAAECDxD43IoVK1513XXX3cqFAAECBB4qIMByVxAgQOARBGKD9ndGcPXaOGQ5KAIECBAgQIBAlQWmm5qaPhmrsV5e5esYngABArkTEGDlbsoUTIBADQQaI7j66Qiu/iOu1VyD67kEAQIECBAgQOD+ArOxP9ZLYn+si+ObZTQECBAgYBN39wABAgQeIBDB1ZNij6vPxudaNAQIECBAgACBegrE3lg7m5ubL4gg66v1rMO1CRAgkAUBK7CyMAtqIECg7gJ9fX1te/fuHYjg6vS6F6MAAgQIECBAgMD9BCLIGl2+fPljBwcHd4MhQIBAqgICrFRnXt8ECOwTiBVXy+KHv4jHBd+AhAABAgQIECCQZYFYjfWF+J9tL/XGwizPktoIEKiWgACrWrLGJUAg8wI9PT2vircLvi/+ItiS+WIVSIAAAQIECBD4iUApgqy/iMcK3xors2ahECBAIBUBAVYqM61PAgQOCMTjgsdPTEwMxzcOw0KAAAECBAgQyKnARGz0viGCrO/ltH5lEyBAYEECAqwFcTmYAIE8C8TjgsfEaqt/is9n5rkPtRMgQIAAAQIE9gvEKqyh1tbWZ2/btm07FQIECBRZQIBV5NnVGwEC+wQisGqM8Or98eOr46f+u+e+IECAAAECBIomMBtB1j/F3ljne6ywaFOrHwIEDgT2KAgQIFBkgd7e3tMnJye3CK6KPMt6I0CAAAECBPYLtLW1/XKsxvo8EQIECBRNwEqEos2ofggQ2CcQ+1ytjeDqi/F2wbORECBAgAABAgRSEmhqaropVp6fOzY2dl1KfeuVAIFiCwiwij2/uiOQpEB3d/fH4u2Cvx7NNycJoGkCBAgQIECAQOyiEEHWl+KxwufDIECAQBEEBFhFmEU9ECCwT2D9+vVPnp6eviz+j2MLEgIECBAgQIAAgZ8IxCbvLxwaGvpcfDnLhAABAnkVEGDldebUTYDAAYF169Y9emZm5nMRXD0ZCwECBAgQIECAwEMFYnP36yPIen7sjzXMhwABAnkUEGDlcdbUTIDAAYF4u+A7Yp+r349vWHXlviBAgAABAgQIPLLA3GOFn4rHCl8ch1mN5W4hQCBXAgKsXE2XYgkQ2C/Q2dl5eqy4ujJ+vpwKAQIECBAgQIDAwgQiyHpKBFmXL+wsRxMgQKB+AgKs+tm7MgECixCItwu27d279zMRXr1gEac7hQABAgQIECBA4H8FLmtvb3/O4ODgbigECBDIuoAAK+szpD4CBA4I9PT0/FK8XfCzEV61YSFAgAABAgQIEKiIQLm5uflNIyMjf1WR0QxCgACBKgkIsKoEa1gCBCon0Nvb+6ipqan/iOCqt3KjGokAAQIECBAgQGC/QGzyflMEWU8fHh4ep0KAAIEsCgiwsjgraiJA4IBAR0fHpvgL1R9HeGWTdvcFAQIECBAgQKDKAvH3rg+fffbZr9q8eXOpypcyPAECBBYkIMBaEJeDCRColUB/f//qnTt33hHXa67VNV2HAAECBAgQIEBgn8Ds6tWrj7v66qtv40GAAIGsCAiwsjIT6iBA4Cd/W5qdbezu7n57uVx+MxICBAgQIECAAIH6CcRqrItiD9JXXHLJJZP1q8KVCRAg8BMBAZY7gQCBzAjEGwYfE28Y/FqEWMdmpiiFECBAgAABAgQSFogQ656WlpZfGRoa+reEGbROgEAGBARYGZgEJRBIXWDDhg0tN91008dj1dUFqVvonwABAgQIECCQUYHL2tvbf3ZwcHAqo/UpiwCBggsIsAo+wdojkHWBzs7Op8SKq0uizsOzXqv6CBAgQIAAAQKJC5SbmppeMDo6+qXEHbRPgEAdBARYdUB3SQIEfiIQbxj81/jhF3gQIECAAAECBAjkRyAeK/zO2NjYT+WnYpUSIFAEAQFWEWZRDwRyJhCbgZ41MzNzeZTdnrPSlUuAAAECBAgQIHCfQARZz4wg61tACBAgUAsBAVYtlF2DAIF9Aps2bWq6+OKLPxp7Xb0UCQECBAgQIECAQCEEvtLf3/+LmzdvLhWiG00QIJBZAQFWZqdGYQSKJfDYxz725HvuuWdL7Hdlr6tiTa1uCBAgQIAAgcQFYiXW5PLly58VG7x/N3EK7RMgUEUBAVYVcQ1NgEBDw31vGHxbrLp6Ew8CBAgQIECAAIHiCkSQdVEEWS/3psLizrHOCNRTQIBVT33XJlBwgdNPP/2kiYmJy2LV1SkFb1V7BAgQIECAAAECIRAh1s54U+G5IyMjVwAhQIBAJQUEWJXUNBYBAgcEuru731Iqlf4MCQECBAgQIECAQHoCEWR9IjZ4f0l6neuYAIFqCQiwqiVrXAKJCvT19R0Zq66+Ge2flSiBtgkQIECAAAECBH4icEtLS8vThoeHx4EQIEBgqQICrKUKOp8AgQMCnZ2dL47HBf8hvtGMhQABAgQIECBAgEAIlGM11ltjNdbbaRAgQGApAgKspeg5lwCBfQL3bdT+77FR+9ORECBAgAABAgQIEHiwQIRYo8cee+yZl19++QQdAgQILEZAgLUYNecQIHBAoLe390lTU1PfiZVXVl25LwgQIECAAAECBB5WIEKscmtr6y9u27bty5gIECCwUAEB1kLFHE+AwAGBeGTwAxFcvSq+0YSFAAECBAgQIECAwDwFPj8+Pr4xjp2d5/EOI0CAQIMAy01AgMCCBc4444w1995771iEV2sWfLITCBAgQIAAAQIEkhdoamqaXrZs2drBwcEfJY8BgACBeQkIsObF5CACBPYLdHd3vyj2uvp4hFdtVAgQIECAAAECBAgsQWBug/c3xgbv71nCGE4lQCARAQFWIhOtTQKVEOjq6vp2hFc/XYmxjEGAAAECBAgQIEBgTiBCrMiwxrpoECBA4JEEBFjuDwIEDikQG7WfPDk5eVUceOQhD3YAAQIECBAgQIAAgYULTMRjhU8bHR2d+zunDwIECDxEQIDlpiBA4BEF4pHB15RKpQ9gIkCAAAECBAgQIFBtgebm5nePjIz8QbWvY3wCBPInIMDK35ypmEDNBDo6Oq6Iiz2hZhd0IQIECBAgQIAAAQINDdvXrFnTMzAwMA2DAAEC+wUEWO4FAgQeIhB7XZ0We11tiV9oxkOAAAECBAgQIECgDgLltra2p23btu3yOlzbJQkQyKCAACuDk6IkAvUUiEcGXx2PDL5PeFXPWXBtAgQIECBAgACBEJhtaWl5//Dw8BtoECBAQIDlHiBAYL9Ac4RXV0V4dSYSAgQIECBAgAABAlkRiM3db1q9enWHRwqzMiPqIFAfAQFWfdxdlUCmBOKRwc54ZPC7UdRxmSpMMQQIECBAgAABAgR+IrA3gqxnxFsK/xsIAQJpCgiw0px3XRM4INDT0/OKmZmZD8c3mrAQIECAAAECBAgQyLDAbLyl8M/jLYVvyXCNSiNAoEoCAqwqwRqWQNYFNm3a1PSpT33qonhk8EVZr1V9BAgQIECAAAECBPYLxEqsgfj6qbEaa5IKAQLpCAiw0plrnRI4ILB+/fqjYtXVlfHY4KlYCBAgQIAAAQIECORNoLGx8ccrV67s37Jly015q129BCTEbw8AACAASURBVAgsTkCAtTg3ZxHIrUBnZ+dTovhvzc7OtuW2CYUTIECAAAECBAgQ+MlbCn893lJ4EQwCBIovIMAq/hzrkMABgXjL4BvjkcG/REKAAAECBAgQIECgKAKxL9ZHYl+s3ypKP/ogQODgAgIsdwaBBATiLYPLYsXV1+Lz6Qm0q0UCBAgQIECAAIHEBOKRwuFYjfW4oaGhXYm1rl0CyQgIsJKZao2mKhChVWM8Nrg3+vfIYKo3gb4JECBAgAABAgkIRIg1E/tinWpfrAQmW4tJCgiwkpx2TacisG7dumdPT09/Nfr1ez2VSdcnAQIECBAgQCBxgViJ9ZLYF+sTiTNon0DhBPyjtnBTqiECPxGI/a7eH/tdvZYHAQIECBAgQIAAgdQEmpqaNo+Ojv5K9D2bWu/6JVBUAQFWUWdWXykLNMeeV9eXy+WelBH0ToAAAQIECBAgkLZAhFi7TzzxxDWXXnrpTNoSuidQDAEBVjHmURcE9gnEXlfHxp5XV8WXJyAhQIAAAQIECBAgQKBhdwRZT4rVWIMsCBDIt4AAK9/zp3oCBwRiv6unxn5X34pvtGIhQIAAAQIECBAgQOCAQKm5ufmFIyMjX2BCgEB+BQRY+Z07lRM4IBArr14VK68+hIQAAQIECBAgQIAAgYMLxEqsv42VWK+KXy0zIkAgfwICrPzNmYoJPEAg9rv6VOx39SIsBAgQIECAAAECBAg8skBjY+M3x8bGnsWJAIH8CQiw8jdnKiawT6C/v7/1rrvuujZWXq1DQoAAAQIECBAgQIDAvAXuXLNmzUkDAwP3zvsMBxIgUHcBAVbdp0ABBBYucOqppx4XS6C3R3i1fOFnO4MAAQIECBAgQIBA2gKxEms6BM6O1VjXpS2hewL5ERBg5WeuVEpgn8D69evPmZqauiS+bEJCgAABAgQIECBAgMDiBVpbW18+NDT0scWP4EwCBGolIMCqlbTrEKiAQLxp8GXxpsGPxlB+71bA0xAECBAgQIAAAQIE4g2FH4g3FL6OBAEC2Rbwj+Bsz4/qCOwXaOzu7v5wqVT6TSQECBAgQIAAAQIECFRWIB4p/OqFF1743E2bNnlDYWVpjUagYgICrIpRGohAdQQ2bNjQsmPHjktjv6unVucKRiVAgAABAgQIECBAIEKskZUrVz52y5Yte2gQIJA9AQFW9uZERQQOCGzcuLH5+9///t5YedWChQABAgQIECBAgACB6gpEiFWamJg4/Oabb/aGwupSG53AggUEWAsmcwKB2gj09PSsn5mZ+Z+42sraXNFVCBAgQIAAAQIECBCYE2hpafnp4eHh/6RBgEB2BARY2ZkLlRA4INDV1XV2PDL43/HZioUAAQIECBAgQIAAgZoLlGJz9xfH5u6frvmVXZAAgYMKCLDcGAQyJhDh1YXlcvmTGStLOQQIECBAgAABAgSSE4gQ6y0RYr09ucY1TCCDAgKsDE6KktIViPDqnRFe/WG6AjonQIAAAQIECBAgkC2B2BfrM2NjYxdEVd5QmK2pUU1iAgKsxCZcu9kV6Ojo+E5U502D2Z0ilREgQIAAAQIECCQqECHW9RFi9SXavrYJZEJAgJWJaVBEygJ9fX1te/fuvTz2uzo7ZQe9EyBAgAABAgQIEMi4wM6mpqZTRkdH78l4ncojUEgBAVYhp1VTeRHo7+9vveuuu7ZFeNWRl5rVSYAAAQIECBAgQCBVgViJdVvsi3VavKHw9lQN9E2gXgICrHrJu27yArHf1eGx39UtAbEieQwABAgQIECAAAECBHIiECHWTHw+OlZi3ZaTkpVJoBACAqxCTKMm8iawfv36nunp6Wtj5VVb3mpXLwECBAgQIECAAAECDaV4nPBZEWJ9mwUBArUREGDVxtlVCBwQ6OnpedbMzMw34ht+/7kvCBAgQIAAAQIECORXYLalpeXX43HCi/LbgsoJ5EfAP6DzM1cqLYDAunXrnhcrr75UgFa0QIAAAQIECBAgQIBACMSeWH8yMjLy5zAIEKiugACrur5GJ3BAoLOz8zfjkcG/Q0KAAAECBAgQIECAQLEEYk+sd42Njf1hsbrSDYFsCQiwsjUfqimoQGzY/p7YsP0NBW1PWwQIECBAgAABAgSSF4gQ66sRYj0neQgABKokIMCqEqxhCewX6O7u/ptSqfTbRAgQIECAAAECBAgQKLZAPE747Xic8FnRZanYneqOQO0FBFi1N3fFhATiscEvx2OD/i9MQnOuVQIECBAgQIAAgbQF4u2E34u3Ez4xbQXdE6i8gACr8qZGJDAn0Bjh1XcivHoKDgIECBAgQIAAAQIEkhPYEY8TnhyPFc4m17mGCVRJQIBVJVjDpiuwcePG5quuumpLhFenpaugcwIECBAgQIAAAQJpC0R4dfMRRxzRPTAwcG/aEronUBkBAVZlHI1CYJ/AKaecsjyWDF8fX56KhAABAgQIECBAgACBtAUixLqjpaXl1KGhoV1pS+iewNIFBFhLNzQCgX0C8abBZbHqakd8HoOEAAECBAgQIECAAAEC9wnc297eftLg4OCdRAgQWLyAAGvxds4kcEAgwqvDI7i6JT5XYCFAgAABAgQIECBAgMD9BWIl1lRbW9spW7duvYUMAQKLExBgLc7NWQQOCMRm7cdGcLUtvrEGCwECBAgQIECAAAECBB5GoBTbjayLNxSOESJAYOECAqyFmzmDwAGB+/a82hPfaMJCgAABAgQIECBAgACBQwjMtra2dsaeWDeQIkBgYQICrIV5OZrAAYG+vr61ExMT2+Mbfh+5LwgQIECAAAECBAgQmLdArMTqi5VYcy9/8kGAwDwF/MN7nlAOI3B/gZ6eno6ZmZlr43v2vHJrECBAgAABAgQIECCwYIF4O+FPDw8P/+eCT3QCgUQFBFiJTry2Fy+wbt26w6anp+9Z/AjOJECAAAECBAgQIECAQOxD0tR0dqzEupoFAQKHFhBgHdrIEQQOCMTbBk8rl8vXxTf83nFfECBAgAABAgQIECCwZAErsZZMaIBEBPwjPJGJ1ubSBc4444yOPXv2zD2nvmzpoxmBAAECBAgQIECAAAEC+wTKEWL9XDxO+O88CBB4eAEBlruDwDwEzjrrrBN27dp10zwOdQgBAgQIECBAgAABAgQWLLBs2bInb9269b8XfKITCCQiIMBKZKK1uXiBeNvgY/bu3Xvl7Oxsy+JHcSYBAgQIECBAgAABAgQeWaC1tfXcoaGhf+NEgMBDBQRY7goCjyAQG7Y/Ot42+APhlduEAAECBAgQIECAAIEaCJQbGxt/Zmxs7Fs1uJZLEMiVgAArV9Ol2FoKRHh1arxtcLyW13QtAgQIECBAgAABAgQIxJ5YT4g9sa4kQYDA/woIsNwNBA4i0N3d3VsqleZeZ2vDdncIAQIECBAgQIAAAQI1F4iVWM+0Eqvm7C6YYQEBVoYnR2n1EYg9r1ZNTEzcE1f3+6M+U+CqBAgQIECAAAECBAiEQFNT09mjo6Nz/2PdB4HkBfwDPflbAMD9BTo6OtbGz39AhQABAgQIECBAgAABAlkQiBCrL0Ks67NQixoI1FNAgFVPfdfOlMB9G7YPxYbtqzJVmGIIECBAgAABAgQIEEhaoK2t7cxt27ZdmzSC5pMXEGAlfwsAmBPo6upaVi6X740vm4gQIECAAAECBAgQIEAgYwKzEWJ1RIi1PWN1KYdAzQQEWDWjdqGsCsSeV0dOTk7eGgFWS1ZrVBcBAgQIECBAgAABAmkLxKbupQixTtq6destaUvoPlUBAVaqM6/vfQJnnnnmyj179myPxwaPRkKAAAECBAgQIECAAIGMC0yuWrVq7ZYtW36c8TqVR6DiAgKsipMaMC8CGzZsaNmxY8dtEV4dkZea1UmAAAECBAgQIECAQNoCsRLr3hUrVpx47bXX7kxbQvepCQiwUptx/e4TmAuvbrzxxvH48iQkBAgQIECAAAECBAgQyJnA3fF2wuPi7YSTOatbuQQWLSDAWjSdE3Ms0NjZ2XltrLzqy3EPSidAgAABAgQIECBAIG2B2/v7+4/fvHlzKW0G3aciIMBKZab1eUAgwqv/ivDqyUgIECBAgAABAgQIECCQZ4F4nHDkpJNOOu3SSy+dyXMfaicwHwEB1nyUHFMYgY6Ojq9FM+cUpiGNECBAgAABAgQIECCQtECEWNePjY15uiTpuyCN5gVYacyzLkOgq6vrY+Vy+WUwCBAgQIAAAQIECBAgUCSBCLGuihCrv0g96YXAgwUEWO6JJAQivNoU4dVbk2hWkwQIECBAgAABAgQIJCcQm7p/OjZ1Pz+5xjWcjIAAK5mpTrfRCK/eFOHVO9IV0DkBAgQIECBAgAABAikINDc3f3xkZMRTJylMdoI9CrASnPSUWu7u7j6vVCp9LqWe9UqAAAECBAgQIECAQLoC8Tjh2+NxwrekK6DzogoIsIo6s/pqWL9+/VOmpqa+i4IAAQIECBAgQIAAAQIpCcRKrJfFSqyPp9SzXosvIMAq/hwn2WGsvOqNlVfXJ9m8pgkQIECAAAECBAgQSF4gVmI9NVZi/VfyEAAKIyDAKsxUamS/QG9v76Ni5dWNs7OzLVQIECBAgAABAgQIECCQqMDssmXLzty6det1ifav7YIJCLAKNqGpt9Pf399611133Rbh1erULfRPgAABAgQIECBAgEDyAhMtLS3dw8PDP0xeAkDuBQRYuZ9CDdxfoKOj4874+RoqBAgQIECAAAECBAgQILBPYHJ8fHw5CwJ5FxBg5X0G1b9PYMOGDS07duy4IlZenY2EAAECBAgQIECAAAECBB4gcGdss3LiTTfdNMGFQF4FBFh5nTl1P0Cgs7PzKxFe/TwWAgQIECBAgAABAgQIEHioQGzqflVs6v6E+JUSHwJ5FBBg5XHW1PwAgXjj4KfijYMvwkKAAAECBAgQIECAAAECDy/Q3Nz8vZGRkScyIpBHAQFWHmdNzQcEYuXVb8bKq79DQoAAAQIECBAgQIAAAQLzEnhv7In1e/M60kEEMiQgwMrQZChlYQJdXV1PLpfL342z3McLo3M0AQIECBAgQIAAAQIJCzQ1Nb1idHT0owkTaD2HAv7hn8NJU3JDw+mnn37cvffe+yMWBAgQIECAAAECBAgQILBwgWXLlvVs3bp1ZOFnOoNAfQQEWPVxd9UlCJx66qnHxf8xGI1HB1ctYRinEiBAgAABAgQIECBAIHWBdfE44XDqCPrPh4AAKx/zpMr/FWiKfa9+GOHV8VAIECBAgAABAgQIECBAYPEC8WbCXfFCrLXbt2+/a/GjOJNAbQQEWLVxdpXKCDTGvlfbY9+rtZUZzigECBAgQIAAAQIECBBIWyBCrNvGxsaOC4XZtCV0n3UBAVbWZ0h9BwQ6Ojouip9cgIQAAQIECBAgQIAAAQIEKipwZTxK+ISKjmgwAhUWEGBVGNRw1RHo7u5+dSxt/WB1RjcqAQIECBAgQIAAAQIE0hZobm7+h5GRkd9IW0H3WRYQYGV5dtS2T6Cnp+fxMzMz38NBgAABAgQIECBAgAABAtUTaGlpecnw8PAnqncFIxNYvIAAa/F2zqyBQG9vb/fk5OS2uFRTDS7nEgQIECBAgAABAgQIEEhaIN74/uTR0dH/ThpB85kUEGBlcloUNSdw4oknti9btuyOeONgOxECBAgQIECAAAECBAgQqIlAKVZiHR8rsW6vydVchMA8BQRY84RyWO0FOjs7RyO86qz9lV2RAAECBAgQIECAAAEC6QrEmwl/HJ9rYyXWZLoKOs+agAArazOinn0C8cbBr8UP5+AgQIAAAQIECBAgQIAAgdoLRIC1dWxs7LTaX9kVCRxcQIDlzsicQLxx8I/jjYNvz1xhCiJAgAABAgQIECBAgEBCAvFmwn+JNxP+YkItazXDAgKsDE9OiqXFyqunRd//mWLveiZAgAABAgQIECBAgEDWBGIl1m/GSqy/z1pd6klPQICV3pxntuO1a9euic0C74gC3ZeZnSWFESBAgAABAgQIECCQmMBshFgnR4i1I7G+tZsxAUFBxiYk1XL6+vraJiYmbon+j0zVQN8ECBAgQIAAAQIECBDIqsCq+NiyZcuerNanruILCLCKP8d56LAx3jh4WbxxcO7xQR8ECBAgQIAAAQIECBAgkD2BG9rb29cPDg5OZa80FaUgIMBKYZYz3mNXV9cny+XyhRkvU3kECBAgQIAAAQIECBBIWiAeJfyPeJTwZ5JG0HzdBARYdaN34TmBeOPgC+KNg5+nQYAAAQIECBAgQIAAAQLZF2hqanr96Ojo+7NfqQqLJiDAKtqM5qifWHnVGY8Nbo3P1hyVrVQCBAgQIECAAAECBAikLDDb2tr6M0NDQ99MGUHvtRcQYNXe3BXvE+jo6Jh7dlp45Y4gQIAAAQIECBAgQIBAvgRKMzMzx9x4440781W2avMsIMDK8+zluPbYtH04Vl5157gFpRMgQIAAAQIECBAgQCBlgVvHx8ePTxlA77UVEGDV1tvVQiAeHXxfbNr+OhgECBAgQIAAAQIECBAgkF8Bm7rnd+7yWLkAK4+zluOae3t7nzQ5OXl5jltQOgECBAgQIECAAAECBAjcJ9Dc3Py6kZGRDwAhUG0BAVa1hY1/QGDt2rVrWlpa7kRCgAABAgQIECBAgAABAsURiH/n9Q4PD28rTkc6yaKAACuLs1LQmmLfq1tj36tjC9qetggQIECAAAECBAgQIJCqwOTY2Fh7PFI4myqAvqsvIMCqvrErNDQ0xr5Xm2Pfq/NgECBAgAABAgQIECBAgEDxBCK8Go4Qqzc6KxevOx1lQUCAlYVZKHgN69ate9n09PTHCt6m9ggQIECAAAECBAgQIJC0QFNT03tGR0d/P2kEzVdNQIBVNVoDzwmceeaZJ+7evXsHDQIECBAgQIAAAQIECBAovkDsh/WY2A/rmuJ3qsNaCwiwai2e0PVOPPHE9ra2tpuj5SMSalurBAgQIECAAAECBAgQSF3giPHx8btTR9B/ZQUEWJX1NNr9BGLT9m/Gpu3PgEKAAAECBAgQIECAAAEC6QjEflhjZ5999rrNmzeX0ulap9UWEGBVWzjR8bu7u19dKpU+mGj72iZAgAABAgQIECBAgEDSAs3NzX83MjLyyqQRNF9RAQFWRTkNNiewfv36M6amprbQIECAAAECBAgQIECAAIF0BWJT9w2xqfu30xXQeSUFBFiV1DRWQ7xx8LB44+Dcpu2rcRAgQIAAAQIECBAgQIBA0gLl9vb2EwYHB3+UtILmKyIgwKoIo0H2C3R0dFwZXz+OCAECBAgQIECAAAECBAgQiP2wbhwbGzslJGZpEFiKgABrKXrOfYBArL56bay+ej8WAgQIECBAgAABAgQIECCwX6ClpeX/Dg8Pv4oIgaUICLCWoufcAwL37Xt1TXzDPeW+IECAAAECBAgQIECAAIEHCLS2tj5raGjom1gILFZA2LBYOecdEOjr62ubmJj4cXzDvlfuCwIECBAgQIAAAQIECBB4iEA8Sjh9/PHHH/Xd7353Fx4CixEQYC1GzTkPEOjs7Pzq7OzsuVgIECBAgAABAgQIECBAgMDDCUSItSX2wzo7fr1EicBCBQRYCxVz/IPDq1dEePURLAQIECBAgAABAgQIECBA4FACTU1Nfzk6OvqmQx3n1wk8WECA5Z5YtEBs2v7o2LR9RwzQtOhBnEiAAAECBAgQIECAAAECSQmsWLHitOuuu25rUk1rdskCAqwlE6Y5wIYNG1p27NgxFKuvOtIU0DUBAgQIECBAgAABAgQILFLg7lWrVp2wZcuWPYs832kJCgiwEpz0SrTc1dX1kXK5/IpKjGUMAgQIECBAgAABAgQIEEhLIB4l/EY8SnhOWl3rdikCAqyl6CV6bm9v75MmJycvT7R9bRMgQIAAAQIECBAgQIBABQTa2tp+edu2bZ+vwFCGSEBAgJXAJFeyxVh5dXisvLo5xlxZyXGNRYAAAQIECBAgQIAAAQLpCcR+WMfHfli3pte5jhcqIMBaqFjix3d0dFwWBD+VOIP2CRAgQIAAAQIECBAgQKACAo2NjT8YGxs7pQJDGaLgAgKsgk9wJdvr6en51ZmZmc9UckxjESBAgAABAgQIECBAgEDaArEf1jtiP6w3p62g+0MJCLAOJeTX9wmsX7/+qKmpqdtxECBAgAABAgQIECBAgACBSgu0traeMDQ0NLddjQ8CBxUQYLkx5iPQ1NnZOTI7O9sxn4MdQ4AAAQIECBAgQIAAAQIEFihQHh8fb4tzSgs8z+GJCAiwEpnopbTZ3d39tlKp9CdLGcO5BAgQIECAAAECBAgQIEDgkQRiP6x/jv2wnk+JwMEEBFjui0cUeMxjHnPEPffcsxMTAQIECBAgQIAAAQIECBCotkA8SvjMeJTwW9W+jvHzJyDAyt+c1bLi5njr4GRcsLmWF3UtAgQIECBAgAABAgQIEEhXYM2aNW0DAwPT6Qro/GACAiz3xcMKxL5XH499r16CiAABAgQIECBAgAABAgQI1EogHiW8Kh4l7K/V9VwnHwICrHzMU82rPO200x67d+/eq2p+YRckQIAAAQIECBAgQIAAgeQF4lHC34hHCf8heQgABwQEWG6GhwjEqqvG2Lh9qlwut+AhQIAAAQIECBAgQIAAAQK1FohVWOXDDjvsqO9///t31frarpdNAQFWNuelrlXFo4PfjBDrGXUtwsUJECBAgAABAgQIECBAIHWBofHx8fWpI+j/JwICLHfCAwQivHp2hFeXYCFAgAABAgQIECBAgAABAvUWiEcJXxuPEn6w3nW4fv0FBFj1n4PMVHDiiSe2L1u27McRYK3KTFEKIUCAAAECBAgQIECAAIGUBabb29vXDg4O/ihlBL1bgeUeuJ9AR0fH1+Kn50AhQIAAAQIECBAgQIAAAQIZErgmHiV8bNQzm6GalFJjASuwagye1cv19vY+aXJy8vKs1qcuAgQIECBAgAABAgQIEEhXIB4lfGE8Srg5XQGdC7DcAw1nnnnmyj179twSjw4ehoMAAQIECBAgQIAAAQIECGRRIB4lPCoeJbwzi7WpqfoCAqzqG2f+CvHo4OeiyPMyX6gCCRAgQIAAAQIECBAgQCBlgS3xKOFZKQOk3LsAK+XZj97POOOM9bH6amviDNonQIAAAQIECBAgQIAAgRwItLS0vHh4ePiiHJSqxAoLCLAqDJqn4eKRwcaurq7p+LE5T3WrlQABAgQIECBAgAABAgTSFGhsbCxfeOGFrZs2bSqnKZBu1wKsdOe+obOz8/MRXr0gYQKtEyBAgAABAgQIECBAgEDOBCLEumlsbOyknJWt3CUKCLCWCJjX02Pfq8dF7VfmtX51EyBAgAABAgQIECBAgEC6AvEo4a/Go4SfTVcgvc4FWOnN+b6OY/XVbbH66uhE29c2AQIECBAgQIAAAQIECORbYE9TU9OjR0dH78l3G6qfr4AAa75SBTouwqsPR3j1WwVqSSsECBAgQIAAAQIECBAgkJ7AV+OthM9Jr+00OxZgJTbvvb29J09OTm5PrG3tEiBAgAABAgQIECBAgEABBVpbW88aGhraUsDWtPQgAQFWYrdErL7aFquv1iXWtnYJECBAgAABAgQIECBAoJgCe2JD98NiY/fZYranq/0CAqyE7oWurq7zy+XyxQm1rFUCBAgQIECAAAECBAgQKLhA7IX117EX1qsL3mby7QmwErkF+vv7W3fu3DmVSLvaJECAAAECBAgQIECAAIGEBNrb208eHBy8MaGWk2tVgJXIlMejg9fFo4N9ibSrTQIECBAgQIAAAQIECBBISCAeIbw9HiU8JqGWk2tVgJXAlHd0dPx8tPmVBFrVIgECBAgQIECAAAECBAgkKtDc3Py6kZGRDyTafuHbFmAVfIpj36tlse/VzdHmkQVvVXsECBAgQIAAAQIECBAgkLbAZDxK+Oh4lPDOtBmK2b0Aq5jzeqCrCLDeFwHW6wrepvYIECBAgAABAgQIECBAgEBDPEr4lXiU8BdQFE9AgFW8OT3QUU9Pz9EzMzO3FbhFrREgQIAAAQIECBAgQIAAgQcIxKOEp8WjhFuxFEtAgFWs+XxAN7Fx+2hs3N5Z4Ba1RoAAAQIECBAgQIAAAQIEHiywd3x8vB1LsQQEWMWazwPdxOqrX4/VV/9Y0Pa0RYAAAQIECBAgQIAAAQIEHlYgVmH9bazC+h1ExREQYBVnLg90Mrdxe6y82hWfrQVsT0sECBAgQIAAAQIECBAgQOBQAqXW1ta1Q0NDcy8181EAAQFWASbxwS10d3d/vlQqvaCArWmJAAECBAgQIECAAAECBAjMS6Cpqeny0dHRp8zrYAdlXkCAlfkpWliBp59++nH33nvvjxZ2lqMJECBAgAABAgQIECBAgEDxBFatWtWxZcuWG4rXWXodCbCKNeeNsXH7cDw62FWstnRDgAABAgQIECBAgAABAgQWJTA7NjbW3NjYOLuos52UGQEBVmamYumFxKODL4pHBz+19JGMQIAAAQIECBAgQIAAAQIEiiEQjxK+Px4lfH0xukm3CwFWcea+saOjoxTtmNPizKlOCBAgQIAAAQIECBAgQKACAitWrDj+uuuuu7UCQxmiTgLCjjrBV/qy8ebBz5bL5RdWelzjESBAgAABAgQIECBAgACBvAvEKqzLYhXW0/PeR8r1C7AKMPu9vb2Pmpyc9GrQAsylFggQIECAAAECBAgQIECgOgKxCqsrVmGNVWd0o1ZbQIBVbeHqjz+3cfuVsXF7f/Uv5QoECBAgQIAAAQIECBAgQCCfArGR++7Y0P3wqN6G7jmcQgFWDift/iVHePXMCK/+I+dtKJ8AAQIECBAgQIAAAQIECFRdIEKsP4gQ691Vv5ALVFxAgFVx0toOGBu3z8QVm2t7VVcjQIAAAQIECBAgQIAAAQK5FCivWrXq8C1btuzJZfUJFy3AyvHkcOd6LgAAIABJREFUd3d3v61UKv1JjltQOgECBAgQIECAAAECBAgQqKlAbOj+6djQ/fyaXtTFliwgwFoyYX0G6OvrW7V3796d8fhgS30qcFUCBAgQIECAAAECBAgQIJBPgba2tqO3bdt2Rz6rT7NqAVZO572rq+v/lcvljTktX9kECBAgQIAAAQIECBAgQKCeAtvHx8dPrWcBrr0wAQHWwrwycfT69etPmZqauiETxSiCAAECBAgQIECAAAECBAjkUKC1tfXcoaGhf8th6UmWLMDK4bTHmwd/EI8Ors1h6UomQIAAAQIECBAgQIAAAQKZEIg3Et4ebyQ8LoopZ6IgRTyigAArZzdIT0/P02ZmZv4zZ2UrlwABAgQIECBAgAABAgQIZE4gNnS/MDZ0vzhzhSnoIQICrHzdFI0dHR23R8lH5qts1RIgQIAAAQIECBAgQIAAgWwK9Pf3t2zevLmUzepUtV9AgJWje6G7u/s1pVLpAzkqWakECBAgQIAAAQIECBAgQCDTAs3NzZ8eGRk5P9NFKq5BgJWTm6Cvr69tYmLi3ii3OSclK5MAAQIECBAgQIAAAQIECORBoLxixYpHX3fddbfmodhUaxRg5WTmY/XVB2L11WtyUq4yCRAgQIAAAQIECBAgQIBAbgRiL6wvx15Yz81NwQkWKsDKwaRv3LixeWBgYCYHpSqRAAECBAgQIECAAAECBAjkUmDt2rXtl1566d5cFp9A0QKsHExyrL7691h99awclKpEAgQIECBAgAABAgQIECCQV4G7xsfH1+S1+KLXLcDK+AxHeNUb4dVglGmuMj5XyiNAgAABAgQIECBAgACBfAu0tbU9e9u2bV/LdxfFrF4okvF57ezsvHJ2dvZxGS9TeQQIECBAgAABAgQIECBAIPcCjY2NO8bGxtbmvpECNiDAyvCkdnR0zP2m+UGGS1QaAQIECBAgQIAAAQIECBAolECEWC+IEOuLhWqqAM0IsDI8ibH6alesvlqV4RKVRoAAAQIECBAgQIAAAQIEiiYwEXthrShaU3nvR4CV0Rns6up6Xrlc/lJGy1MWAQIECBAgQIAAAQIECBAorEBzc/PrRkZGPlDYBnPYmAArm5PWHKuvbozVV4/OZnmqIkCAAAECBAgQIECAAAEChRaYXrNmzcqBgYHpQneZo+YEWBmcrHjz4Hnx5sHPZbA0JREgQIAAAQIECBAgQIAAgSQEmpqa3js6Ovp7STSbgyYFWBmcpFh9NROrr5ozWJqSCBAgQIAAAQIECBAgQIBAEgKxmXu5paXliKGhoV1JNJzxJgVYGZugnp6e352ZmfnrjJWlHAIECBAgQIAAAQIECBAgkJxA7IX1wdgL67XJNZ7BhgVYGZuUjo6OySipLWNlKYcAAQIECBAgQIAAAQIECCQpEG8klJ1kYOZNQgYmYX8J8ebBP403D/6fDJWkFAIECBAgQIAAAQIECBAgkLRArML6aqzCek7SCBloXoCVgUmYK+HMM89cuXv37tvjy+UZKUkZBAgQIECAAAECBAgQIECAQENDadmyZSdt3br1Fhj1ExBg1c/+AVeOjdvfEhu3/1lGylEGAQIECBAgQIAAAQIECBAgcJ9AvJFwc7yR8IVA6icgwKqf/YErR3DVGAFWOQOlKIEAAQIECBAgQIAAAQIECBA4iEB7e/tRg4ODd8Kpj4AAqz7uD7hqvHnwo/Hmwd/IQClKIECAAAECBAgQIECAAAECBA4iEHthfSf2wvopOPUREGDVx/3AVc8999xlw8PDu2IVVmudS3F5AgQIECBAgAABAgQIECBA4BEE4uVrq77+9a/vgVR7AQFW7c0fcMXu7u6/KpVKv1/nMlyeAAECBAgQIECAAAECBAgQOIRAY2Pjt8fGxjaAqr2AAKv25geu2N/fv2Lnzp33xDea61iGSxMgQIAAAQIECBAgQIAAAQLzE5htaWnpiiepxud3uKMqJSDAqpTkIsaJpYfvK5fLr1vEqU4hQIAAAQIECBAgQIAAAQIE6iPwr+Pj48+rz6XTvaoAq05zv2nTpqZPfvKTpTpd3mUJECBAgAABAgQIECBAgACBRQqsW7du+SWXXDK5yNOdtggBAdYi0CpxijcPVkLRGAQIECBAgAABAgQIECBAoPYC8UbCa+KNhI+p/ZXTvaIAqw5zf9/eV3fEpZfX4fIuSYAAAQIECBAgQIAAAQIECCxRYOXKlUdee+21O5c4jNPnKSDAmidUJQ/r7Oz8k9nZ2bdVckxjESBAgAABAgQIECBAgAABArUTiDcSfineSPhLtbti2lcSYNV+/ps6OjrsfVV7d1ckQIAAAQIECBAgQIAAAQIVFYjFKcffcMMNt1Z0UIMdVECAVeMbo7u7+w9KpdK7anxZlyNAgAABAgQIECBAgAABAgQqLNDU1PSx0dHRl1d4WMMdRECAVePbIlZfzdb4ki5HgAABAgQIECBAgAABAgQIVElgfHxctlIl2/sPC7kGyPsvEXtf/X4sL/yrGl7SpQgQIECAAAECBAgQIECAAIHqClwcIdaF1b2E0QVYNboHNmzY0LJjx45bIsA6ukaXdBkCBAgQIECAAAECBAgQIECg+gKleJRwZTxKOFn9S6V7BQFWjea+q6vrueVy+V9qdDmXIUCAAAECBAgQIECAAAECBGokEAHWOyPA+qMaXS7JywiwajTtsffV7rjUyhpdzmUIECBAgAABAgQIECBAgACB2glMtre3Hz44ODhVu0umdSUBVg3mu6en5/EzMzPfq8GlXIIAAQIECBAgQIAAAQIECBCog0Bzc/PLRkZGPl6HSydxSQFWDaY5Vl/dHZc5vAaXcgkCBAgQIECAAAECBAgQIECgPgKl2My9pT6XLv5VBVhVnuN482B/bNz+P1W+jOEJECBAgAABAgQIECBAgACBOgvEKqznxiqsL9e5jEJeXoBV5WmN1Vf/GZd4WpUvY3gCBAgQIECAAAECBAgQIECg/gK3xSqsY+tfRvEqEGBVcU5j9dVJsfrqxipewtAECBAgQIAAAQIECBAgQIBAhgQaGxufOTY29q0MlVSIUgRYVZzGCLC+GAHWL1XxEoYmQIAAAQIECBAgQIAAAQIEMiQQAdb/RID1+AyVVIhSBFhVmsYIrhojwCpXaXjDEiBAgAABAgQIECBAgAABAhkVaG9vf9Tg4OCPMlpeLssSYFVp2mLvq4ti6AuqNLxhCRAgQIAAAQIECBAgQIAAgYwKxCqsy2MV1lMyWl4uyxJgVWHa+vv7W3fu3Hl3DN1eheENSYAAAQIECBAgQIAAAQIECGRc4Ljjjltx+eWXT2S8zNyUJ8CqwlTFo4OvjkcIP1iFoQ1JgAABAgQIECBAgAABAgQI5EAgVmH9U6zC+rUclJqLEgVYlZ+mpnh88LYY9sjKD21EAgQIECBAgAABAgQIECBAICcCe9esWXP4wMDAdE7qzXSZAqwKT09XV9djy+XyVRUe1nAECBAgQIAAAQIECBAgQIBAzgRiFdYrYxXW3+Ws7EyWK8Cq8LR0d3ffXSqVDq/wsIYjQIAAAQIECBAgQIAAAQIEciYQAdZEBFgro+zZnJWeuXIFWBWckr6+vuMnJiZuqeCQhiJAgAABAgQIECBAgAABAgRyLNDS0tI7PDy8LcctZKJ0AVYFpyE2b/9WbN6+oYJDGooAAQIECBAgQIAAAQIECBDIsUBTU9Odo6OjR+W4hUyULsCq0DTE6qtVsfrqnhiOaYVMDUOAAAECBAgQIECAAAECBIogEJu5HxObud9ehF7q1YOwpULysXn7m2Pz9j+v0HCGIUCAAAECBAgQIECAAAECBAoiEHth/UvshfWLBWmnLm0IsCrD3tTR0bEnhlpemeGMQoAAAQIECBAgQIAAAQIECBRFIAKsmdhy6Ojx8fG7i9JTrfsQYFVAPB4fPCseH/x+BYYyBAECBAgQIECAAAECBAgQIFBAgdjM/XdjM/e/KWBrNWlJgFUB5ti8/d5IUtsrMJQhCBAgQIAAAQIECBAgQIAAgQIKxCqsqXiMcFkBW6tJSwKsJTKfeuqpJ8dNuH2JwzidAAECBAgQIECAAAECBAgQKLhA5AdnRIh1XcHbrEp7Aqwlssbm7V+NzdvPXeIwTidAgAABAgQIECBAgAABAgQKLtDU1HTP6Ojo6oK3WZX2BFhLYH3iE594+G233Tb3GszWJQzjVAIECBAgQIAAAQIECBAgQCANgdk1a9acMDAwcEsa7VauSwHWEixj9dXLY/XV3y9hCKcSIECAAAECBAgQIECAAAECCQnEY4T/GI8RvjShlivSqgBrCYw2b18CnlMJECBAgAABAgQIECBAgECCAhFgTcfnYfEo4WSC7S+6ZQHWIunWr19/ytTU1A2LPN1pBAgQIECAAAECBAgQIECAQKICEWA9P1Zh/XOi7S+qbQHWotgaGuLxwVvj8cFjF3m60wgQIECAAAECBAgQIECAAIFEBWIz94lYgbUi0fYX1bYAaxFsfX19qyYmJu6JU/ktws8pBAgQIECAAAECBAgQIEAgdYGVK1ceee211+5M3WG+/Qtg5it1v+N6enreOTMz84eLONUpBAgQIECAAAECBAgQIECAAIGG5ubmy0ZGRp6OYn4CAqz5Od3/qMaOjo474xtHLPxUZxAgQIAAAQIECBAgQIAAAQIE9glMj4+PL48fyzwOLSDAOrTRA46I8Opx8Y0rF3iawwkQIECAAAECBAgQIECAAAECDxCIvbB+N/bC+hsshxYQYB3a6AFHxObt34/N289a4GkOJ0CAAAECBAgQIECAAAECBAg8QCDeRnhjvI3wZCyHFhBgHdro/kc0xQqs0sJOcTQBAgQIECBAgAABAgQIECBA4OACsQrrpFiFdROfRxYQYC3gDrF5+wKwHEqAAAECBAgQIECAAAECBAgcUiA2c/98bOb+y4c8MPEDBFgLuAFi9dXc6y1t3r4AM4cSIECAAAECBAgQIECAAAECjywQm7nLZw5xkwCa5++i9evXP3lqauq/5nm4wwgQIECAAAECBAgQIECAAAEC8xKIVVgvilVYn5nXwYkeJMCa58R3dnZ+cXZ29pfmebjDCBAgQIAAAQIECBAgQIAAAQLzEojN3EdjM/fueR2c6EECrHlMfH9//4qdO3fujkN5zcPLIQQIECBAgAABAgQIECBAgMCCBU6ORwlvXPBZiZwgkJnHRPf29j5/cnLyC/M41CEECBAgQIAAAQIECBAgQIAAgQULxNsI/zLeRvimBZ+YyAkCrHlMdDw+uCseH1w1j0MdQoAAAQIECBAgQIAAAQIECBBYjMDeWIG1Mk4sL+bkop8jwDrEDJ977rnLhoaG9hb9RtAfAQIECBAgQIAAAQIECBAgUF+BVatWHbdly5Yf17eKbF5dgHWIeenq6rqoXC5fkM3pUxUBAgQIECBAgAABAgQIECBQFIF4G+GWeBvhWUXpp5J9CLAOoRmPD+6MxwePqCS6sQgQIECAAAECBAgQIECAAAECBxOIxwhlNQeBgfIIv19i9dWGWH31Lb+lCBAgQIAAAQIECBAgQIAAAQK1EGhpaXn18PDwX9fiWnm6hgDrkQOsf40A6xfyNKFqJUCAAAECBAgQIECAAAECBHItsC1WYfXmuoMqFC/AehjU/v7+1p07d07GLzOqwo1nSAIECBAgQIAAAQIECBAgQODgArGV0Sk33HDDD/j8r4Bw5mHuhnXr1j1jenr6m24WAgQIECBAgAABAgQIECBAgEAtBZqamv5odHT0nbW8ZtavJcB6mBmKzdvvisRzddYnUH0ECBAgQIAAAQIECBAgQIBA4QT2xGOEqwrX1RIaEmAdBG/jxo3NAwMDM0twdSoBAgQIECBAgAABAgQIECBAYNECL37xi1s3bdokm7hPUIB1kFspVl+9PVZf/fGi7zInEiBAgAABAgQIECBAgAABAgSWINDY2PhvY2Nj5y5hiEKdKsA6yHR2dHRsj2+fXKiZ1gwBAgQIECBAgAABAgQIECCQJ4FSPEbYkqeCq1mrAOtBuhFe9cS3hqqJbmwCBAgQIECAAAECBAgQIECAwKEEYjP3n4vN3L9+qONS+HUB1oNmOR4ffFs8PvgnKUy+HgkQIECAAAECBAgQIECAAIHsCsRjhJfEY4Q/n90Ka1eZAOtB1rECa298a1ntpsCVCBAgQIAAAQIECBAgQIAAAQIPFYgAa6ZUKh22ffv2uawi6Q8B1v2mv6+vr21iYmIy6TtC8wQIECBAgAABAgQIECBAgEBmBFpbW582NDT03cwUVKdCBFj3g+/q6vpSuVx+Xp3mwmUJECBAgAABAgQIECBAgAABAg8QaG5u/t7IyMgTU2cRYN3vDoj9r6Zj/ys7/Kf+u0L/BAgQIECAAAECBAgQIEAgQwLxNsLk85vkAfbfj93d3U+M50r/O0P3p1IIECBAgAABAgQIECBAgAABAg0tLS3PHx4e/ueUKQRY981+rL76bKy+emHKN4PeCRAgQIAAAQIECBAgQIAAgewJxGbuN8bbCE/OXmW1q0iA9RPrpgiw9kSAtbx29K5EgAABAgQIECBAgAABAgQIEJiXQLm/v79t8+bNpXkdXcCDBFgxqevWrTtzenr6mgLOr5YIECBAgAABAgQIECBAgACBAgjEZu4vjc3c/7EArSyqBQFWsMX+V/8Y+1/9+qIEnUSAAAECBAgQIECAAAECBAgQqLJAPEb4nXiM8KeqfJnMDi/Aiqnp6OiYzewMKYwAAQIECBAgQIAAAQIECBAgEALt7e2HDQ4O7k4RI/kA66yzzjph165dN6U4+XomQIAAAQIECBAgQIAAAQIE8iPQ1tb2jG3btl2an4orV2nyAVY8PviteHxwQ+VIjUSAAAECBAgQIECAAAECBAgQqLxA7IN1Q+yD1VH5kbM/YvIBVjw+OLf0bmX2p0qFBAgQIECAAAECBAgQIECAQOoC4+PjSWY5STa9/2bv6up6bLlcvir1m1//BAgQIECAAAECBAgQIECAQD4Eli1b9gtbt279Sj6qrVyVSQdYnZ2dH5qdnX1V5TiNRIAAAQIECBAgQIAAAQIECBConkC8jfCqeBthf/WukM2RUw6wGiPAui0CrKOyOTWqIkCAAAECBAgQIECAAAECBAg8RGBvf3//qs2bN5dSskk2wDr55JMfFZuf3ZzSZOuVAAECBAgQIECAAAECBAgQyL9A5BnnxGbu38h/J/PvINkAK/a/elPsf/WO+VM5kgABAgQIECBAgAABAgQIECBQf4GmpqZPjY6OXlD/SmpXQcoB1nQEWC21o3YlAgQIECBAgAABAgQIECBAgMDSBWIfrHLsg9UWIyXzGGGSAdbGjRubBwYGZpZ+yxiBAAECBAgQIECAAAECBAgQIFB7gfb29qMGBwfvrP2V63PFJAOsnp6e18/MzLy3PuSuSoAAAQIECBAgQIAAAQIECBBYmkDsg/Xh2Afrt5c2Sn7OTjLA6ujoGIop6snPNKmUAAECBAgQIECAAAECBAgQIPBAgfHx8WRynWQa3T/F55577rLh4eHds7Oz9r/yO58AAQIECBAgQIAAAQIECBDIrUC8oG7V17/+9T25bWABhScXYMXkPi82b//SAowcSoAAAQIECBAgQIAAAQIECBDInEC8jfDP4m2Eb81cYVUoKLkAq7Oz8/Ox+uoFVbA0JAECBAgQIECAAAECBAgQIECgZgLxNsLr422EfTW7YB0vlFSAdd/bByfDu7mO5i5NgAABAgQIECBAgAABAgQIEKiEwOwxxxxzxBVXXHFPJQbL8hhJBVh9fX1HTkxM3JHlCVEbAQIECBAgQIAAAQIECBAgQGC+Ai0tLc+Jvb6/Ot/j83pcUgFWPD74V/H44O/ndbLUTYAAAQIECBAgQIAAAQIECBC4v0A8RviFeIzwvKKrJBVgdXR0lGJCm4o+qfojQIAAAQIECBAgQIAAAQIEkhGYHR8fL3zWkUyA1d/f37pz586pZG5fjRIgQIAAAQIECBAgQIAAAQJJCMTbCJfH2wjn9vwu7EcyAVZ3d/crS6XS3xZ2JjVGgAABAgQIECBAgAABAgQIJCkQjxF+MB4jfG2Rm08mwIr9ry6P/a+eVOTJ1BsBAgQIECBAgAABAgQIECCQnkAEWDMRYLUWufMkAqyNGzc2DwwM7IqJbC/yZOqNAAECBAgQIECAAAECBAgQSFJgtr29ffng4GBht05KIsCK1Vf9sfrqf5K8hTVNgAABAgQIECBAgAABAgQIFF4g9sG6MPbBuriojSYRYHV1db21XC5vKuok6osAAQIECBAgQIAAAQIECBBIXuCr8TbC5xRVIYkAq6Oj40cxgccVdRL1RYAAAQIECBAgQIAAAQIECKQtEPtg7Yp9sI4IhXIRJVIJsGaLOHl6IkCAAAECBAgQIECAAAECBAjsF4gQqztCrNEiihQ+wOrt7T17cnJyoIiTpycCBAgQIECAAAECBAgQIECAwH6B5ubm3x4ZGflwEUUKH2DFBu7XxAbuZxZx8vREgEDlBU444YSGI488sqG1tbWhra2tIf770TA1NdUwMTHREH8QNJRKpcpf1IgECBAgQIAAAQIECBCogECswLoxVmCdXIGhMjdE4QOs2P9qJtSbMyevIAIEMiVw3nnnNZxxxhkNT3ziExvi7R0HrW337t0NV1xxRcMXvvCFhni7R6bqVwwBAgQIECBAgAABAgTmBGIj90JmPYVsav8t29fXd2SsmrjDLUyAAIGHE+jp6Wl4y1ve0nDsscfOG2l6erphYGCg4V3velfDnj175n2eAwkQIECAAAECBAgQIFBtgcMOO+zEa6655ofVvk6txy90gNXV1fWGcrn8nlqjuh4BAvkQOPfccxte85rXPOyKq0N1cccddzS8/vWvb7j11lsPdahfJ0CAAAECBAgQIECAQE0EYh+sT8f2J+fX5GI1vEihA6zY/+pbsX/Nhhp6uhQBAjkRmAuvXvva1zbEM+JLqnhuNdbznve8hgjLlzSOkwkQIECAAAECBAgQIFAhgZ3xGOGRFRorM8Ms7V9umWnjoYVs3LixOR7x2R2/sjzDZSqNAIE6CMTqzIYPfehDi1559eCSb7755oaXv/zlNnivw1y6JAECBAgQIECAAAECDxEox76+K2Lf3ski2RQ2wFoXH7EyYluRJksvBAgsXSCW0zZ84hOfaDjmmGOWPtj9RrjooosaLr744oqOaTACBAgQIECAAAECBAgsRqClpeUFw8PDX1zMuVk9p7ABVrx98LcD/W+yCq8uAgTqI/CsZz2r4Y1vfGPFLz63D9bLXvayhpmZuRef+iBAgAABAgQIECBAgED9BGKrlE+OjY39ev0qqPyVCxtgxf5X22L/q3WVJzMiAQJ5FZhbffXOd76z4cwzz6xKC29+85v3vZ3QBwECBAgQIECAAAECBOopEAHWjyLAelQ9a6j0tQsbYMUKrNlKYxmPAIF8Cxx99NENn/rUp6rWxObNmxs++tGPVm18AxMgQIAAAQIECBAgQGC+AitXrjzy2muv3Tnf47N+XCEDrJe85CXLL7vssoms46uPAIHaCpx00klVD5ie85zneIywttPqagQIECBAgAABAgQIHERg+fLlZ19//fVXFwWnkAFWd3f320ul0h8XZZL0QYBAZQTmwqXXvOY1lRnsYUY577zzGnbvnnsBqg8CBAgQIECAAAECBAjUTyAeI/yneIzw1+pXQWWvXMgAKx4fvCWYjq8sldEIEMi7wCte8YqGX/7lX65qGy984Qsb7r777qpew+AECBAgQIAAAQIECBCYh0B5fHy8eR7H5eKQogZYe0N/WS5mQJEECNRM4JJLLmloamqq6vV+7dd+reHOO++s6jUMToAAAQIECBAgQIAAgfkIRIA19w+gQuwRXrgAa/369WdMTU1tmc9EOoYAgbQEvvzlLze0trZWtenzzz+/4fbbb6/qNQxOgAABAgQIECBAgACB+QgsW7bsnK1bt35jPsdm/ZjCBVhdXV1/VC6X/yLr8OojQKD2ArUIsC644IKG2267rfbNuSIBAgQIECBAgAABAgQeKvD1WIX1c0WAKVyA1dnZ+c3Z2dlnFGFy9ECAQGUFahFgWYFV2TkzGgECBAgQIECAAAECixeIjdx/GBu5n7j4EbJzZtECrOYIsCYiwKruM0LZmT+VECCwAAEB1gKwHEqAAAECBAgQIECAQBEEymvXrl156aWXzu0VnuuPQgVYJ5988qOam5tvzvWMKJ4AgaoJCLCqRmtgAgQIECBAgAABAgSyK/Az8Rjhf2S3vPlVVqgAq6en5+dnZma+Mr/WHUWAQGoCAqzUZly/BAgQIECAAAECBAjEm9jfMTo6+ua8SxQqwIoN3C+NDdyfnvdJUT8BAtUREGBVx9WoBAgQIECAAAECBAhkVyD2wdoa+2Cdlt0K51dZoQKsjo6O2fm17SgCBFIUqEWA5S2EKd5ZeiZAgAABAgQIECCQbYE1a9a0DQwMTGe7ykeuToCV59lTOwECCxKoRYDlLYQLmhIHEyBAgAABAgQIECBQA4F4Wm3N9u3b76rBpap2icIEWN3d3T9dKpW+XTUpAxMgkHsBAVbup1ADBAgQIEDg/7N3J3A3Vfsfx38e85ChDFEUj6lJ9Td0q9ukupqkwaxIhjKlIppEUYlSEQlRQreoG910dTV306QUMhOVRIZMmf3Xb9+rKxfP2efstc/a+3z26+WlYe+11n6vfZ7znO9ZAwIIIIAAAkkImHWwrjPrYI1P4lJnLolNgGXWv3rJJIqNnZGlIQgg4JwAAZZzXUKDEEAAAQQQQAABBBBAIASB3LlzL1i0aFH1EKqyVkVsAiyz/tUyo3S8NSkKRgCByAuEEWCxBlbkHxNuAAEEEEAAAQQQQACBWAosXbo00hlQpBu//xNlAqwd5t/zxvIp46YQQCAQgTACLNbACqSrKAQBBBBF+Vv4AAAgAElEQVRAAAEEEEAAAQQCFiDAChg0meKqVq166q5du2Ylcy3XIIBA5ggQYGVOX3OnCCCAAAIIIIAAAggg8EcBsw5WA7MO1pSousRiBFa1atU67Ny5c1hUO4F2I4BAOAIEWOE4UwsCCCCAAAIIIIAAAgi4J2ACrJdMgNXUvZYl1qJYBFjZ2dmv7N2795rEbpmzEEAgUwUIsDK157lvBBBAAAEEEEAAAQQQyJUr17wlS5acGFWJWARYZv2rX00HFI1qJ9BuBBAIRyCMAItF3MPpS2pBAAEEEEAAAQQQQAAB3wLbzTpYhcxVe3xf6cAFkQ+wjj322IL58uXb6oAlTUAAAccFwgiwWMTd8YeA5iGAAAIIIIAAAgggkMECefPmrb7AHFEkiHyAZaYPljbTB3+OIj5tRgCBcAUIsML1pjYEEEAAAQQQQAABBBBwS8Csg9XYrIM10a1WJdaayAdYlStX7rlnz57+id0uZyGAQCYLEGBlcu9z7wgggAACCCCAAAIIIGDWwXrerIN1QxQl4hBgrTYBVqko4tNmBBAIV4AAK1xvakMAAQQQQAABBBBAAAG3BEyAtdEEWMXcalVirYl8gGUWcN+b2K1yFgIIZLoAAVamPwHcPwIIIIAAAggggAACCJiF3COZBUWy0fs/bgRYvPgQQCBRAQKsRKU4DwEEEEAAAQQQQAABBOIqYEZgZZmRWJEbDBTpAMss4H62WcD9o7g+VNwXAggEK0CAFawnpSGAAAIIIIAAAggggED0BHLnzn3tokWLXo1ay6MeYD1pAqxbooZOexFAID0CBFjpcadWBBBAAAEEEEAAAQQQcEfABFifmgDrT+60KLGWRDrAMtMHPzO3WTuxW+UsBBDIdAECrEx/Arh/BBBAAAEEEEAAAQQQMAJ7zDpYuaMmEekAy0whXGNGYJWMGjrtRQCB9AgQYKXHnVoRQAABBBBAAAEEEEDAKYG9JsDKcqpFCTQmsgFWhQoVSuTJk2ddAvfIKQgggIAnQIDFg4AAAggggAACCCCAAAIIiJjBQMcvW7ZseZQsIhtgVa5c+cw9e/Z8HCVs2ooAAukVIMBKrz+1I4AAAggggAACCCCAgBsCZkBQ+4ULF450ozWJtSKyAVbVqlXb79q165nEbpOzEEAAgXBGYF133XWyZs0auBFAAAEEEEAAAQQQQAABZwVy5cr11yVLljRztoEHaVhkAyyz/tUrZsjbNVHCpq0IIJBeAUZgpdef2hFAAAEEEEAAAQQQQMAZgW/MOlinOtOaBBoS5QBrkwmwiiRwj5yCAAIIeAIEWDwICCCAAAIIIIAAAggggIAnsN0EWAXN33uj4hHZAKtSpUqRQY7Kw0A7EYi7QBgBFlMI4/4UcX8IIIAAAggggAACCMRDIG/evMcsWLBgZVTuhgArKj1FOxFAIGWBMAKsFi1ayC+//JJyWykAAQQQQAABBBBAAAEEELApkJWVdebixYs/sVlHkGVHMsA64YQTzt2+ffv7QUJQFgIIxF+AACv+fcwdIoAAAggggAACCCCAQGICZiH37mYh98cSOzv9Z0UywKpSpcr43bt3N08/Hy1AAIEoCRBgRam3aCsCCCCAAAIIIIAAAgjYFDAjsN41I7Dq2qwjyLIjGWCZ9a+2GYT8QUJQFgIIxF+AACv+fcwdIoAAAggggAACCCCAQMICu81C7nkSPjvNJ0Y1wNpj3CLZ9jT3N9UjkNECBFgZ3f3cPAIIIIAAAggggAACCBwgYAKsyGQrkWnoPuO9e/fmys7O1gCLAwEEEPAlEEaAxS6EvrqEkxFAAAEEEEAAAQQQQCCNAmYNrCyzFtbeNDYh4aojF2BVr179lB07dnyT8B1yIgIIIPAfgTACLHYh5HFDAAEEEEAAAQQQQACBqAjkzZv3wgULFrwThfZGLsAyC7h3NQu4PxEFXNqIAAJuCRBgudUftAYBBBBAAAEEEEAAAQTSK5A7d+7nFi1a1Dq9rUis9sgFWGb64EtmGmHjxG6PsxBAAIH/CoQRYDGFkCcOAQQQQAABBBBAAAEEIiSwyqyDVTYK7Y1igDXTBFj/FwVc2ogAAm4JhBFgMYXQrT6nNQgggAACCCCAAAIIIHBYgU0mwCoaBaMoBlgbTIBVLAq4tBEBBNwSIMByqz9oDQIIIIAAAggggAACCKRXwCzgvsss5J43va1IrPZIBViVKlXS4GpDYrfGWQgggMAfBQiweCIQQAABBBBAAAEEEEAAgT8KFCxY8Li5c+eucN0lUgGWWcD9BLOA+7euo9I+BBBwUyCMAIs1sNzse1qFAAIIIIAAAggggAAChxS41kwjfNV1n6gFWBebAOst11FpHwIIuCkQRoDFGlhu9j2tQgABBBBAAAEEEEAAgYMLZGVlPbx48eK7XfeJVIBVuXLlB/fs2eM8quudTvsQyFQBAqxM7XnuGwEEEEAAAQQQQAABBA4lYAKsv5sAq77rQlELsD41AVYd11FpHwIIuCkQRoDFFEI3+55WIYAAAggggAACCCCAwMEFzELuS81C7tmu+0QqwDKLuO82oFmuo9I+BBBwUyCMAIsphG72Pa1CAAEEEEAAAQQQQACBQwrsrVmzZt6JEydq5uLsEbUAa6+zkjQMAQScFyDAcr6LaCACCCCAAAIIIIAAAgikQSBfvnwl58+fvzYNVSdcJQFWwlSciAACURcgwIp6D9J+BBBAAAEEEEAAAQQQsCFg1sGqbNbBWmKj7KDKjEyAVaNGjdKbN2/+OagbpxwEEMg8AQKs4PvczJcX82YnZn1C2buXQbLBC1MiAgggEF8BfQ/RQ99H9h36XrLvT3zvnDtDAAEE3BPIkyfPRQsXLnzbvZb9t0WRCbCqVq3afteuXc+4jEnbEEDAbQECrMP3j36QMG9cv/8pV66cVKhQQRo1aiRmSLHkzp1bjjzyyIQ7WT+ArF271gu39O/XXntNVqxYIevXr5edO3d6f3bvdnqafcL3yokIIIAAAuK9T+j7SN68eaVw4cJi1q+Vpk2byhFHHOH9P/07f/78vql++eUXMZ8DZMuWLTJu3Dj5/vvvZdOmTd5/473ENycXIIAAAgcVMD+nBy5atKiHyzyRCbDMG+BUA3mpy5i0DQEE3BYII8CK0i6E+gFDA6pSpUpJ2bJlpX79+nLMMceE2okaZk2aNEmWL18uq1ev9j6UaODF4baAfkDV50afIe2vdevWybZt2+g7t7st5dZpvxcsWFCKFSvm9fW+UIHXbMq0kSxAfwYcffTRctRRR4mZKSHnnnuuF1Cl4/j666/lnXfe8X4W6Z8ff/xRfvvtt3Q0hToRQACBKAvMXrp0aQ2XbyBKAdZqA1nKZUzahgACbguEEWC5vgth8eLFpVmzZlKyZEmpVq2aF0K4dHz33XeybNky7wPI5MmT5eefmTnuSv9o2HnllVdK6dKlvVEV+z87Zoq/11c6ws58c+f1nY6M4Ii+gPbzNddc442+PPHEE6Vo0aJSoEAB78Z0ZOWGDRu8PtcAevz48dG/Ye7gkAL6LDRo0MB7BkqUKCG1atX6w9Q/l+h0dNbcuXO9kPW9996TOXPmMM3dpQ6iLQgg4KyACbCczoicbtz+vWp+Wd5o/j09X+s4+3jRMAQQ8COQqQGWftjs27evlC9fXooUKeKNmonCoQGIfgh56623ZMyYMXz4SFOn6fMyZMgQb7SeTgFK5Ni6das8++yzoq85jmgK6Girxx57TLKzsxP+mbFx40YZOXKk95rliIdAxYoV5b777vOmA+offS6iduh0dp16qCOyXn/9dTFbxDNaNGqdSHsRQCA0AQKsgKhNgLXdFJUvoOIoBgEEMlAgkwIsDav0g0ePHj0S/vDp+iOho7KefPJJMbujeN+qc9gV0DXR/vSnP0mvXr0SDq4ObJFODb3jjjvk119/tdtYSg9U4KSTTpKHH344qbWKtCHz5s2Te+65xwsNOKIloNNDjzvuOGnTpo1Ur149Wo330Vp9NvX9ZMmSJbJy5UoCLR92nIoAAvEWIMAKoH/NvPrCZnrC5gCKoggEEMhggbgHWLqLU82aNb1pXvp3oqNlovZI6Lfon332mUyYMEF0yiGHHYHLLrtMOnfunPJzpMFj27ZtCTPsdFPgpZ5//vle8J3qzw+dCqzhpY6i5HBbQEdWXXjhhVKnTh059dRTvU07MuXQ9dvmz58v77//vnzwwQfe9HUOBBBAIJMFypQpc9SMGTOc/WEYiSmEZgfCOmYqyaeZ/CBx7wggkLpAnAMs/eBx2223+dolMHXR9JegHzx69+7trcPDEZxA5cqVZejQoYEVqEFjx44d2XUyMFE7BVWpUkWeeOKJwKaJma24pUuXLnYaS6kpC2hwdeutt8o555wjOuKSQ7x1s3Rklo4e5UAAAQQyUcB8gdXQrG35iqv3Hol3K/MLVWuz1fpoVxFpFwIIREMgbgGWrm2lUzy6devmLaydyYeO9ujfvz8jsgJ4CHT0xdixY71FmoM8nnrqKW/9GQ43BXTEla51pmteBXnomli60yiHGwK6i6TuOtu9e3dvXcRMGm3lpwfWrFkjw4YNE93dkKmwfuQ4FwEEoi5gZnQMNct1dHb1PiIRYJlfph41CzB2cxWRdiGAQDQEwgiwrrvuOtFffG0ftWvXlptuukmOPfZYvjn/D7b5osMLSF566SWmgaTwAOrUwa5du6ZQwsEv1XWwrr/+etm+XZe05HBNQHeUe/DBBwNvli7srjufsitl4LS+CtQdBLWP9T1Kd5TUKecchxfQxd91dK8G+v/85z9l586dkCGAAAKZIDDLrIN1uqs3GpUAa7J5E7nSVUTahQAC0RAII8Bq0aKF1QXGdQcoXRz5zDPPJLg6xGOnHziGDx/ubZ2uH0A4EhfQaUS646OO0LBxjBgxQl55xdlR6TZuOTJlDhgwwFv/yMbx0EMPeWsMcYQvoEHV1VdfLY0bN5bixYuH34CY1Lh69WrvZ9eUKVNY8D0mfcptIIDAIQWWmwDreFd9ohJgfWM+hJziKiLtQgCBaAiEEWDZGoGlH0Lq16/v7QyVP3/+aICnuZW6/s79999vNVBM8y0GXn3RokXlhRdeEJ2eauP44osvvACWwy2BQoUKyd/+9jdrjZo6daq3rhBHeAL7NvW46667RNe64ghGQBd51+nq33zzDV+QBENKKQgg4J7AehNgHeles/7dokgEWGYx2c1mlxDefV19imgXAhERCCPAsjECS9ciuu++++SEE05g1JXPZ23Hjh3Sp08fmTlzps8rM/P01q1bS9OmTa3dvI5i0GmEHG4J6Ii75557zlqjdPpgo0aNZOvWrdbqoOD/Cmh/PvLII2J2koLFkoCG8YMGDZK1a9daqoFiEUAAgfQImNH4u5YsWZI3PbXnXKvzAZZZ36WgWWCS33hy7kvOQACBHASiGGDplB5dlyZvXmffRyLx3OnUj1GjRjH1I4fe0h3jrrjiCqt92qBBA9m2bZvVOijcn0DDhg2lXbt2/i7ycbYGWBqMbtq0ycdVnOpXQNe2at68ufcaZldBv3r+z9d1F5955hlv7UXzRbv/ArgCAQQQcFSgSJEiZcxI09UuNs/5AMss4F7aTB/82UU82oQAAtESCCPACnIKYYcOHeTyyy8nvAroMZs1a5b07NkzoNLiWcztt98u9erVs3pzHTt2FPPNntU6KNyfwAMPPCBnnHGGv4t8nK0f9DXA0gXdOewIaDDcsmVLMR867FRAqYcU0Onq/fr1k59/5uMKjwkCCMRDwExDP9PsRPiJi3fjfIBlpg9mm281FruIR5sQQCBaAmEEWEFMIdTRVoMHD5ZKlSpFCzgCrdUF3nUdsc2bN0egteE3UQO+unXrWq24W7duMmfOHKt1ULg/AV24v1y5cv4u8nG2jk7RAEt3ouQIXkAX4K9RowajroKnTbhE3aGwb9++8umnnyZ8DScigAACrgrkzp27+aJFi150sX3OB1hmzZc/mS23Z7iIR5sQQCBaAlEIsHQKyGOPPWb1w2S0ei341uoivDrS6Keffgq+8IiXqAs+n3/++VbvokePHvL1119brYPC/Qno+le2dp7UlhBg+euPRM7WKYI1a9b0NqrQ3Wk53BCYMWOGt/7Yb7/95kaDaAUCCCCQhIB5j7nXjJZ/MIlLrV/ifIBlRmDdbn7xecy6BBUggEDsBVwPsI477jgZOHCgFCtWLPZ9ke4b1IV3u3btKmvWrEl3U5yqnwDLqe4IrTEEWKFRB1KR7kR77733Su1atSVXlvO/ygdyz1Eq5LvvvvN2W/3ll1+i1GzaigACCPwuYAKsF0yA1dJFEuff9UyA9VcTYDVxEY82IYBAtATCCLCSXQPr6KOPluHDh0vBggWjhRrh1uo35K1atWJa0359SIAV4Qc6haYTYKWAF/KlZnMjeeqpp3ivCNndb3Vm/V5vpO+3337r91LORwABBNIuYAKsj02AdXbaG3KQBjgfYJlF3BebN4FsF/FoEwIIREsgjAArmTWwypcvL0OHDhX9Vp0jXAFddFd33mNtnn+7E2CF+/y5UhsBlis9cfh2nHbaaaIL7kf1vUIX89cvDvRvPTTk0T+6S6X+MUuGiFl3xdu4RP/WqZE6VVL/6L/rFzz6d1QOnTo7ZMgQmTp1alSaTDsRQACBfQKrly5dWsZFDucDLLOI8V4X4WgTAghET8DFAKtatWoyaNCgtK9hooub//jjj7Jt27Z/f6jYs1d279ntrV2j/65/64cIsyuJ1/H6974PFQUKFBBdu8vmItA2n7ZVq1bJDTfc4N1nph8EWJn5BBBgud/vjRs3lhtvvDEyC7WvX7/eW2dw69at3nvL7NmzxSwI7O1Eue99ZV+IdeD7zL7Qat/7zL73nqJFi4qOQKtataqceOKJUrx4cTEzNZw20feVsWPHyoQJE9x/yGghAgggsJ+ACbD0G4M9rqEQYLnWI7QHAQSsCYQRYPmZQliyZEkZNmxYqGte6S/TmzZtknfeecf7cKH/rAHO3LlzU3bXb8d1hIBu4166dGn585//LBUrVnT6w8W+m/7yyy/l7rvvzvgQiwAr5ZdBJAsgwHK323TE0R133CEXXHCBu400LdMvP2bOnCnz58+XDz/8MLRNMjTcMhs+yemnny516tTxAi0XF7WfMmWK937PFyVOP8Y0DgEE9hMwXy4UNGv6bXMNhQDLtR6hPQggYE0gjAAr0SmEOmpp5MiRXtBj89BvtnXKxvLly2X8+PGycuVK0Wlz+6Zw2Kxbvz3XkVm6KL0ZTSvt27f3pr64OP1FP1S8/PLLMnr0aJskzpdNgOV8F1lpIAGWFdaUCy1UqJD0799fdKSua4dO+TPro8ibb77pfQGyYsUKJ5qoo7ROOeUUb4TWX/7yF9F/d+V4/fXXveUCCLFc6RHagQAChxMwv8cXW7x48UbXlAiwXOsR2oMAAtYEXAmw8uXLJyNGjLC6bb2u6bRs2TJveqJOD9S1RdJ96EgCHZ3Vtm1b7wOZ7rro0qFhn450mDNnjkvNCrUtBFihcjtTGQGWM13xe0OOOOIIb7F23eDDlUO/+NCd9TSE0emA69atc6VpB22HflF01FFHeYup63uOrq2V7kNHYqkfBwIIIOC6gAmwSpsAy7ntup0OsGrUqFF68+bNP7veubQPAQSiIeBCgKXTHfSXaf1mOOhDv9X94Ycf5I033hD9JTmMUVap3EOtWrWkYcOG3rRDdXHh0NFqOopuy5YtLjQn9DYQYIVO7kSFBFhOdMPvjdCgZdSoUc6EV/rz8NNPP5XHH39cduzY4RaWj9bohh01a9a0+uVRIs0ZN26cvPDCC4mcyjkIIIBA2gTMlwD/Z3ZS/SptDThExW58YjhE48w89r+Yb8SnuYZGexBAIJoCLgRYF110kTfKJ+jjk08+8YKrL774wlsgN0rHySefLNdee62cddZZTjRbRxZoyBjlD2rJQhJgJSsX7esIsNzpv8KFC8vgwYO9xcrTfaxZs0ZeeuklmT59ujcVPQ6HTm2vW7eut3FHqVKl0nJL+mXTo48+6rlyIIAAAq4KmPUEb1q4cOEI19rndICVnZ19h/khP8A1NNqDAALRFEh3gFWmTBkZM2ZMoNuAr127Vnr27OmNvIryuhr6oaJs2bIyfPhw0SmW6T769evnLUScaQcBVqb1+L/vlwDLjX7XKW9PP/102nd01bCqR48e3jT0nTt3uoETcCv0faZ27dpy3333BVxyYsXpCOmuXbt6UzE5EEAAARcFzOyIkWatw/autc3pAMss+jvOgLVwDY32IIBANAXSGWDpL8v6wSSob9X1m3H99lY/eMbt6Natm5xzzjmiuxqm6zDT16VZs2YZNwqLACtdT1x66yXASq+/1q6bWzz55JPezq3pOjS40s0sXnzxxUh/IeLXT9dlvOqqq0JfI0unZt50002i7+ccCCCAgGsCJsD6ygRY/+dcu1xr0P7tMQGWzrk8zeU20jYEEIiOQDoDLJ2u0LRp00DWepowYYJMnDhRtm7dGh18ny095phjpHv37t5OUuk6PvroI+nbt2+6qk9LvQRYaWFPe6UEWOntAg2vBgwYINWrV09LQ3Ta+dtvv+0FaHEdcZUTrL7n3Hvvvd6OuWEeOnq6Xbt2kZv6H6YRdSGAQHoETIC1ywRY6d/94oDbd3oElplCuNhMiclOT5dRKwIIxE0gXQGW/mL8zDPPpPztrk456NSpkzetIxMOM/de+vTp403zSNeha2HpFvGZchBgZUpP//E+CbDS2+8alNepUyctjdi0aZO3LmOmvK8cDlk3E2nUqJG0adMm1L74/PPPvfCMAwEEEHBNYOnSpc7lRc41aP9OM9+CrDT/Xta1jqQ9CCAQTYEwAqzrrrvuD9MB9BfiQYMGpTSSSNe2mj9/vrdWx8aNG6OJn0KrdeRay5YtA107LNHmLFiwwFvQfdeuXYleEunzCLAi3X1JN54AK2m6lC+88cYbpUmTJimX47cAfV95//33ZeDAgRnz8y1RI7OJlDciThfUD+vQL2tmzJgRVnXUgwACCCQkQICVENN/TzIB1q/m34r6vIzTEUAAgYMKhBFgtWjRQn755Zff6z///PNFQ4FUjmnTpnlTO3QEVqYeuiaWOubOnTtUAv2Qp/V+9ZVzuwhbcSDAssLqfKEEWOnpotNPP10efvjhQKaW+7kDXXtJgyvdvTbKm3/4uWe/5xYvXlweeeQROf744/1emtT5uu5ihw4dZPXq1Uldz0UIIICADQECLJ+qJsDaYS5xbt6lz9vgdAQQcEQg7ABL1zV54YUXpFixYkkJ6LokGlz94x//SOr6uF101llneaPQdFRbmMdPP/3kbbmeCQcBVib08v/eIwFW+P2uu66OHDky5anlflu+atUqufnmm0UXbOfIWUB3pA1rGvunn36atl0Rc5bgDAQQyEQBAiwfvX7mmWcW/Pnnn+O7QrEPC05FAIFgBMIOsJo3by6tWrVKqvE7duyQ+++/X7744oukro/rReeee67ceeedoY/E0u3OdRpn3A8CrLj38MHvjwAr3H7XHVaHPjVUjjn2mFArnjlzpvTu3TtjF2pPFrt169beJixhHBqYffjhh2FURR0IIIBAjgIlSpQobt47dFacM0e4X2P7uG2zE8vx5gNcZqxU7MOFUxFAIHmBMAKsfWtg6VS3SZMmSaFChXw3WHcXvPXWW2X58uW+r82ECy677DLRQCnMQ0ctJBtGhtnOVOsiwEpVMJrXE2CF229PP/106LvdvfHGGzJ48OBwbzQmtemo3/bt28s111xj/Y50F8jGjRvHepdh64hUgAACgQnky5evlvkCd2ZgBQZQkLMBVpUqVc4w6718EsA9UgQCCCDgCYQRYO1bA0sXHdd/9nts27bNC2e+++47v5dm1PlhBC37g+p0zs6dO4vZTjjWzmG49ujRQ77++utYO0bt5giwwuuxhg0bSrt27cKr0NQ0duxYGT9+fKh1xrEy3dCjXr161m/t3Xff9dbfYn0y69RUgAACOQiYAL+p+d33JZegnA2wzA4gV5oPDJNdwqItCCAQbYEwAiwdgaWLseoHQl0E1u/Bh/vExHSE2/Dhw6VChQqJXRDAWf/617/kgQceCKAkd4sgwHK3b2y2jADLpu5/yz7mmGPkqaeeSmpkbjIt1ABEF4nX3QY5ghHo2LGjNGjQIJjCDlGK7nqrYZnugsuBAAIIpFPA/L7da9GiRf3S2YYD63Y5wGprAqyRLmHRFgQQiLZAGAGWjroya/h5o3X8HkOGDPFGiXEkJlCyZEkZNWqU6HoyYRw6CqtNmzaycuXKMKpLSx0EWGlhT3ulBFj2u0CnoQ0YMEBq1Khhv7L/1KCjeN55553Q6suEirQfe/XqJWeffbbV2zUfGJP6PcJqoygcAQQyTsAEWM+bn0c3uHTjzgZY2dnZ95pvjvq6hEVbEEAg2gJhBFi60Kt+w67hip9j4sSJXhjD4U/gkksukdtuu83fRSmc/fjjj8d6V0gCrBQejghfSoBlv/MuvPBC0RG2YR2vvfaa6FpbHHYEJk+eLAUKFLBT+H9K1dFz7733ntU6KBwBBBA4nIAJ7d81UwjruqTkbIBVqVKlpwxUJ5ewaAsCCERbIIwASxfKvfzyy31Bffzxx6I7D5l1/3xdx8ki+m24TiU8/vjjQ+HQNcpsTx8J5UYOUQkBVjr101c3AZZd+yOPPNJbgyorK8tuRf8pfdq0aTJo0KBQ6srUSsqWLStjxozx3oNsHTraV6cs/vbbb7aqoFwEEEAgJ4HPly5dWienk8L8//Z+6qZ4F2YNrJfNdI1GKRbD5QgggMDvAmEEWH65165d6y32zmKtfuX+e36ZMmW8NcfC+HCo/XTttdfKli1bkm+ww1cSYDncORabRoBlEdcU3b9/fzn99NPtVvKf0ufMmSPdu3fnPSUEbZ1GeN999+MmykwAACAASURBVFmrSd9v7r77bvnyyy+t1UHBCCCAwOEETEj/rRmBdZJLSs4GWGYE1gcG6hyXsGgLAghEW8C1AEu3y77nnnvYkS2Ax6pTp05y5ZVXBlBSzkXoiLn7778/5xMjeAYBVgQ7LYAmE2AFgHiIIs4//3zR11UYx7p16+SGG26Q7du3h1Fdxteho6/0Pfycc+x9XFm1apW39qIu7M6BAAIIhC1gfs6tMAHWcWHXe9hQzaXG7N8WswbWfPPNQzVX20e7EEAgegKuBVivvPKKjBgxInqQDrZYd3wcOXKkFC1a1Hrr9ENis2bNrNeTjgoIsNKhnv46CbDs9IHuljpu3DjRKYS2Dx2t07JlS1m9erXtqih/P4FChQp500P1bxuHbh6i6zzOnz/fRvGUiQACCBxWwARYa02A5W9hX8umLo/AWm/u3f8e9JbBKB4BBKIr4FKAtWHDBtEF35k6GNzzpOuI1a5dO7gCD1GSfqC48847YzlyjgDL+uPjZAUEWHa6JczRV0888YS8+eabdm6EUg8rUL9+fas7BpoPj95aWBwIIIBA2AImwNpmfgaFs913gjfnaoCVy0wh3JPgPXAaAgggkJCAKwGWLtbetm1b0QVaOYITyJcvn7z++uvBFXiYkvRZGjJkSCh1hVkJAVaY2u7URYAVfF/kyZNHpkyZIjoKy/bx0UcfSd++bNxt2/lQ5etUwqFPDZXsytnWmqA/m1kLyxovBSOAwGEESpQokW/mzJk7XUFyMsCqWbNm3vXr1+9wBYl2IIBAPARcCbCmT58uAwcOjAeqY3fRu3dvOeuss6y3atGiRdKlS5fYjaAjwLL+6DhZAQFW8N3SqlUrad68efAFH1CijuLVEUC6piJH+gTKlSsno0ePtrYr4YwZM6RPnz7pu0FqRgCBjBUwX8iUWrhw4S+uADgZYB177LEFzTfpW11Boh0IIBAPARcCrK1bt0q7du3kl1+ceR+IR+f+5y6KFSsmL7/8svV70g+LTZo0id1uhARY1h8dJysgwAq2WwoUKCDPPvuslCxpf9kQ3XFw9uzZwd4ApSUl0LNnT6lbt25S1+Z0kf7ucOONN4r5gj+nU/n/CCCAQKACJsDKNgHW0kALTaEwJwOsk046qchvv/22KYX74lIEEEDgfwRcCLB0jRJdq4TDjkBWVpY89thjcuKJJ9qpYL9Shw8fLn/729+s1xNmBQRYYWq7UxcBVrB90b59e7n22muDLfQgpc2aNUs0NOFwQ6BIkSKim7PYOgYNGiTTpk2zVTzlIoAAAgcVMAHWaSbA+toVHicDLLP+VTEDtMEVJNqBAALxEEh3gGWCebnmmmtEFwHnsCdge0HdfS1/9dVX5ZlnnrF3I2komQArDegOVEmAFVwnHH300TJmzBjRMN3moaNAb7rpJvnxxx9tVkPZPgU6deokV155pc+rEjv9p59+kjZt2oiuo8mBAAIIhChwztKlSz8Ksb7DVuVkgGVGYB1pPuitdQWJdiCAQDwE0h1g6bpXuv4Vh12B4447ToYOHSp58+a1WtGvv/7qTSOM006SBFhWHxlnCyfACq5rdIp4w4YNgyvwECXpSJ8RI0ZYr4cK/AlkZ2d7G3zYWry/cePGou89HAgggEBYAmajikvNToT/CKu+nOpxMsAyP/xLmw8EP+fUeP4/Aggg4EcgnQGWrl9x/fXXy+bNm/00mXOTFHj66afFjOZN8urEL9Nvw3/44YfEL3D8TAIsxzvIUvMIsIKB1bWvXnzxRSlUqFAwBR6ilG3btnmjeRmJY5U56cL1C5TKlSsnff3hLhw/fryMHTvWStkUigACCBxMwIwobrx48eKJrug4GWDVqFGjovmQ58xCYa50Fu1AAIHUBNIZYOnC4rqoL0c4Ag0aNJCOHTtar6xbt24yZ84c6/WEVQEBVljSbtVDgBVMf5hdtOWhhx4KprDDlDJy5EiZNGmS9XqoIDkB8znG6k7D9erVS65hXIUAAggkIWACrHYmwBqVxKVWLnEywKpevfr5O3bseNfKHVMoAghkrEC6Aiz9llx3D1q1alXG2od944ULF/YW0zXDnq1W/eSTT8rUqVOt1hFm4QRYYWq7UxcBVup9oVPGdGOHChUqpF7YYUrYsmWLNGrUiNFXVpVTK1zfd3SDj4IFC6ZW0CGuvvrqq0VHdXMggAACYQiYAOseE2DZ/3YmwZux+5t9go048DQz7PY6s8jxC0lezmUIIIDAQQXSFWB9+umnct9999ErIQtMnjxZdEqPzcPsyiK33HJLbNbBIsCy+bS4WzYBVup9U7p0aXnhBfu/usYtNE9d3s0SmjVrJjfccIOVxr3xxhsyePBgK2VTKAIIIHCggAmwBpkAq5srMk4GWFWqVOlhRiw84goS7UAAgXgIpCvAuu222+Tbb7+NB2KE7uLBBx+UWrVqWW1x3NaiIcCy+rg4WzgBVupd89e//lVKlCiRekGHKWH79u2iwYiOwuJwW0BHX7322mtWGjl79mzp3r27lbIpFAEEEDhQwIwqfd4s4m4nkU+C28kAy4zAetSMwHIm5UvClUsQQMBBgXQEWCtXrpTWrVs7qBH/Jp122mnyyCN2vwvRD5RNmzaNzXQOAqz4vy4OdocEWKn1e5EiRWTcuHHWpozta92oUaNk4kRn1tFNDS0DrtYF10uWLBn4nZplVqRt27by88/sdxU4LgUigMD/CJgA6zUTYF3tCo2TAZYZgTXBjMBq5goS7UAAgXgIpCPAmv7P6TLw0YHxAIzYXeg6WDoqIl++fNZavnPnTmnVqpWsXbvWWh1hFkyAFaa2O3URYKXWFzpVTEdG2T6aNGkiGzZssF0N5QckoDtF3nTTTQGV9sdievfuLZ988omVsikUAQQQ2F/ATCH8wEwhPM8VFScDLDMC620zAquuK0i0AwEE4iEQdoCl35JquLFu3bp4AEbsLjS40lERxYoVs9byvXv3yr333itffPGFtTrCLJgAK0xtd+oiwEqtL3r16iV//vOfUyskh6vnzp0rt99+u9U6KDxYAbMplTzxxBNWNhNhNF6wfUVpCCBwaAEzAusbMwLrVFeMnAywsrOzvzUfCk5wBYl2IIBAPATCDrA0uNLpg7pOEkf4Aror2IgRI+TYY4+1Wvk333wjd9xxh9U6wiqcACssabfqIcBKvj+OP/54efrpp8V8Q518IQlc2adPH5kxY0YCZ3KKSwIaNJUvXz7wJpkPk9KxY8fAy6VABBBA4EABE2D9YH7mBP+DLElqVwOs9SbAKp7kPXEZAgggcFCBsAOsAQMGyNtvv01vpFFAA0Rdo8rmoTsRdunSxWYVoZVNgBUatVMVEWAl3x2nnnqqt9ae+QU/+UJyuHLjxo3SokUL0VG9HNES0B2Izz77bCuNvvTSS8XMWLFSNoUigAAC+wTMFzRbzBTCIq6I2Hu3TeEOK1WqtDeFy7kUAQQQcCLA6tatm8yZM4feSKNAGAu5L126VDp06JDGuwyuagKs4CyjVBIBVnK9paFV//79RX/O2DymTzdrKQ5kLUWbxrbKvv766+W6666zUnybNm3khx9+sFI2hSKAAAL7C5jfdZ3JjZxpyP5ABFi8YBBAwIZAmCOw9FtRXXBXvznnSJ9A1apVZfDgwVZHR6xYsULat28vuh5W1A8CrKj3YHLtJ8BKzk2nKb/yyitWdx/U95Kbb75Zli9fnlwjuSqtAqVKlfLWYrRxDB06VKZMmWKjaMpEAAEE/iBAgJXDA0GAxSsGAQRsCIQZYH3wwQfy4IMP2rgNyvQhULZsWRk9erTV9WlWrVolugsZAVZiHdOjRw/5+uuvEzuZs0IRIMBKjlnXNho5cqTVgFynDV511VVidudOrpFclXaBadOmWWnDmjVrrI3ustJgCkUAgcgKEGARYEX24aXhCERZIMwAa9KkSd4HG470Chx11FHywgsviI6UsHVs3rxZGjVqFIu1SBiBZespcbtcAqzk+uexxx6Tk08+ObmLE7xK11HU9RQ5oiswefJkKVCgQOA3oBvEXH311bF47wkchwIRQCBQARNg6U4lTkw1YAphoF1LYQgg4LJAmAFWy5Yt5eeff3aZI2Pa9tJLL0nx4vb2BdEpPjoCKw79TYCVMS+LP9woAZb/ftf1r15++WUpWrSo/4t9XNGzZ0+ZNWuWjys41TWBzp07S/369QNvlr736Ppaa9euDbxsCkQAAQT2FyDAyuF5YAohLxgEELAhEFaAtXr1atGFWzncEOjXr5/Url3bamN0JMZbb71ltY4wCifACkPZvToIsPz3iU5PVjebhwYUV155pezcudNmNZRtWUBDzokTJwZei05b14Xcf/zxx8DLpkAEEECAAMvHM0CA5QOLUxFAIGGBsAKs77//Xtq2bZtwuzjRrkCnTp28D4E2j2eeeUZeffVVm1WEUjYBVijMzlVCgOW/Sxo0aCAdO3b0f6GPK+bNmye33nqrjys41UWB/PnzW1tsffz48TJ27FgXb5s2IYBAjAQYgZVDZxJgxehp51YQcEggrABLt7XWb0U53BBo3bq1NG3a1Gpjnn/+eZkwYYLVOsIonAArDGX36iDA8t8n99xzj5x77rn+L/RxRVyCcR+3HMtT8+XLJ6+//rqVezMfKkW/pNHRehwIIICALQECLAIsW88W5SKAwGEEwgqwhgwZIloXhxsCGl5piGXzePHFF61PJ7LZ/n1lE2CFoexeHQRY/vtk+PDhUrFiRf8X+rjizp53ylezvvJxBae6KJAnTx7RjV0KFiwYePP0C7N27doRYAUuS4EIILC/AAEWARavCAQQSINAGAFWnBb0TkMXWalSd2m6+eabrZS9r1BdzPnZZ5+1WkcYhRNghaHsXh0EWP76RDeFUDMbgcS+lmzfvl1atGghmzZt8tc4znZOICsry3teypQpE3jbVq5c6S1ZsHv37sDLpkAEEEBgnwABFgEWrwYEEEiDQBgBlv4SedVVV8mOHTvScIdUeTCBMNaq0fWvdLpP1A8CrKj3YHLtJ8Dy51avXj25/fbb/V3k8+xly5ZJhw4dRBfq5oi+wN133S3nnX9e4DeiOxDqLrj8zhE4LQUigMB+AgRYBFi8IBBAIA0CYQRYW7ZskUaNGvFtaBr691BVXnHFFdKlSxerLZoyZYoMHTrUah1hFE6AFYaye3UQYPnrk8svv1xuueUWfxf5PHv27NnSvXt3n1dxuqsCl156qZUF+TW4atWqlaxbt87VW6ddCCAQAwECLAKsGDzG3AIC0RMII8DS4fw33ngj35o79HjY+uCw/y3qs6Vrn0X9IMCKeg8m134CLH9ud955p1xwwQX+LvJ59t/+9jfRdbY44iFw3nnnyd13323lZnr16iWfffaZlbIpFAEEEFABE2DlNn85sVtELhe7hF0IXewV2oRA9AXCCLCWL18uN910EwGWQ4/LJZdcIrfddpvVFk2bNk0GDRpktY4wCifACkPZvToIsPz1ycSJE6Vo0aL+LvJ5dteuXWX+/Pk+r+J0VwXq1Kkjffv2tdK8l156SUaPHm2lbApFAAEECLASeAYIsBJA4hQEEPAtEEaAtXDhQuvT1XzfeIZfcNFFF8kdd9xhVeHtt9+WAQMGWK0jjMIJsMJQdq8OAix/faKBtc1D172qX7++7Ny502Y1lB2iwOmnny79+/e3UmNc1mC0gkOhCCAQiAAjsHJgJMAK5DmjEAQQOEAgjADrjTfekMGDB2PvkEDdunWlZ8+eVlv07rvvWvtwYrXhBxROgBWmtjt1EWD564swAixdu2/Xrl3+GsbZzgqccsop8uijj1ppX1zWYLSCQ6EIIBCIAAEWAVYgDxKFIICAP4EwAqyHHnpI3n//fX8N42yrArpWja5ZY/P48MMPpV+/fjarCKVsAqxQmJ2rhAAr8S4pVKiQ6PpUNo89e/aIBli6qy1HPASqV68uTzzxhOTKFfzqLW+++aZXNgcCCCBgS4AAiwDL1rNFuQggcBiBMAKsPn36yIwZM+gHhwQIsBLvDAKsxK3idCYBVuK9WbZsWVEvm8fWrVvlmmuuYS1Fm8ghl12lShVvdHZWVlbgNU+fPl0GDhwYeLkUiAACCOwTIMAiwOLVgAACaRAII8DSkT5fffVVGu6OKg8lQICV+LNBgJW4VZzOJMBKvDd1QwjdGMLmsWLFCmnXrp3NKig7ZIGKFSvKsGHDrARYH3/8sdx///0h3xHVIYBAJgkQYBFgZdLzzr0i4IxAGAFWt27dZM6cOc7cMw0Rb7t7phAm9iQQYCXmFLezCLAS71Fdbyh//vyJX5DEmS+//LI8++yzSVzJJa4KVKhQQYYPHy65c+tO9MEe33zzjfWNSoJtMaUhgEDUBAiwCLCi9szSXgRiIaALrOfJk8fqvbRu3VpWrlxptQ4K9ydw4YUXSo8ePfxd5PPsjz76yNoW6T6bktLpd999t5x33nkplZHTxbqg/qxZs3I6jf8fokAYAVazZs1kw4YNId6Vnapee+01KViwoJ3C/1PqrbfeKvPmzbNaB4WHK1CqVCkZM2aM5M2b10rF9erVs1IuhSKAAAIqQICVw3PALoS8UBBAwIZA79695ayzzrJR9O9lNmrUSDZu3Gi1Dgr3J3D00UfL888/7+8in2fHZRHdjh07SoMGDXzevb/TO3TooL8I+buIs60KdO/eXS6++GJrdezYsUM0wNq8ebO1OhIpuE6dOjl+iXG4Rbb37t0rGvLaCiH23cO4ceO895FDtWXfOkq62LvtL2UScdV22ljbKZG69z9H+0c99G+10Tbp3/sOG6OfEmljVq4sKVqsqFx55ZVWFnHXNui0Vr1vDgQQQMCGAAFWDqoEWDYeO8pEAIF8+fJJ0aJFrf2Spx9qVq1aBbSDAkceeaT3YcbGL/j6oWj9+vWyc+dOB+/cX5PUqGTJklZ2P9MPueq/du1af43ibOsC+qG/WLFif/iwf7BKk3397Nq1Ky3hlU71a9KkidSoUUNOOukkJ0IW651JBRkpcOmll+b4+s1IGG4aAQQCESDAIsAK5EGiEAQQQAABBBBAAIE/CmgQe8YZZ4iOLCtSpAg8CMReoGHDhrJp06bY3yc3iAAC6REgwCLASs+TR60IIIAAAggggEDMBbp27SqXXXZZzO+S20PgvwJt2rSRH374ARIEEEDAigABFgGWlQeLQhFAAAEEEEAAgUwW0JFXDzzwQCYTcO8ZKNC+fXtZvnx5Bt45t4wAAmEIEGARYIXxnFEHAggggAACCCCQMQK6Ht3kyZOtL7KeMaDcaGQEbr75Zlm2bFlk2ktDEUAgWgIEWARY0XpiaS0CCCCAAAIIIOC4QMWKFWX48OGOt5LmIRC8QKdOnWTx4sXBF0yJCCCAgBEgwCLA4oWAAAIIIIAAAgggEKDAqFGjpHz58gGWSFEIREOAACsa/UQrEYiqAAEWAVZUn13ajQACCCCAAAIIOCnw+uuvS758+ZxsG41CwKYAi7jb1KVsBBAgwCLA4lWAAAIIIIAAAgggEKAAAVaAmBQVGYHdu3ez62ZkeouGIhBNAQIsAqxoPrm0GgEEEEAAAQQQcFSAAMvRjqFZVgU++eQT6d27t9U6KBwBBDJbgACLACuzXwHcPQIIIIAAAgggELDA3//+d3YgDNiU4twX0Od+yJAh7jeUFiKAQGQFCLAIsCL78NJwBBBAAAEEEEDARYEnnnhCTjjhBBebRpsQsCKwZ88e6dChg3z33XdWyqdQBBBAQAVMgJVl/trrgkYuFxpxYBsqVarkBI6LNrQJAQQQQAABBBBA4H8FTj75ZHnsscegQSBjBGbPni133HGH7N3LR6eM6XRuFIE0CBBg5YBOgJWGp5IqEUAAAQQQQACBCAvkypVL3nzzTdG/ORCIu4COvmrZsqWsWbMm7rfK/SGAQJoFCLAIsNL8CFI9AggggAACCCAQP4EaNWrII488IllZOtuBA4F4CuiIq8cff1ymTZsWzxvkrhBAwCkBAiwCLKceSBqDAAIIIIAAAgjEQUCDq2bNmsn111/PSKw4dCj38D8Cu3btkqeeesobbciBAAIIhCFAgEWAFcZzRh0IIIAAAggggEBGCpxxxhnywAMPZOS9c9PxFdDF2vv27Ss//PBDfG+SO0MAAecECLAIsJx7KGkQApkikDt3bqu3unv3bqvlU3hyAjoqw+a6OLoWSRwW0VUjm1Ov1EitONwTsNnverfp6PfChQvL5ZdfLjVOqSE1Tq0h+fPndw+eFiFwGAEdbbVw4UJZvXq1TJkyRebOnYsXAgggELoAARYBVugPHRUigIBIz5495aSTTrJGoR/+u3TpIhs2bLBWBwX7F6hQoYL3jbXNAGvGjBny9NNP+2+cY1foduxnnnmmtVZpgHXvvffK999/b60OCvYv0KlTJ6lTp85BL/QTzB7u3FtuuUU2bdrkv3EBXZEvXz6pWLFiyj8HBg4cKFqWzUPrYIRNYsI2f64n1gI7Z+17La1fv94Lr/y8Du20iFIRQCCTBQiwCLAy+fnn3hFIm8Df//53yZs3r9X6W7RoIb/88ovVOijcn8AFF1wgd955p7+LfJ794YcfSr9+/Xxe5d7pd911l5x//vlWG9a9e3fRrd853BEYM2aMlCtXzlqDdPRV06ZN5ddff7VWR1gF6ygY2yO5dBH6d955J6xboh4EEEAAAQQOK2ACLGe293WmIfuLVapUaS/PEAIIIBC0QBgB1nXXXceW1kF3XIrlEWAlDkiAlbhVnM4kwEq8NydPniwFChRI/IIkztRpYrfffnsSV3IJAggggAACwQsQYOVgSoAV/ENHiQggIBJGgMUILPeeNAKsxPuEACtxqzidSYCVeG8OGzZMsrOzE78giTPnzZsnt956axJXcgkCCCCAAALBCxBg5WBapUqV7WYhZLsLDATfr5SIAAKOCxBgOd5BlppHgJU4LAFW4lZxOpMAK/He1JFR9erVS/yCJM5cvHix6LpkHAgggAACCKRbwKw1uGvJkiV212DxcZOuTiFcZu7heB/3wakIIIBAjgJhBFhMIcyxG0I/gQArcXICrMSt4nQmAVbivXnsscfKs88+m/gFSZypmxy0bds2iSu5BAEEEEAAgWAFTIC12gRYZYItNfnSXA2wPjO3VDv52+JKBBBA4H8FwgiwmELo3pNHgJV4nxBgJW4VpzOfe+45KVu2rLVbitMi7oULF5ZXX33VmpUWvGrVKmnVqpXVOigcAQQQQACBBAUWmSmEVRM81/ppTgZYlStXfs38stPA+t1TAQIIZJQAAVZGdffvN0uAlXi/hxFg9ezZU2bNmpV4ozjTusDzzz8vRx99tLV64hRgKdK0adOsWWnB69atk2bNmlmtg8IRQAABBBBIRCArK+tTM7X9T4mcG8Y5TgZYZnHMp/fu3XtzGADUgQACmSNAgJU5fb3/nRJgJd7vGi7VrVs38QuSOPOee+6RL774IokrucSWwNixY6VMGXuzAwiw/PWcWQdWGjRoIDt37vR3IWcjgAACCCAQsICZQvgPM4Xw0oCLTbo4JwOsqlWr9tm1a1fvpO+KCxFAAIGDCIQRYLEGlnuPHgFW4n3So0cPufDCCxO/IIkz+/TpIzNmzEjiSi6xJfDCCy9I6dKlbRUvcQuwJk2aJEcccYQ1L/MlrrRu3Vp++ukna3VQMAIIIIAAAokImADrRRNgNU/k3DDOcTLAql69evsdO3Y8EwYAdSCAQOYIhBFgsQaWe88TAVbifdK9e3e5+OKLE78giTP79u0rH330URJXcoktgXHjxkmpUqVsFR+7AEtD2DPPPNOalxY8ZMgQ0fcsDgQQQAABBNIpYKYQDjVTCDunsw371+1kgGXWwKpvvq2b4goS7UAAgXgIhBFgMQLLvWeFACvxPrntttvkkksuSfyCJM7s37+/vPvuu0lcySU2BMwvpqIjsEqWLGmjeK/MuI3Aql+/vnTubPd3+bfeeksee+wxa31CwQgggAACCCQiYEZg9TMjsHolcm4Y5zgZYJ188sk1tm7d+nUYANSBAAKZIxBGgMUILPeeJwKsxPuka9euctlllyV+QRJnDhw4UKZPn57ElVxiQyBPnjyiI7BKlChho/hYBlj6GtHXis1j7ty5cvvtt9usgrIRQAABBBDIUcAEWF1NgDU4xxNDOsHJAKtixYplDNSqkAyoBgEEMkSAACtDOvqA2yTASrzfdVSJji6xeTz55JMydepUm1VQtg+BfPnyyfjx46Vo0aI+rvJ3atxGYOloNTWzeSxbtkw6dOgguh4WBwIIIIAAAukSyJ07d4tFixZNSFf9B9brZIBlFnEvaRZxX+MKEu1AAIF4CIQRYDGF0L1nhQAr8T7p2LGjt/uZzWPUqFEyceJEm1VQtg+BsmXLypgxY8R8cejjKn+nxi3AUquRI0dK+fLl/UH4OFt3Irz++utl7dq1Pq7iVAQQQAABBIIVMEsNNDBrYDmzvJO931ZScKtQoUIJM6R9XQpFcCkCCCDwPwJhBFhMIXTvwSPASrxPbr75Zrn66qsTvyCJM//61796gQmHGwItmreQlq1aWm1M3AIsxXr88cflxBNPtOo2aNAgmTZtmtU6KBwBBBBAAIHDCZgvbeqaKYTOLF7qZIBVrVq1I3bu3LmRRwkBBBAIUoAAK0jN6JRFgJV4X7Vv316uvfbaxC9I4sxZs2ZJz549k7iSS2wItGvXTho2bGij6N/LjGOAdc0118hNN91k1Y2w1yovhSOAAAIIJCZQe+nSpV8kdqr9s5wMsMqVK1eoQIECW+zfPjUggEAmCYQRYDGF0L0nigAr8T654YYbpFmzZolfkMSZ5pcgb20fDjcEunfvLhdffLHVxsQxwPrTn/4k999/v1W3bdu2WZ/Sa/UGKBwBBBBAIPICZmbcCQsXLpzvyo04GWBVrlw5v/llZ5srSLQDAQTiIRBGgMUUQveeFQKsOlZBwgAAIABJREFUxPukSZMmcuONNyZ+QRJnbty40QvJzFqXSVzNJUELPPLII3LaaacFXewfyotjgKU3+Oqrr0rhwoWt2ulIry1b+E7XKjKFI4AAAggcUsAEWMeaAOtHV4icDLAaNWqUe+bMmfxm68pTQjsQiIkAAVZMOtLnbRBgJQ6mO9HZXmDdLBHgTVnT0SUc6RXInz+/vPLKK5I3b16rDYlrgPXEE0/ICSecYNXuzjvvlK+++spqHRSOAAIIIIDAoQSKmOObb75x5psUJwMsxcvOzt5utg7Ox6OEAAIIBCVAgBWUZLTKIcBKvL80yBg/frwUK1Ys8Yt8nqm7q7Vq1UrWrGGzYZ90gZ9u1hyVwYMHB17ugQXGNcCqUqWKDBkyxOoOjlu3brW+sYL1B4AKEEAAAQSiKrDbLP2Qx6XGuxxgrTABlr39iV3qBdqCAAKhCIQRYLEGVihd6asSAqzEuXLnzi1jx46VkiVLJn6RzzPNe7vcd9998tlnn/m8ktODFtAdJ3XnSdtHXAMsfb3oNEKzbqs1Qh2x2LRpU9m8ebO1OigYAQQQQACBgwmYHQg3mh0I7X2rmQS7ywHWF+aX3JpJ3BOXIIAAAgcVCCPAYg0s9x4+AqzE+8T8oiKjR48Ws5lK4hclcWb//v3l3Xed2ZE5iTuIxyVPPvmkVK9e3frNxDXA0teLTiO0bThlyhQZOnSo9X6iAgQQQAABBPYXMO9zK02AdYxLKi4HWH83AdblLmHRFgQQiLZAGAEWI7Dce0YIsBLvE/1APmrUKDn22GMTvyiJM7UO22ttJdGsjLpERw9NnTo1lHuOa4CleHXq1JEHHnjA6jTCxYsXS+fOnUVHL3IggAACCCAQloD5vXCRCbCqhlVfIvU4G2CZnQhHm194WidyE5yDAAIIJCIQRoDFCKxEeiLccwiwEvfWAGvEiBFSoUKFxC9K4swVK1ZI+/bt+UCehF1Ql5x99tneVM4wjjgHWJUqVfJGR2VlZVml7NWrF9NurQpTOAIIIIDAQQRmmTWwTndJxtkAy/xC8LCButMlLNqCAALRFiDAinb/Jdt6AqzE5cKaEqULuetOhLpANUf4AtrP/fr1k1q1aoVSeZwDLA2uRo4caX3U4ht/f0MGD7G/4H4oDwSVIIAAAghEReAjE2Cd41JjXQ6wuhqoJ1zCoi0IIBBtAQKsaPdfsq0nwPIn16BBA+nYsaO/i3yerYGGBlhbtjizK7PPO4j26brL5Lhx4yRfvnA2e45zgKVPQps2baRx48ZWH4rt27dLy5YtZcOGDVbroXAEEEAAAQT2CZgvvKaYKYQNXBJxNsCqWrVqk127dv3VJSzaggAC0RYII8BiDSz3nhECLH99Urp0aXnuuedE10iyeTAlyqbu4cvWaW9PPfWU9T7e14q4B1glSpTwXjM2dyNUy8mTJ8uwYcPS9+BQMwIIIIBARgmYUcaPmXUYu7t0084GWNWqVbvAbB38jktYtAUBBKItEEaAxRpY7j0jBFj++qRo0aLy4osvSp48efxd6PPsn3/+2RtRwhG+gIZXVapUCa3iuAdYCvnoo4/KKaecYtVUp962bdtWVq5cabUeCkcAAQQQQEAFzJeZHRYtWjTcJQ1nAyyziPuJ5heeuS5h0RYEEIi2AAFWtPsv2dYTYPmTK1KkiEyYMEHy58/v70KfZ2/evFmuvfZan1dxeqoC2r8vvPCCFCpUKNWiEr4+EwKssmXLeqOwbB/Tp0+XgQMH2q6G8hFAAAEEEFCBi8waWG+7ROFsgFW9evWjduzY8YtLWLQFAQSiLRBGgMUUQveeEQIs/30yZswYKVeunP8LfVxhlgnw1g1iHSwfaAGc2r17d7n44osDKCnxIjIhwNIpt6NGjbL+ujGzE6Rp06aiATAHAggggAACNgXMl5nHz5s3b7nNOvyW7WyApTdi1mjYbf6yuy+xXzHORwCByAqEEWAxhdC9x4MAy3+f1K9fXzp37uz/Qp9XvP322zJgwACfV3F6sgIFCxaUSZMmWZ8eemD7MiHA0ns+44wz5IEHHki2exK+ziyoa32jhYQbw4kIIIAAArEVMKOvnMuLnGvQ/r1vAizdnii8Me6xffS4MQQQUAECrMx8Dgiw/Pd7nTp1pG/fvv4v9HnFnDlzpFu3bj6v4vRkBS688ELp0aNHspcnfV2mBFi6fpzu7mh7+u3evXulZ8+e8vXXXyfdJ1yIAAIIIIBATgIEWDkJHfD/s7Oz15g36ZI+L+N0BBBA4KACBFiZ+WAQYPnv92LFisnLL7/s/0KfV+ii1LfddpssWLDA55Wc7ldAd8jTNZp0x7ywj0wJsNS1Q4cOctVVV1knXrVqlTcKiym41qmpAAEEEMhYAQIsn11vRmB9Zy45zudlnI4AAgikLcBiDSz3Hj4CrOT65Pnnn5ejjz46uYt9XKU74r3++us+ruDUZATCeB0cql2ZFGAVLlzY28XT9igstdaQ+dlnn03mceAaBBBAAAEEchQgwMqR6I8nmBFY35oRWCf4vIzTEUAAgbQFWKyB5d7DF8YH9w8//FD69evn3s2n0KLmzZtLq1atUighsUt/+uknad26tei0KA47ArrA+MSJE0XDlXQcmRRgqa8+z7rQuu1DRzB26dJFdE0sDgQQQAABBIIWIMDyKVq5cuV/mF966vm8jNMRQAABAiyegd8FCLCSexhq164dWiinYdnatWuTayhX5Sig6yXVrVs3x/NsnZBpAVbevHll9OjRUrp0aVukv5errxsNmnV3Qg4EEEAAAQSCEsjKyvpx8eLFxwZVXlDlOL2Ie5UqVQaYb5fuCOpmKQcBBDJbgDWwMrP/CbCS6/cjjjhCJoyfIPny50uuAB9X6Xo+YYz28tGk2JxasWJFGTJkiGiokq4j0wIsddbp5Ndff30o5LNmzZK77rpL1JkDAQQQQACBIARMgDXZBFj2F3X02VjXA6zmJsAa7/OeOB0BBBA4qAABVmY+GARYyff7wAEDpcapNZIvIMErdfqgTrvS6YQcwQno1MGHHnpITjvttOAKTaKkTAywlGnq1KmifRDGoWvWTZgwIYyqqAMBBBBAIAMEzPvXfYsWLbK/JbVPS6cDLDOF8CTzS88cn/fE6QgggEDaAiwWcXfv4SPASr5PunXrJn/5y1+SL8DHlZ999pn06tXLxxWcmpNAGM9+Tm3Q/5+pAVatWrXkwQcfTIQo5XM0BO7bt6/861//SrksCkAAAQQQQCBPnjyXLVy48E3XJJwOsMybcS6zkDvjoV17amgPAhEVYARWRDsuxWaH8SE+jou4K7uZyi+DBw8WM4w8xV7I+fJt27ZJx44d5ccff8z5ZM7IUaBUqVIybty4HM8L44RMDbDU9q9//auUKFEiDGbZtWuXtG/fntdQKNpUggACCMRb4Kijjir7+eefr3LtLp0OsBSrUqVKbEvk2lNDexCIqAABVkQ7LsVmE2ClBjhp0iTR9bDCOGbPni3du3cPo6pY16HrXemUMvPLpxP3mckBVtWqVeWJJ54IbSrhmjVr5Pbbb5fVq1c70fc0AgEEEEAgmgLmS5EjV6xYsd611hNgudYjtAcBBKwJEGBZo3W6YAKs1LqnXr163gfisA6dBvXRRx+FVV0s6+natatcdtllztxbJgdY2gk6Kuraa68NrT90NGOLFi1k8+bNodVJRQgggAAC8RIoYo5vvvlmi2t3RYDlWo/QHgQQsCZAgGWN1umCCbBS6x4dzaOvnbCOrVu3eh++9W8O/wIXX3yxc6PYMj3A0l58+eWXpVixYv47NMkrNLzq0KEDI7GS9OMyBBBAINMFzPT3fDNnztzpmkMUAqyNBi2cuQuu9Q7tQQCBQAUIsALljExhBFipd9WgQYPkpJNOSr2gBEt45513ZMCAAaILU3MkLqC7DT788MOhrFmWeKsydxH3/Y1KlizprUmWK1d4v3pv2LBBOnXqJL/88ouf7uJcBBBAAAEEti1durSgiwzhvYsmefdmJ8J3zTd35yd5OZchgAACvwsQYGXmw0CAlXq/n3322XLfffelXpCPEh566CF5//33fVyR2acec8wxMmzYMClQoIBzEIzA+neXNGnSRG688cZQ+0cXdtcQ67vvvgu1XipDAAEEEIiugPmyZe6SJUtOdvEOnA+wzA5Ij+zevbuHi3i0CQEEoiVAgBWt/gqqtQRYqUvqIu5jx46VQoUKpV5YgiXo6KsuXbrIokWLErwic08rU6aMF16Z5SqcRCDA+ne36HRc7acKFSqE2k/bt2+X0aNHy+TJkxnVGKo8lSGAAALRFDC7T09ZvHhxAxdb73yAZXZvudp8e/Sqi3i0CQEEoiVAgBWt/gqqtQRYwUi2atVKmjdvHkxhCZayZcsWb8SKToXiOLiAjrwaOnSoFCyY3Ej/nTv/vbyFhiu2DgKs/8pqf40cOTK0XQn31ayBsG6OoFNMzRfDtrqachFAAAEEYiBgRmA9ZkZgObktdBQCrOomwJoXg+eAW0AAgTQLhBFgXXfddaLbmHO4I0CAFUxfFC5cWCZOnBj6B+/ly5d7I7F0FAnHHwVKly4tzzzzTNIj4zTUuPPOO6VGjRrewvm2DgKsP8pedNFF3s6euXPntkV+yHKXLVsmd999t6xbty70uqkQAQQQQCAaAub96WYzAv4ZF1sbhQDrGBNg/eAiHm1CAIFoCYQRYOmHQBbMdeu5IMAKrj+6d+8uustd2MeKFSvk1ltvFR2RxfFvgWrVqnmjaTRYTPYwC7R6O9Xp9DIdGWTrIMD6X9kbbrhBmjVrZov8sOXqDoU6ak83S+BAAAEEEEDgQAEzhbCemUL4losyzgdYZhH3ouYXn19dxKNNCCAQLQECrGj1V1CtJcAKSlK8ESOvvPJK0tPVUmnJqlWrpGvXrkwnNIiXXHKJdO7cOaVpfzt27JD27dvLTz/9JGPGjJFy5cql0j2HvZYA6395zIcD0UD4wgsvtOZ+uIJ19N3cuXO9zRkIhtPSBVSKAAIIOCtgphBWMVMIF7vYQOcDLIOWValSJV2gIctFQNqEAALRESDAik5fBdlSAqwgNUWuv/560amy6ThWr14td911l/zwQ2YOzM6TJ483aicI/48//ljuv/9+rxsJsNLxNP+7Tl0PK+xF3fe/Ww2yBg4c6K2PxTRd+8+BvoZ1UwwNMHUkHOb2zakBAQR8C+wtUaJE/pkzZ/57kUzHjigEWJKdnb3cvMGGu2WLYx1FcxBAIHWBMAIs1sBKvZ+CLoEAK1jRo446yvvQncrUtVRapKN5dPqTvp4z6dARUrpelU4dTPXQD84tW7b8feQNAVaqoslfr2GG+uvf6Tx0NNaECRPkiy++SGczYln3GWecIWZXdTnyyCPltNNO+326rm5O8fnnn4uOLtX1BQmzYtn93BQCkRMwo682m9FX6X1TOoxaVAKsd02AdX7kep8GI4CAUwJhBFisgeVUl3uNIcAKvk+uvvpqufnmm4MvOMES9+2o1q9fvwSviPZpTZo08XaALFCgQCA30rNnT5k1a9bvZRFgBcKadCFmx2158sknvVE56Tz0daWbJvTu3dsLVTiSFyhTpoznaEYxeH/MB8LDFqbTOEeMGCH/+Mc/kq+UKxFAAIFgBH4ya2TaW1cgxTZGIsAyUwhHmftsk+K9cjkCCGS4AAFWZj4ABFh2+l13vzv++OPtFJ5gqRs3bpRevXrJwoULRUdmxe3QD766UHvFihUDu7Uvv/zSm4a5/0GAFRhv0gXpCB2dylewYMGkywjqQg2y5s2bJwMHDJRVP6+K5WsrKKt95eTPn98bWdWwYUM577zzRKcKJnO8/PLL8uyzzyZzKdcggAACQQksMAFW9aAKC7qcSARY5k29++7duwcGffOUhwACmSUQRoDFFEL3nikCLDt9UrZsWRk1alTSH9SCapUGV2adBnn++efFbPkcVLFpLUenGp177rly4403in4wDurQBdt118HffvuNACso1ADLqV69urcuWfHixQMsNfmizO/e3hS31157zVvwXRf+5/ivgG5qoVN6Tz/9dLnyyisD6zcNMqdPnw41AgggkBYBMxp4stmB8Kq0VJ5ApZEIsMwaWJeab4OmJnA/nIIAAggcUiCMAIsphO49gARY9vpEFxS/4YYb7FXgs+QPP/xQhg0bJuvWrfN5pTunt2nTRurXrx/4SBwNI2699VZvtNqBByOw3Ol/HcWja8xpOOLSoaMd3377bW+dLP3nTD40aLz44ovlnHPOkWLFigVOoWvU6e8S27ZtC7xsCkQAAQQSELjVjMB6MoHz0nJKJAKsk08+ufzWrVtXpEWIShFAIDYCBFix6UpfN0KA5YvL18mFChXy1m0pVaqUr+tsnqwjsswvXjJ8+HDvb11bxvVDR9xccsklXnBVsmRJK80dMmTIIRe+J8CyQp50oToCTzcq0L9dO3bu3CnfffedPP300/L999+L+f1cdu3a5VozA22P/pzTTSt09KLuGFm+fPlAyz9YYdr/U6ZMsV4PFSCAAAIHCpiR36eYaeRzXJWJRICleGYdLH13dOvrKFd7lXYhgMBBBQiwMvPBIMCy2++6WPFzzz2X9gWoD7xLDbJ0BMPo0aNlxYoV8vXXX9uF8Fm6jrA59dRTvTVzzBd1ki9fvhwXevZZxe+nf/rpp9KnT59DrmVEgJWsrL3rdNfJp556Km27feZ0Z/r60imFutj7uHHjvFGP3377rej6WXE4NLTSxfX1T9OmTb3XZ968eUO7Nd1kQTdb4EAAAQTCFjBf/umOIs7+MI9SgKVfoRYKuwOpDwEE4iNAgBWfvvRzJwRYfrSSO1fXgHnooYecC7H2vxv9sK3ryugfXSsrHev5aGhVq1YtqVOnjvz5z38ObM2cw/XamjVrvLW0Dne/BFjJPfe2r9JF/HU9pDBG/ARxLzr17d133/VGPn7wwQei/x6VQwMqnb6pIyFLly4tZ511VlqbvmzZsrTu9JrWm6dyBBBIq4D5Ge50RuR04/bvOTMCa635d/fGUqf18aJyBBDwI0CA5UcrPucSYIXTl40aNRJdvymn7eLDac3ha9EP1vpn9uzZsnLlStERSvqBMeidDHUnMl3k+bTTTpPatWvL0UcfLRpKhHX8+uuv0rlzZ1m9evVhqyTACqtH/Neji/jfcsstctFFF/m/OM1X/LzqZ2+E1qLFi7xQ65NPPnFiSm+BAgV0Zof83//9nxx11FHeCEj9W6cJunLomnVXXHFF4D+TXLk/2oEAAu4KEGAF1DdmIfe5ZljyiQEVRzEIIJCBAmEEWOxC6N6DRYAVTp9ocNW3b18vqInaodOedK0sDbB0jR/98Kjr+nz55ZfeLmy6a9/atWu9v/Wc/adJ6X3ryI0iRYrIEUccIc2bN/emGumIDg2wdCpSOkK97du3y0033SS682BOBwFWTkLp/f86ck8DYt0wIR3PUlB3r6+pfWtm7XuNffPNN/LRRx95mwvof9PX1r4/B/67vvbM7li/N0ct9v3R19q+f1YvfQ0ed9xxXjClUwD1v+k5+t81FLQ5ZTcIL71XDbDUgAMBBBAIUWCDCbDC+6YtiRuLzAisypUrP2x+mN+ZxD1yCQIIIOAJhBFgsQuhew8bAVZ4faIfLnXxYR3dwJE+AQ2vbrvtNlmyZElCjSDASogp7SfpekwPP/ywF5ZyxFtAX7sdO3aM901ydwgg4JyA+T3u5cWLFzdxrmH7NSgyAVaVKlXOMN9CfOIyJm1DAAG3BQiw3O4fW60jwLIle/BydRrOI488IuZ9O9yKqc0T0JEbd999t3z11VcJixBgJUyV9hN1CqqGWBUrVkx7W2iAPYHPPvtMevXqZa8CSkYAAQQOImACrDYmwBrtMk5kAiyDmMt8o7vHZUzahgACbguEEWAxhdC9Z4AAK/w+0ek5Q4YMkeOPPz78yjO8xttvv13mzp3rS4EAyxdX2k/W6XAtW7b0psZxxE9Ap1B26dLF22yCAwEEEAhTwARYJ5kA69sw6/RbV5QCLJ2S4Ox2jn7hOR8BBMIXCCPAYgph+P2aU41hBFi649aDDz6YU1My6v/rejT9+/f3FjDnsC+gawvdc8898u23/n/vJMCy3z82aihTpow8+uijUqpUqUivjWXDJspl6ujJu+666w9r7UX5fmg7AghER8CsEVhu3rx5OS+emcZbIsBKIz5VI4BAuAKTJk3yFlm2eTRr1kzWrVtnswrK9ikQRoD1z3/+0/sgyfFHAR2Jde+998oZZ5wBjUUB3W2wW7du8v333ydVCwFWUmxOXKTrzukXJ9dcc423YQBHtAV0owgdya27pHIggAACYQvs2LGj0A8//PBb2PX6qS9SAZZZyP1Hs7ZDOT83yLkIIIDAPoHWrVtbn3LRuHFj0Q+THG4JTJs2zWqDpkyZ4i1eznFwAd1BrW3btvBYEFizZo1nu23btqRLf+ihh6RmzZpJX5/ThbqTmk5327hxY06n8v+TFNDd9nRtLN15jyOaAuaDo+jvEBpicSCAAAJhC5iR8xvMBhJO70CoJlELsF4wAdZ1YXcm9SGAQDwEzjzzTOnTp4/Vm9Fvwbds2WK1Dgr3L6ABk26dbut46aWXZPRop9e8tHXrCZerUwl1cfFixYolfA0nHlpA18nRkX+DBw+WnTt3pkR11VVXSYcOHVIq43AXa4DVpEkT2bRpk7U6KNj8Um+m7V544YVeX7JTYbSeiGXLlnlTgNeuXRuthtNaBBCIjYB5D/nYBFhnu35DUQuwrjMB1guuo9I+BBBwU6BcuXKiU2VsHfqt6bXXXiv6YY3DLQEdHWVG8VprlK719O6771orPy4F6xRe3aEwOzs7LreUlvvQnzUDBw6Uf/3rX4HUf+yxx8qzzz4bSFkHK0R/JuooPMJ9a8R/KFh3Ar3sssukYcOGUrx48XAqpZakBPQ1MX78eHn99ddFR2BxIIAAAukSMAHWSBNgtU9X/YnWG6kAyyziXsvc2OeJ3hznIYAAAvsL6BQL/UVRv6W2cYwdO9Yrn8M9gQEDBsipp55qpWE6LUpHl5gvWKyUH8dCr7/+emnevLno+j0c/gTmz58vgwYNkuXLl/u78DBn69pJf/vb3wIr78CCpk6dKk8++aS18in44AL6+tKp8w0aNLA6AhV//wIaVr3//vsyYsQIptb65+MKBBCwI9Bh6dKlw+0UHVypdj7FBde+P5RUrVq1cmaY/I+WiqdYBBCIuYAGVz169JC6detauVNdRHnOnDlWyqbQ1ASOP/54GTZsmOj280EfCxcu9LY85/AnoCPidFTOeeedZy1U9tcit8/eumWrDH9muLz11ltWdiebMGGCaMhv49BRd++8846NoikzAQEdhXXOOedI+/btRTdW4EifgO4WqqHVZ599xnTB9HUDNSOAwEEE8uTJU8f8Tuv8YKFIBVhm7ZosM8JBx9cG/wmExxgBBDJCQEfh6IepoEdhzZ07V7p3784oHEefIg2unn/+eW+7+SAPnRp1yy23yOLFi4MsNmPK0hEi5cuXl379+knp0qUz5r793ui3334r9913n9U1pHSnyAceeMBv03I8X9e9atWqFdMHc5Syf4KOtNO1IHVUVtA/C+23Pto1/PTTT6KbJaxYsSKlDReirUDrEUDAYYG9LVu2zGfyll0Ot9FrWqQCLG2wmUa4yPxlbyET13uM9iGAQMoCzzzzjOiInKAOnTqmU9RYAykoUTvl6CLiGl4GeXz33XfSsWNH1j0LAPWKK67wto8vUcL5DXACuNvEijBbWcv999/vfei1fWjIq2vFVaxYMdCqdKH5Rx99NNAyKSx1AV2HThd7r1KlihQoUCD1AinhfwTWrF4j8+bP834/SHWjBXgRQAABywK/memDhSzXEUjxUQywdC/0vwRy9xSCAAIZKaAfkHUx94IFCwZy/5988on07t07kLIoxJ6AjrrTUSxnnXVWIJXoBxKdkrNy5cpAyqMQkbx583rTCuvUriMnnHhCxpLoiE7dOfO9994L1cAs1eCtr2WmEQRSr+6sdvPNNwdSFoXYEdD3Q13wvXbt2nLCCZn7mgtKd9u2bd40X/NBUP7xj39Yme4bVFspBwEEENhPYJ35uWVnHYGAmSMXYJlvjAaaraO7B+xAcQggkGECNWrU8EbjpLqI9ObNm6Vx48aMwInI86Mhlq6FZUbzptxiHRnz8ccfp1wOBfyvgI4GOu6447zX1gUXXJAxRDrNSKfx6QLt6drN9Morr5ROnTqlbK5TB9u1ayfr169PuSwKsC+grzndjfIvf/mLt3shhz+BDz74QCZOnCj6GtZnnwMBBBCIkoD5PPSJWQ7jzCi0OYoB1qUmwJoaBVzaiAACbgucdNJJ0rdvX9Etx5M5Zs+eLffeey/rWSSDl8ZrdJTPww8/LKecckpSrdBv2HUtk08//TSp67nIn4Cu29OiRQs5++yzvXV7ghod5K8Vds42v8/ImjVrvCmCAwcOlA0bNtipyGeptWrVkl69eiU9tUw/xOvacLpDJ0f0BDTM0mmFOnquevXq3rTeI444Ino3YqnFuhD7unXr5Pvvv5fHH39c9N+ZImgJm2IRQCAsgY5mBNbTYVWWSj2RC7DMqInCZsTD5lRummsRQACBfQK665b+kq47NCW6sLuOKHjttddk0qRJsmuX82sd0tkHEdCRd1dddZU3wifRNZc0bNBtz3UxeKYNpuexKlOmjLeLqE5105BFw8goHjpCQ5+lL774wgtCdR09145jjjnGm85Zr169hEeqagCno1BeeeUVpk651qEptEfDrD//+c/eeln6d8mSJVMoLXqX6pcWM2fO9IJmXfdQX7O//fZb9G6EFiOAAAKHEDC/Cxc3P+d+jQJQ5AIsRTVTP/Q3vUi2PQoPBW1EIBMFdCc0/aCmf4oWLfo/BBpe6KgCDa2mTZtGcBWTh0SDrAYNGnjrv9SsWfMf2V+yAAAgAElEQVSgd6UhpQaWb7zxBsGVQ/2uo0TOPfdcr980gHZ9IWodpTF16lRvXZwff/zRydDqYN2rI290WlmTJk28n40HBv36+tCptHpfX375JcGVQ68RG03R/tfXmo7MOv300+VPf/qTN903LoeGydu3b5fp06eLbqLw4YcfetNgXQyZ42LOfSCAQPoFzOiryGQrkWno/t1qAqzd5t+z0t/VtAABBOIooDsUarCx74Oa/uK6du1apsPEsbP3u6cjjzxSihcv7v0X7XsNLXUdIv3WXf+Zw20Bfd3qiCydGnz11Vd7mzRoyKX/LX/+/KE1XoMqDXX02dFA5+9//7s3WkNHbkT9OdLXR7Fixbyfj/s+0Ot6XRyZLaDT8EuXLu295i6//HIv2NLXnj4n+rdOA050hLNNSX1Najilf+vzq380nNKQSl+r+v90auCvv0ZiEIJNKspGAIEMEyDAstzhZiH3r80vgTUsV0PxCCCAAAIIIBBBAV0nSz846x8Nr3Rx6iuuuELy5cv3+x8dRaJ/KlSo4PsOdd0qXd9Jpxbp2jf6wVenz/3zn//0gir9b/rheMeOHb7L5gIEoi6gofG+L4H0tajTtHX6oY7W0tej/tn3WtT/r+frazSVQ79o0NedvuY0QPZC5F27ZdfuXd5/00XWdVdMDaf0/+nrUwNlvSbqwXIqblyLAAIImC8YvluyZEnFqEhEcgRW5cqVO5o3nqFRQaadCCCAAAIIIOCugI4O0T/6obtixYreiJF9I0j2jdbQD7o6WmP16tVp2yHQXUFahkDqAvtCLx3pV7ZsWS/Y0tehBkz7RkztC590OdxVq1b9/t8JoVL3pwQEEMhMAfOz9ymzA2GXqNx9JAMsMz2giBmOzx61UXnKaCcCCCCAAAIIIIAAAggggAACCDglYEbCXr5w4cKpTjXqMI2JZICl92PWwWJBkqg8ZbQTAQQQQAABBBBAAAEEEEAAAQScEjCjXasvMIdTjYppgMVOhFF5ymgnAggggAACCCCAAAIIIIAAAgi4JLDXrBNY2Oy6+ptLjTpcWyI7Asss5P6Fme9+8D3Po6JPOxFAAAEEEEAAAQQQQAABBBBAAIGQBcz6n9+bBdz972YTcjv3ry7KAVZfE2Ddm0Y7qkYAAQQQQAABBBBAAAEEEEAAAQSiKPDW0qVL60Wp4ZENsKpWrXqZ2YnkjShh01YEEEAAAQQQQAABBBBAAAEEEEAg3QJmp9d+ixYt6pXudvipP8oBViUTYC3xc7OciwACCCCAAAIIIIAAAggggAACCGS6gNmB8FyzA+GHUXKIbIClyGYnwu3mr3xRAqetCCCAAAIIIIAAAggggAACCCCAQDoFzPTBLFP/3nS2wW/dUQ+w5psbrub3pjkfAQQQQAABBBBAAAEEEEAAAQQQyFCBvf8JsCJ1+5EOsCpXrvzanj17GkRKnMYigAACCCCAAAIIIIAAAggggAACaRLIysr6dfHixcXTVH3S1UY6wMrOzm5ldiJ8Lum750IEEEAAAQQQQAABBBBAAAEEEEAggwTMAu4PmgXc743aLUc6wKpZs2ax9evXb4gaOu1FAAEEEEAAAQQQQAABBBBAAAEE0iFQrFix0l999dWadNSdSp2RDrD0xs1C7pFadCyVzuJaBBBAAAEEEEAAAQQQQAABBBBAIBUBs/5VJLOgSDZ6/44yAdZu8++6ej4HAggggAACCCCAAAIIIIAAAggggMChBSK5gLveTuQDLLOQ+0tmIffGPJ0IIIAAAggggAACCCCAAAIIIIAAAocWyJUr10dLliw5J4pGkQ+wzAisWgb+8yji02YEEEAAAQQQQAABBBBAAAEEEEAgRIHbzRTCx0OsL7CqIh9gVatW7YidO3duDEyEghBAAAEEEEAAAQQQQAABBBBAAIEYCpgRWGebEVgfR/HWIh9gNWrUKPfMmTN3GvzI30sUHyDajAACCCCAAAIIIIAAAggggAAC0RDImzdv0QULFmyKRmv/2MpYhD7Z2dmf7927V6cSciCAAAIIIIAAAggggAACCCCAAAIIHCBgRl+tNKOvjokqTCwCLLOQ+4NmIfe7o9oJtBsBBBBAAAEEEEAAAQQQQAABBBCwKZCVlfX+4sWLz7dZh82yYxFgmXWwLjHrYL1pE4qyEUAAAQQQQAABBBBAAAEEEEAAgagKmBFYPc0IrAGRbX9UG75/u88444yia9as+TUO98I9IIAAAggggAACCCCAAAIIIIAAAkELFCpU6Og5c+b8HHS5YZUXixFYimXWwVpt1sEqFRYc9SCAAAIIIIAAAggggAACCCCAAAJREVi6dGmkM6BIN37/h8SsgzXTrIP1f1F5cGgnAggggAACCCCAAAIIIIAAAgggEIaAWf9ql1n/Km8YddmqI04BVicTYD1lC4pyEUAAAQQQQAABBBBAAAEEEEAAgSgK5M6de8iiRYtuiWLb97U5NgFWjRo1Cm82R5Q7g7YjgAACCCCAAAIIIIAAAggggAACQQvkzZu30oIFC5YFXW6Y5cUmwFK0SpUq7Q0Tj7oQQAABBBBAAAEEEEAAAQQQQAAB1wVKlChReObMmVtdb+fh2he3AGutudkjo9whtB0BBBBAAAEEEEAAAQQQQAABBBAIUGCLWcC9SIDlpaWoWAVYVapUuWf37t390iJJpQgggAACCCCAAAIIIIAAAggggIBjArly5XppyZIlTR1rlu/mxCrAys7Orrx3795FvhW4AAEEEEAAAQQQQAABBBBAAAEEEIihQJ48eVotXLhwbNRvLVYBFgu5R/1xpP0IIIAAAggggAACCCCAAAIIIBCkQMGCBY+bO3fuiiDLTEdZsQqwFNCMwlpkRmFVTgcmdSKAAAIIIIAAAggggAACCCCAAAIOCfxq1r8q7lB7km5KHAOsp02AdXPSIlyIAAIIIIAAAggggAACCCCAAAIIxENgrgmwTo7DrcQuwKpcufKVe/bsmRyHzuEeEEAAAQQQQAABBBBAAAEEEEAAgWQF8ubNe+eCBQseSfZ6l66LXYB1/vnnF1ixYsVWgxy7e3PpwaEtCCCAAAIIIIAAAggggAACCCDgtkCFChWOeO+99za73crEWhfLkKdSpUrrze3HYo5nYt3IWQgggAACCCCAAAIIIIAAAggggMAfBcz0wdjkPrG5kf27qEqVKtN37959IQ8uAggggAACCCCAAAIIIIAAAgggkIkCWVlZixYvXlw1LvceywCratWqtXft2vVZXDqJ+0AAAQQQQAABBBBAAAEEEEAAAQT8COTKlavVkiVLxvq5xuVzYxlgKbiZRrjXZXjahgACCCCAAAIIIIAAAggggAACCNgSMCOwypsRWD/YKj/scmMbYGVnZ2/bu3dv/rBBqQ8BBBBAAAEEEEAAAQQQQAABBBBIp4AZfbWrfPnyBc0C7rvS2Y4g645tgFW5cuURe/bsaRckFmUhgAACCCCAAAIIIIAAAggggAACrguYAOs9M33wAtfb6ad9sQ2w/r+9OwHTqyzvBs7MO0tCwCQqi0gwzJowIQTHYqmicS3UXRu/Wor6uW/Vqm2131dtrNW29nNprSsudWu1sWpLFXBr1FqXdkATwuxD2FWkISFkMuv73dMiDZCQWd7lnOf8uK73Cst7nue+f88JOH+f85x169adOzk5+W8LwfBdAgQIECBAgAABAgQIECBAgEDeBUql0u8NDw//v7z3cWj9yQZYa9euXRXPe+5JabH0QoAAAQIECBAgQIAAAQIECBA4mkBzc3Pb4ODgNUf7Xp7+ebIB1twixDlYg3EOVjKvjMzTjaVWAgQIECBAgAABAgQIECBAoC4CB8bGxlbUZeYqTpp6gPXBCLBeWkU/QxMgQIAAAQIECBAgQIAAAQIEMiMQ51/1x/lXZ2SmoAoVknqA9SsRYH23QlaGIUCAAAECBAgQIECAAAECBAhkWiCOU3r2yMjItkwXuYjikg6w5jza2tpm45fk+1zE2ruEAAECBAgQIECAAAECBAgQSEwgHh9MMgNJsqlD770IsA7EXy9P7H7UDgECBAgQIECAAAECBAgQIEDgbgLx+OB0PD7YnCJL8gFWR0fHG2ZnZ/8sxcXTEwECBAgQIECAAAECBAgQIEDgFwKlUuljw8PDL0xRJPkAa27RYhdWOcXF0xMBAgQIECBAgAABAgQIECBA4BcCcQ74w6+55pofpihSlADLOVgp3r16IkCAAAECBAgQIECAAAECBO7Kr5YvX36/Xbt27U+RpBABVnt7+z9ECvnMFBdQTwQIECBAgAABAgQIECBAgACBEPhxHOC+KVWJQgRY69ate/Lk5OQlqS6ivggQIECAAAECBAgQIECAAIFiCzQ1Nf3Z0NDQH6SqUIgAq6en5/7j4+O3prqI+iJAgAABAgQIECBAgAABAgSKLdDc3Nw2ODh4TaoKhQiw5hYvHiMcjccI21JdSH0RIECAAAECBAgQIECAAAEChRWYjccHSyl3X6QA6+IIsF6U8mLqjQABAgQIECBAgAABAgQIECieQENDQ//o6OgZKXdemACru7v79KmpqbGUF1NvBAgQIECAAAECBAgQIECAQPEEWlpaNg4MDOxMufPCBFhzi9jW1lZOeTH1RoAAAQIECBAgQIAAAQIECBRPIB4fTD7fSb7BQ2/bjo6OH83Ozp5VvFtZxwQIECBAgAABAgQIECBAgECiAtdEgJX8md+FCrC6urrOmp6e/lGiN6y2CBAgQIAAAQIECBAgQIAAgYIJxPlXvx3nX/116m0XKsBau3btssbGxvHUF1V/BAgQIECAAAECBAgQIECAQDEE4vyr7jj/aij1bgsVYM0tZnt7+2C8jbAr9YXVHwECBAgQIECAAAECBAgQIJC2QOy+ujV2Xz0w7S7/u7vCBVhxDtbr4hysdxZhcfVIgAABAgQIECBAgAABAgQIpCtQKpX+eXh4+Cnpdvg/nRUuwIpzsNriHKzRIiyuHgkQIECAAAECBAgQIECAAIF0BVpbW8/t7+//frodFjjAmmu9ra3tp/HLiUVYYD0SIECAAAECBAgQIECAAAECaQrE2wcLszGpMI0eeqvGY4RfjMcIn57m7asrAgQIECBAgAABAgQIECBAIHWBeHxwdzw+eHrqff6iv0IGWBs2bGg/cODASFEWWZ8ECBAgQIAAAQIECBAgQIBAWgLx9sFHxNsH/y2tro7cTSEDrDmOeIywXJRF1icBAgQIECBAgAABAgQIECCQlkA8WbZ89+7dB9PqSoB1L4H29vZvlMvlxxZlofVJgAABAgQIECBAgAABAgQIJCNwVZx/dWYy3cyjkcLuwOru7t44NTX143kY+QoBAgQIECBAgAABAgQIECBAIDMCjY2NrxgZGflAZgqqQSGFDbDWrl27LBZ8vAbGpiBAgAABAgQIECBAgAABAgQIVExg5cqVJ1555ZW3VGzAHAxU2ABrbm3iHKyvxi9PyME6KZEAAQIECBAgQIAAAQIECBAgMCdwfTw+eFrRKAodYHV0dFwYh559umiLrl8CBAgQIECAAAECBAgQIEAgnwLxNNk74/HB381n9YuvutAB1ubNm5uuu+66uRP7S4sndCUBAgQIECBAgAABAgQIECBAoDYCvb29rdu2bZuszWzZmaXQAdbcMsTbCK+PtxGemp0lUQkBAgQIECBAgAABAgQIECBA4N4CDQ0N06Ojo81FtCl8gBVvI/yteBvhp4q4+HomQIAAAQIECBAgQIAAAQIE8iPQ1NT0lqGhoa35qbhylRY+wJqjjMPcy5UjNRIBAgQIECBAgAABAgQIECBAoPICra2tp/T3999c+ZGzP6IAK9YoDnMfi8PcT8/+cqmQAAECBAgQIECAAAECBAgQKKJAPD54Szw+eFL0XshNOAKsWPl4jPBp8Rjhl4r4G0DPBAgQIECAAAECBAgQIECAQPYFivr2wV+sjAArJM4888zVd9xxx39m/3ZVIQECBAgQIECAAAECBAgQIFBQga6xsbHhgvZ+jADrzpWPtxH+R7yNsLeoN4K+CRAgQIAAAQIECBAgQIAAgcwK7I3walVmq6tBYQKs/wmwXhUB1ntrYG4KAgQIECBAgAABAgQIECBAgMC8BeLxwY+NjIy8cN4XJPhFAdadi7ply5ZSX1/fVPwlkwRvdC0RIECAAAECBAgQIECAAIG8Cjz3uc9t3rp163Re669E3cKaQxTjbYS3xNsIH1gJWGMQIECAAAECBAgQIECAAAECBJYqEG8fPBBvH1yx1HHyfr0A65AV7OzsfNTMzMy38r6o6idAgAABAgQIECBAgAABAgSSEfidOP/qL5PpZpGNCLDuAdfW1lZepKXLCBAgQIAAAQIECBAgQIAAAQIVFWhqajp1aGjoxooOmsPBBFj3WLR4jPCb8RjhY3K4lkomQIAAAQIECBAgQIAAAQIE0hIYit1X3Wm1tLhuBFj3cOvq6nr89PT01xbH6SoCBAgQIECAAAECBAgQIECAQGUESqXSm4aHh/+kMqPlexQB1j3Wr7e3t3nPnj374m8vy/fSqp4AAQIECBAgQIAAAQIECBDIsUB59erVx/X19R3IcQ8VK12AdRjK9vb2S8vl8vkVUzYQAQIECBAgQIAAAQIECBAgQGBhAvvi8cGVC7sk3W8LsA6ztvE2wk3xNsIr0112nREgQIAAAQIECBAgQIAAAQJZFojD2x8fh7d/I8s11rI2AdYRtL2NsJa3obkIECBAgAABAgQIECBAgACBQwVi95XM5hAQGEf4/RG7sN4fu7Be7rcPAQIECBAgQIAAAQIECBAgQKCWAg0NDV8ZHR19Ui3nzPpcAqwjrNApp5xy7LJly+7I+gKqjwABAgQIECBAgAABAgQIEEhLIB4ffFQ8PvidtLpaWjcCrCP7NXR0dNwwOzt7ytKIXU2AAAECBAgQIECAAAECBAgQmJ9A7L66/aEPfejqbdu2zczvimJ8S4B1H+scAdYrI8D662LcCrokQIAAAQIECBAgQIAAAQIE6i0QAdbn4vHB36h3HVmbX4B1HysSB7nPva7yP+PTmLWFUw8BAgQIECBAgAABAgQIECCQnkBra+sp/f39N6fX2dI6EmAdxS92Ye2IXVhnLo3Z1QQIECBAgAABAgQIECBAgACB+xaI3VczsfuqidO9BQRYR7krurq6Hjc9Pf11Nw8BAgQIECBAgAABAgQIECBAoJoCcXj78+Pw9k9Uc468ji3AmsfKxaOE5Xl8zVcIECBAgAABAgQIECBAgAABAosWWL58eeuuXbsmFz1AwhcKsOaxuO3t7Z8sl8sXzeOrvkKAAAECBAgQIECAAAECBAgQWLBAPD74rXh8cPOCLyzIBQKseSx0T0/PyePj4w5Qm4eVrxAgQIAAAQIECBAgQIAAAQILF2hsbDx/ZGTk8oVfWYwrBFjzXOfYhXVN7MJaO8+v+xoBAgQIECBAgAABAgQIECBAYF4CsftqX4RXq+JXRxgdQUyANa9b6ZhjIsB6VQRY753n132NAAECBAgQIECAAAECBAgQIDAvgdh99akIsJ47ry8X9EsCrHku/ObNm5uuv/768QixvM5ynma+RoAAAQIECBAgQIAAAQIECBxdwOHtRzcSYB3d6K5vxC6s/4gAq3cBl/gqAQIECBAgQIAAAQIECBAgQOCIAvHY4M/j8PYTEN23gABrAXdId3f3KVNTUzcu4BJfJUCAAAECBAgQIECAAAECBAgcUaBUKj16eHj424gEWBW9B2IX1sHYhdVa0UENRoAAAQIECBAgQIAAAQIECBROIHZfTcfnuDj/aqJwzS+wYTuwFgjW2dn50pmZmQ8u8DJfJ0CAAAECBAgQIECAAAECBAjcTSB2X30sdl+9EMvRBQRYRze62zfWrl27Kt4OsGeBl/k6AQIECBAgQIAAAQIECBAgQOBuAk1NTe1DQ0NjWI4uIMA6utG9vhGPEV4WjxH+6iIudQkBAgQIECBAgAABAgQIECBAYE7g5rGxsVNQzE9AgDU/p7t9a/369b88MTHxvUVc6hICBAgQIECAAAECBAgQIECAwDEtLS3PGhgY+AKK+QkIsObndK9vtbW1HYy/6TD3Rfq5jAABAgQIECBAgAABAgQIFFkgdl/JZBZwA8BaANahX+3o6Hjt7OzsuxZ5ucsIECBAgAABAgQIECBAgACBggrEmwc/ODo6+vKCtr+otgVYi2L774tiF1Z5CZe7lAABAgQIECBAgAABAgQIECigQARYp0WAdX0BW190ywKsRdMdc0wc5v65OMz92UsYwqUECBAgQIAAAQIECBAgQIBAgQQivOqL8OphBWq5Iq0KsJbAGI8R9sRjhFctYQiXEiBAgAABAgQIECBAgAABAgUSiADrGRFgfalALVekVQHWEhljF9ZQ7MLqXOIwLidAgAABAgQIECBAgAABAgTSF5iKw9tb0m+z8h0KsJZoGudg/e8Y4mNLHMblBAgQIECAAAECBAgQIECAQPoC74gA6w3pt1n5DgVYFTB1mHsFEA1BgAABAgQIECBAgAABAgQSF4jwSg6zyDUGt0i4Qy/r7Oz8wMzMzMsqMJQhCBAgQIAAAQIECBAgQIAAgQQFSqXSV4aHh5+UYGs1aUmAVQHmnp6elvHx8YkKDGUIAgQIECBAgAABAgQIECBAIEGBOD/7rGuuuWZHgq3VpCUBVoWY442El8cbCZ9YoeEMQ4AAAQIECBAgQIAAAQIECCQiEG8eHI43D3Yl0k5d2hBgVYi9q6vrnOnp6R9UaDjDECBAgAABAgQIECBAgAABAokINDY2XjQyMvLpRNqpSxsCrAqyx2Hu18Vwayo4pKEIECBAgAABAgQIECBAgACBnAs4vH3pCyjAWrrhXSPELqznxS6sv6ngkIYiQIAAAQIECBAgQIAAAQIEciwQh7e/NQ5vf3OOW8hE6QKsCi9D7MKajSG5VtjVcAQIECBAgAABAgQIECBAII8Cq1evbunr65vKY+1ZqlnQUuHV6OzsfNPMzMwfV3hYwxEgQIAAAQIECBAgQIAAAQI5E4jD2z8bh7c/J2dlZ7JcAVaFl6Wnp+e48fHx2ys8rOEIECBAgAABAgQIECBAgACB/Al0xflXw/krO3sVC7CqsCbt7e1/Wy6XJaxVsDUkAQIECBAgQIAAAQIECBDIg0DsvtoVu6825KHWPNQowKrCKsUurI7YhTUUQ/Otgq8hCRAgQIAAAQIECBAgQIBA1gVaW1vP7e/v/37W68xLfQKWKq1UHOZ+bQx9WpWGNywBAgQIECBAgAABAgQIECCQXYFyPDrYmN3y8leZAKtKa7Z+/foNExMTO6s0vGEJECBAgAABAgQIECBAgACBjAo0NjY+dWRk5JKMlpfLsgRYVVy22IV1Wwy/sopTGJoAAQIECBAgQIAAAQIECBDIlsCB1atXr+rr65vKVln5rkaAVcX1O+OMM847ePDgt6s4haEJECBAgAABAgQIECBAgACBDAmUSqU/HB4efluGSkqiFAFWFZdxy5YtpSuuuOKWeCPh6ipOY2gCBAgQIECAAAECBAgQIEAgAwLx5sHJNWvWrNy+ffvBDJSTVAkCrCovZzxG+IaY4s+qPI3hCRAgQIAAAQIECBAgQIAAgToLRIC1bXR09Nl1LiPJ6QVYNVjW9vb2qdiF1VSDqUxBgAABAgQIECBAgAABAgQI1Ekg3jwoZ6mSPdgqwR46bARYH4oA6yU1mMoUBAgQIECAAAECBAgQIECAQB0EYvfVZbH76oI6TF2IKQVYtVnmhniUcLY2U5mFAAECBAgQIECAAAECBAgQqIPAQ2IH1nV1mLcQUwqwarTMEWB9IKZ6WY2mMw0BAgQIECBAgAABAgQIECBQI4HYffWt2H21uUbTFXIaAVaNln3Dhg0nHThw4OaYjnmNzE1DgAABAgQIECBAgAABAgRqIdDS0rJxYGBgZy3mKuocwpQarnychXVpnIV1fg2nNBUBAgQIECBAgAABAgQIECBQRYHYfbU3dl+tquIUhg4BAVYNb4MIsE6MAOunNZzSVAQIECBAgAABAgQIECBAgEAVBVpbW9f29/dfW8UpDC3Aqv090NHR0T87O7uu9jObkQABAgQIECBAgAABAgQIEKikQOy+uj52X51WyTGNdXgBO7BqfGdEgNUaAdbBGk9rOgIECBAgQIAAAQIECBAgQKDCAk1NTY8aGhr6ToWHNdxhBARYdbgt4lHC78ajhL9Sh6lNSYAAAQIECBAgQIAAAQIECFRGYPfY2NjplRnKKEcTEGAdTagK/7yrq+us6enpH1VhaEMSIECAAAECBAgQIECAAAECNRCI3VfPiN1XX6rBVKYIAQFWnW6D2IW1M3ZhbajT9KYlQIAAAQIECBAgQIAAAQIEFi8wE7uvmhZ/uSsXKiDAWqhYhb6/YcOG9QcOHLi6QsMZhgABAgQIECBAgAABAgQIEKiRQOy+Oi92X/1rjaYzTQgIsOp4G7S1tf00pj+xjiWYmgABAgQIECBAgAABAgQIEFiAQLx5cF+8eXBVXFJewGW+ukQBAdYSAZdy+caNG0/dv3//9UsZw7UECBAgQIAAAQIECBAgQIBA7QSam5ufPTg4uK12M5ppTkCAVef7IM7C6ouzsB5a5zJMT4AAAQIECBAgQIAAAQIECBxd4Kdx9tWD4mt2Xx3dqqLfEGBVlHPhg8UbCc+JNxL+YOFXuoIAAQIECBAgQIAAAQIECBCopYDdV7XUvvtcAqz62d81c+zCGopdWJ0ZKEUJBAgQIECAAAECBAgQIECAwOEFDsbuq+Vw6iMgwKqP+91mPfvssx+yd+/e3RkoRQkECBAgQIAAAQIECBAgQIDAYQSWLVv2qKuvvvo7cOojIMCqj/u9Zo03El4Tf3NtRspRBgECBAgQIECAAAECBAgQIHCnQGNj489HRkZOjL909lWd7goBVp3g7znthg0b2g8cODCSkYxFAEIAACAASURBVHKUQYAAAQIECBAgQIAAAQIECNwp0NTU9MyhoaEvAqmfgACrfvb3mjnOwtoeZ2E9OkMlKYUAAQIECBAgQIAAAQIECBRdYO7NgycXHaHe/Quw6r0Ch8y/fv36h0xMTOzOUElKIUCAAAECBAgQIECAAAEChRZYvnz52bt27fpRoREy0LwAKwOLcGgJsQurL3ZhPTRjZSmHAAECBAgQIECAAAECBAgUTqChoeGG0dHRNYVrPIMNC7Aytihr165dFofDjWesLOUQIECAAAECBAgQIECAAIEiCmyMxwd3FrHxrPUswMraikQ9nZ2dfzczM/MbGSxNSQQIECBAgAABAgQIECBAoBACsfvq32P31TmFaDYHTQqwMrhIp59++knxG+XGKK2UwfKURIAAAQIECBAgQIAAAQIEUhcot7S0nDUwMGD3VUZWWoCVkYW4ZxkdHR2fmJ2dfW5Gy1MWAQIECBAgQIAAAQIECBBIViCO9hkeGRnpSrbBHDYmwMroom3durXxk5/85ExGy1MWAQIECBAgQIAAAQIECBBIVuC0005r3r59+3SyDeawMQFWhhct3kj4h/FGwrdmuESlESBAgAABAgQIECBAgACBpARi99UnY/fV85JqKoFmBFjZXsSGtra2uV1Y1inb66Q6AgQIECBAgAABAgQIEEhEYMWKFfffuXPnnkTaSaYNwUjGl7K7u/sFU1NTH814mcojQIAAAQIECBAgQIAAAQK5F4gXqn0w3jz48tw3kmADAqyML+qWLVtKfX19N0SZJ2e8VOURIECAAAECBAgQIECAAIFcC6xevbolfgafynUTiRYvwMrBwsYurPNjF9alOShViQQIECBAgAABAgQIECBAIJcCTU1NLx4aGvpILosvQNECrJwscpyFdXOUahdWTtZLmQQIECBAgAABAgQIECCQK4E9Y2NjD4iKy7mqukDFCrBystjxRsI18UbC63JSrjIJECBAgAABAgQIECBAgEBuBOLNg0+NNw9ekpuCC1ioACtHi97R0fGV2dnZC3JUslIJECBAgAABAgQIECBAgECmBeLg9uE4uL0r00Uq7hgBVo5ugq6urgdPT09fGyWXclS2UgkQIECAAAECBAgQIECAQGYFWltbz+zv778qswUq7L8EBFg5uxHiLKxtUfKv56xs5RIgQIAAAQIECBAgQIAAgcwJxO6rnbH7amPmClPQvQQEWDm8KSLEmomyG3NYupIJECBAgAABAgQIECBAgEBWBMpx9tWqOPtqX1YKUseRBQRYObw74lHCi+JRwk/msHQlEyBAgAABAgQIECBAgACBTAiUSqX3DA8PvzYTxSjiqAICrKMSZfILDbEL6ydR2YmZrE5RBAgQIECAAAECBAgQIEAg2wIHe3t7j9u2bdvcE07+yIGAACsHi3S4EuONhE+MNxJentPylU2AAAECBAgQIECAAAECBOom0NTU9MqhoaH3160AEy9YQIC1YLLsXBC7sHZHNQ/JTkUqIUCAAAECBAgQIECAAAEC2RaIg9v3x8Htx2e7StXdU0CAleN74u///u9Lb3zjG6dz3ILSCRAgQIAAAQIECBAgQIBATQWWL1/es2vXrqtrOqnJliwgwFoyYX0HiF1Y74sKXlHfKsxOgAABAgQIECBAgAABAgRyIfCNsbGxx+eiUkXeTUCAlfMbIg6dO3bPnj0/jzaW57wV5RMgQIAAAQIECBAgQIAAgWoKzLa0tJw4MDBwazUnMXZ1BARY1XGt6ajt7e2vKpfL763ppCYjQIAAAQIECBAgQIAAAQI5EmhsbPzIyMjIi3NUslIPERBgJXI7xKOEd0QrxybSjjYIECBAgAABAgQIECBAgEAlBSbi0cFllRzQWLUVEGDV1rtqs51zzjkP+Hn8UbUJDEyAAAECBAgQIECAAAECBHIq0NTU9GtDQ0OX5rR8ZYeAACuh2yAeJfxSPEr4tIRa0goBAgQIECBAgAABAgQIEFiSQENDw47R0dGzljSIi+suIMCq+xJUroCenp77j4+P3xQjtlZuVCMRIECAAAECBAgQIECAAIH8CsTB7afHwe2789uByucEBFiJ3QednZ1/ODMz89bE2tIOAQIECBAgQIAAAQIECBBYsEDsvtoWu6+eveALXZA5AQFW5pZk6QXFo4S3x6OExy19JCMQIECAAAECBAgQIECAAIHcCozHwe0rovpybjtQ+F0CAqwEb4Z4I2FntDWUYGtaIkCAAAECBAgQIECAAAEC8xJobGzcMjIy8vl5fdmXMi8gwMr8Ei2uwNiF9cXYhfX0xV3tKgIECBAgQIAAAQIECBAgkGuBgdh9tT7XHSj+bgICrERviE2bNq3at2/fT6I9B7onusbaIkCAAAECBAgQIECAAIHDCzQ3Nz94cHBw7iVn/khEQICVyEIero2Ojo5Xzs7O/nXCLWqNAAECBAgQIECAAAECBAjcU+DdsfvqdVjSEhBgpbWe9+omQqzbIsRamXib2iNAgAABAgQIECBAgAABAsfEWwcPrFmzZuX27duncaQlIMBKaz3v1c26devWTk5OXpN4m9ojQIAAAQIECBAgQIAAAQJzAdYFo6Ojl6FIT0CAld6a3qujeCvhR+JvvrAArWqRAAECBAgQIECAAAECBAoqEOHVzgivNha0/eTbFmAlv8THHLN169bGT37yk3dEq8sK0K4WCRAgQIAAAQIECBAgQKCAAr29vU3btm2bKWDrhWhZgFWIZT7mmDgLa3OchfUvBWlXmwQIECBAgAABAgQIECBQIIGmpqaXDA0NXVyglgvXqgCrQEseIdb3IsT65QK1rFUCBAgQIECAAAECBAgQSFwgHh0ci0cHO6LNcuKtFro9AVaBlr+rq+uB09PTN0bLLQVqW6sECBAgQIAAAQIECBAgkK7AbKlU2jA8PNyfbos6mxMQYBXsPogQ63URYr2zYG1rlwABAgQIECBAgAABAgQSFIjw6mMRXnlpWYJre8+WBFgFWOR7ttje3j5VLpebCti6lgkQIECAAAECBAgQIEAgHYHZsbGxUjrt6OS+BARYBbw/Nm7cuGJ//FHA1rVMgAABAgQIECBAgAABAokINDY2njsyMvL9RNrRxlEEBFgFvUXiQPc/igPdtxa0fW0TIECAAAECBAgQIECAQI4FIrz6pwivnpbjFpS+QAEB1gLBUvp6W1vbTdHPg1LqSS8ECBAgQIAAAQIECBAgkLzAbLx1sCnePuitg8kv9f80KMAq0GLfs9Uzzjij5+DBg1cVmEDrBAgQIECAAAECBAgQIJAzgeXLl5+3a9euf81Z2cpdooAAa4mAeb88HiX8cDxK+OK896F+AgQIECBAgAABAgQIEEhfIB4dvDweHTw//U51eE8BAVbB74ktW7aU+vr6bg2GlQWn0D4BAgQIECBAgAABAgQIZFtgIso7Kd48uDfbZaquGgICrGqo5mzM9vb2R5TLZdsvc7ZuyiVAgAABAgQIECBAgECRBGL31XNj99WnitSzXv9HQIDlbvgvgTjQ/ZL45ck4CBAgQIAAAQIECBAgQIBA1gTiwPaxOLi9PWt1qad2AgKs2llnfqYIsQ5EkcszX6gCCRAgQIAAAQIECBAgQKBIApNxdvPK3bt3HyxS03q9u4AAyx1xl0BXV9dZ09PTP0JCgAABAgQIECBAgAABAgSyIhCPDv5WPDr4mazUo476CAiw6uOe2VnjPKy/ifOwnpfZAhVGgAABAgQIECBAgAABAoURiEcHr45HB3sK07BGjyggwHJz3E3gzrcSzr3RYQUaAgQIECBAgAABAgQIECBQR4Hyaaed1rJ9+/bpOtZg6owICLAyshBZKqOnp6djfHx8OEs1qYUAAQIECBAgQIAAAQIEiiXQ0tJy/sDAwOXF6lq3RxIQYLk3DivQ2dn5npmZmdfgIUCAAAECBAgQIECAAAECtRaIc68uj3Ovzq/1vObLroAAK7trU9fKent7m/fs2TMaRaypayEmJ0CAAAECBAgQIECAAIGiCRxcvXr1A/r6+g4UrXH9HllAgOXuOKJAR0dHe7yqdAQRAQIECBAgQIAAAQIECBColUDsvuqN3VdX1Go+8+RDQICVj3WqW5VdXV3vmp6efm3dCjAxAQIECBAgQIAAAQIECBRGIMKrf4jw6tcL07BG5y0gwJo3VXG/2NbWNnege0dxBXROgAABAgQIECBAgAABAjUQuGVycvIhN9xww3gN5jJFzgQEWDlbsHqUu379+gdNTEzcGHO7X+qxAOYkQIAAAQIECBAgQIBAAQQaGhrOHB0dvaoArWpxEQICiUWgFfGS7u7u10xNTb2niL3rmQABAgQIECBAgAABAgSqK1AqlT48PDz80urOYvQ8Cwiw8rx6Na49HiX8UUx5Vo2nNR0BAgQIECBAgAABAgQIpC2we2xs7PS0W9TdUgUEWEsVLND1vb29zXv27JmIlt03BVp3rRIgQIAAAQIECBAgQKCaAs3NzQ8eHBy8qZpzGDv/AoKI/K9hTTvo6Oj41dnZ2ctqOqnJCBAgQIAAAQIECBAgQCBJgXjr4OvirYPvTrI5TVVUQIBVUc5iDBYh1rYIsbzWtBjLrUsCBAgQIECAAAECBAhURSAObb8qDm0/syqDGzQ5AQFWcktam4biPKy515ouq81sZiFAgAABAgQIECBAgACBxASmVq9evaKvr28qsb60UyUBAVaVYFMfNt5KeEq8lfD66LMx9V71R4AAAQIECBAgQIAAAQIVFSjHWwc3x1sHv13RUQ2WtIAAK+nlrW5znZ2dr5mZmXlPdWcxOgECBAgQIECAAAECBAikJBDh1ccjvHpBSj3ppfoCAqzqGyc9Q3t7+65yuXxG0k1qjgABAgQIECBAgAABAgQqJbBnbGzs/pUazDjFERBgFWetq9Lpli1bSldcccWBCLFaqjKBQQkQIECAAAECBAgQIEAgFYGZpqamk4eGhn6eSkP6qJ2AAKt21snO1NXVddb09PSPkm1QYwQIECBAgAABAgQIECBQCYHfit1Xn6nEQMYonoAAq3hrXpWO41HCd8QurN+ryuAGJUCAAAECBAgQIECAAIFcCzQ0NHx9dHT0CbluQvF1FRBg1ZU/rck7OjpumJ2dfXBaXemGAAECBAgQIECAAAECBJYiEOHVbRFerV7KGK4lIMByD1RSoKGtrW22kgMaiwABAgQIECBAgAABAgTyLdDY2LhmZGTkhnx3ofp6Cwiw6r0Cic0fu7A2xy6sf0msLe0QIECAAAECBAgQIECAwCIEIrx6VYRX71vEpS4hcDcBAZYbouICnZ2dH5iZmXlZxQc2IAECBAgQIECAAAECBAjkRiDCq3+L8OoRuSlYoZkWEGBlennyW1yEWLdFiLUyvx2onAABAgQIECBAgAABAgQWKxDh1R0RXh232OtdR+CeAgIs90RVBHp6elrGx8dvi8GXV2UCgxIgQIAAAQIECBAgQIBAJgXi0Pbp5cuXr7vqqqtGM1mgonIpIMDK5bLlo+iurq7zpqenv52PalVJgAABAgQIECBAgAABApUQKJVKLxgeHv54JcYyBoFfCAiw3AtVFYhD3d8Xh7q/oqqTGJwAAQIECBAgQIAAAQIEMiEQu6++NTo6ujkTxSgiKQEBVlLLmc1m2tvbd5TL5TOzWZ2qCBAgQIAAAQIECBAgQKBCAteOjY21x1gzFRrPMATuEhBguRmqLrB27dplcYDff8ZEzsOqurYJCBAgQIAAAQIECBAgUHuBuXOvVqxY8eAdO3b8rPazm7EIAgKsIqxyBnqMRwnPjkcJ/yNKacxAOUogQIAAAQIECBAgQIAAgcoKPCV2X/1zZYc0GoH/ERBguRtqJtDZ2fnSmZmZD9ZsQhMRIECAAAECBAgQIECAQNUF4tD2d8Sh7W+o+kQmKLSAAKvQy1/75tva2r4cs/5a7Wc2IwECBAgQIECAAAECBAhUWiCOi/nxyMjIpkqPazwC9xQQYLknairQ29vbfNttt43Eoe6n1XRikxEgQIAAAQIECBAgQIBApQUOHHfccSfGuVd3VHpg4xEQYLkH6i6wcePGE/fv339TFFKqezEKIECAAAECBAgQIECAAIFFCTQ3N7cNDg5es6iLXURggQJ2YC0QzNcrI9DV1dU2PT09WpnRjEKAAAECBAgQIECAAAECtRSIc6+eFedefaGWc5qr2AICrGKvf127jzcT/p94M+Hb6lqEyQkQIECAAAECBAgQIEBgQQJx7tWn49yrixZ0kS8TWKKAAGuJgC5fkkBDhFjfjBBr85JGcTEBAgQIECBAgAABAgQI1Epgz9jY2ANjstlaTWgeAnMCAiz3Qd0F4s2Ecwf+HVv3QhRAgAABAgQIECBAgAABAvclMBHh1TJEBOohIMCqh7o57ybQ3d19fJyHdWu8mbAZDQECBAgQIECAAAECBAhkUmA2Dm0/Ow5t35HJ6hSVvIAAK/klzkeDcaj7eRFifTsf1aqSAAECBAgQIECAAAECxRKIQ9tfEIe2f7xYXes2SwICrCytRsFrifOw/ijOw9pacAbtEyBAgAABAgQIECBAIFMCDQ0Nnx0dHX1OpopSTOEEBFiFW/JsN9zZ2fkPMzMzz8x2laojQIAAAQIECBAgQIBAMQTijYPfjzcO/kp0Wy5Gx7rMqoAAK6srU9y6Gtrb28fiPKy1xSXQOQECBAgQIECAAAECBDIhsPe000574Pbt26czUY0iCi0gwCr08mez+Xgr4cqo7Mb4rMhmhaoiQIAAAQIECBAgQIBA8gLl5cuXn7Jr166fJN+pBnMhIMDKxTIVr8j169c/ZGJiYnfxOtcxAQIECBAgQIAAAQIE6i8Qjw7+Sjw6+L36V6ICAv8tIMByJ2RWIEKsR0WI9a3MFqgwAgQIECBAgAABAgQIJCjQ1NT0+qGhoXcl2JqWciwgwMrx4hWh9DgP64/jPKw3FaFXPRIgQIAAAQIECBAgQKDeAvHGwS/EGwefVe86zE/gngICLPdE5gUixPpOhFiPzHyhCiRAgAABAgQIECBAgECOBeKxwYF4bHB9jltQesICAqyEFzel1jo6Om6YnZ19cEo96YUAAQIECBAgQIAAAQJZEYidV7fF5+QIsCayUpM6CBwqIMByP+RCIAKs+0WANRrFPjAXBSuSAAECBAgQIECAAAEC+RGYid1XayO8uiE/Jau0aAICrKKteI77jRDrhAixfpbjFpROgAABAgQIECBAgACBzAm0trau7e/vvzZzhSmIwCECAiy3Q64E4s2EnfFmwsEo2r2bq5VTLAECBAgQIECAAAECWRRobm5+9uDg4LYs1qYmAocKCAHcD7kTaGtre0EU/dHcFa5gAgQIECBAgAABAgQIZEggzrz6i3jj4O9nqCSlEDiigADLzZFLgc7Ozo/NzMz871wWr2gCBAgQIECAAAECBAjUWSDOvLoizrzqrXMZpicwbwEB1rypfDFrAu3t7V8vl8uPy1pd6iFAgAABAgQIECBAgEDGBX48NjZ2dtRYznidyiNwl4AAy82QZ4FSPE74vWjgl/LchNoJECBAgAABAgQIECBQQ4GbDx482HHTTTcdqOGcpiKwZAEB1pIJDVBvgQix9kQNq+pdh/kJECBAgAABAgQIECCQcYHZOPOqKc6+svMq4wulvHsLCLDcFbkX2Lhx44r9+/ffGo205r4ZDRAgQIAAAQIECBAgQKAKAhFaTa9YseL0HTt23FCF4Q1JoOoCAqyqE5ugFgIdHR3ts7OzwzGXe7oW4OYgQIAAAQIECBAgQCBXAnFo+2Pi0PbtuSpasQQOEfDDvtshGYGurq7zpqenvyXESmZJNUKAAAECBAgQIECAQAUEIry6KMKrT1dgKEMQqJuAAKtu9CauhsC6det+c3Jy8jPVGNuYBAgQIECAAAECBAgQyJtAqVR60/Dw8J/krW71EringADLPZGcQHt7+6vK5fJ7k2tMQwQIECBAgAABAgQIEFiAQOy8+mjsvHpxXOLQ9gW4+Wo2BQRY2VwXVS1RIEKsiyPEetESh3E5AQIECBAgQIAAAQIEcikQh7Z/P944eG4ui1c0gcMICLDcFskKxMHuX42D3Z+QbIMaI0CAAAECBAgQIECAwOF+0G9ouCLCq144BFISEGCltJp6uZdA7MT6j9iJ5V/c7g0CBAgQIECAAAECBAohEDuvblizZs3p27dvny5Ew5osjIAAqzBLXcxGt2zZUrriiiuujhCrq5gCuiZAgAABAgQIECBAoCgCEV7dvmrVqgf09fVNFaVnfRZHQIBVnLUubKfxKGFrBFg/j89xhUXQOAECBAgQIECAAAECqQuMH3fccSfs2LHjjtQb1V8xBQRYxVz3wnU9F2JF07fHmVjNhWtewwQIECBAgAABAgQIpC4w29raemp/f//NqTeqv+IKCLCKu/aF6zzOw1oTu7AGo/HlhWtewwQIECBAgAABAgQIJCvQ1NS0aWho6MfJNqgxAiEgwHIbFEogdmKdGruwri9U05olQIAAAQIECBAgQCBZgcbGxoeOjIxcmWyDGiNwp4AAy61QOIGNGzeevn///uFovFS45jVMgAABAgQIECBAgEAqAuVSqfSU4eHhL6fSkD4I3JeAAMv9UUiB2Im1OXZifSOabywkgKYJECBAgAABAgQIEMi1QOy8em7svPpUrptQPIEFCAiwFoDlq2kJdHZ2PnxmZub7aXWlGwIECBAgQIAAAQIEUheI8OqiCK8+nXqf+iNwqIAAy/1QaIEIsZ4ZIdbnA8HvhULfCZonQIAAAQIECBAgkA+BCK+2Rnj1lnxUq0oClRPwQ3vlLI2UU4F4O+GL4+2EH85p+comQIAAAQIECBAgQKAgAhFevT3Cq/9bkHa1SeBuAgIsNwSBEIgzsS6MM7FswXU3ECBAgAABAgQIECCQSYEIr/4swqs/yGRxiiJQAwEBVg2QTZEPgXic8PfjccI/z0e1qiRAgAABAgQIECBAoCgCEV59PMKrFxSlX30SOJyAAMt9QeAQgXic8I/jccI3QSFAgAABAgQIECBAgEAWBCK8+tsIry7MQi1qIFBPAQFWPfXNnUmBeJzwXfE44WszWZyiCBAgQIAAAQIECBAojEBDQ8M/jo6OPr0wDWuUwH0ICLDcHgQOIxCPE/5lPE74ajgECBAgQIAAAQIECBCoh0CEV1+O8OrJ9ZjbnASyKCDAyuKqqCkTAvE44QficcKXZaIYRRAgQIAAAQIECBAgUBiBCK8ui/DqgsI0rFEC8xAQYM0DyVeKKxCPE340Hid0WGJxbwGdEyBAgAABAgQIEKipQIRXX4/w6gk1ndRkBHIgIMDKwSIpsb4CEWJ9OEKsF9e3CrMTIECAAAECBAgQIJC6QIRX34zw6nGp96k/AosREGAtRs01hROIEOtTEWL9VuEa1zABAgQIECBAgAABAjURiLcNbo+3DT6mJpOZhEAOBQRYOVw0JddHoK2t7aMxs8cJ68NvVgIECBAgQIAAAQIpC3x9bGzMY4Mpr7DeliwgwFoyoQGKJBA7sd4XO7FeUaSe9UqAAAECBAgQIECAQPUE4rHBy+OxwfOrN4ORCaQhIMBKYx11UUOBCLHeHyHWy2s4pakIECBAgAABAgQIEEhQIMKrL0d49eQEW9MSgYoLCLAqTmrAIgjE44Tvij5fW4Re9UiAAAECBAgQIECAQOUFIrz6pwivnlb5kY1IIE0BAVaa66qrGgi0t7e/rVwu/58aTGUKAgQIECBAgAABAgQSEojw6rMRXj0noZa0QqDqAgKsqhObIGWBrq6u105PT8/txvIHAQIECBAgQIAAAQIEjioQbxv8SLxt8MVH/aIvECBwNwEBlhuCwBIF7gyx3hnD+P20REuXEyBAgAABAgQIEEhZoFQqfWB4eNhLoVJeZL1VTcAP3FWjNXCRBDo7O58/MzPz8SL1rFcCBAgQIECAAAECBOYvEOHVmyO8euv8r/BNAgQOFRBguR8IVEhg/fr1T5qYmLgkhvP7qkKmhiFAgAABAgQIECCQgkBzc/ObBgcH/ySFXvRAoF4CftCul7x5kxSIg92fEQe7fz6aa0yyQU0RIECAAAECBAgQILAggTjz6nVx5tW7F3SRLxMgcC8BAZabgkCFBXp6es4aHx//UYWHNRwBAgQIECBAgAABAjkTiJ1XT4+dV/+Ys7KVSyCTAgKsTC6LovIusGHDhvUHDhyYC7Fa8t6L+gkQIECAAAECBAgQWLDAbFNT07OGhoa+tOArXUCAwGEFBFhuDAJVEujo6OiZnZ3dGcP7fVYlY8MSIECAAAECBAgQyKJAPDa4OR4b/FYWa1MTgbwK+ME6ryun7lwIxOOEx8XjhHujWGdi5WLFFEmAAAECBAgQIEBgSQLleGxwfTw2OLikUVxMgMC9BARYbgoCVRY488wzV99xxx0DMc2JVZ7K8AQIECBAgAABAgQI1E9gorW1tbu/v//a+pVgZgLpCgiw0l1bnWVIYOPGjSv2798/EiWdnKGylEKAAAECBAgQIECAQGUE9qxevfr0vr6+uacv/EGAQBUEBFhVQDUkgSMINLS1tfXHP+smRIAAAQIECBAgQIBAMgI/X758+YN37do1mUxHGiGQQQEBVgYXRUnpCpTL5YY43P1r8evj0u1SZwQIECBAgAABAgQKIzAwOjp6RkNDQ7kwHWuUQJ0EBFh1gjdtsQUixHp/vKHw5cVW0D0BAgQIECBAgACB/ArEmwYvizcNPik6mM1vFyonkB8BAVZ+1kqliQl0dna+dWZm5g8Ta0s7BAgQIECAAAECBJIXKJVKlwwPDz81+UY1SCBDAgKsDC2GUoon0N7e/tJ4nPCDxetcxwQIECBAgAABAgTyKRCPC74tHhv0f0Tnc/lUnWMBAVaOF0/paQicfvrp58V/BL+dRje6IECAAAECBAgQIJCuQPzv9udHePWJdDvUGYHsCgiwwrqEiwAAIABJREFUsrs2KiuQQFdX17p4nHBH7MZqLlDbWiVAgAABAgQIECCQF4GZCK8eFeHVv+WlYHUSSE1AgJXaiuontwKbNm1adfvttw9FiHVCbptQOAECBAgQIECAAIHEBCK42h9nXv3S0NDQQGKtaYdArgQEWLlaLsWmLrB58+Zl119//WCEWKel3qv+CBAgQIAAAQIECORAYOaEE064/w9+8IN9OahViQSSFhBgJb28msurQEdHx7/Pzs4+LK/1q5sAAQIECBAgQIBA3gVi59VQPDLYnfc+1E8gFQEBViorqY/UBBo6OzvfF+divTy1xvRDgAABAgQIECBAIOsCjY2Nl69cufIpfX19U1mvVX0EiiIgwCrKSuszlwIRYv12hFh/lcviFU2AAAECBAgQIEAghwJxnMdfXXPNNa/JYelKJpC0gAAr6eXVXAoC8Tjho+Nxwq9FL95QmMKC6oEAAQIECBAgQCCrArOx8+rFIyMjH8tqgeoiUGQBAVaRV1/vuRFYv35958TExI4oeFluilYoAQIECBAgQIAAgRwJNDU1nRNvGvz3HJWsVAKFEhBgFWq5NZt3gdiNtS92Yx2f9z7UT4AAAQIECBAgQCArAnFY+8EIr04cHBy8PSs1qYMAgXsLCLDcFQRyJNDb29u8d+/er0aItTlHZSuVAAECBAgQIECAQCYFIrwaXLZs2cN27dq1P5MFKooAgbsEBFhuBgL5E2hob29/Rxwu+bv5K13FBAgQIECAAAECBLIhEOHV50ZHR58T1ZSzUZEqCBC4LwEBlvuDQE4Furu7nz01NfW3UX4ppy0omwABAgQIECBAgEBdBOKRwbfEeVdb6zK5SQkQWJSAAGtRbC4ikA2Btra2X4pKfhAfv5ezsSSqIECAAAECBAgQyLbA3G6rJ4+NjX0l22WqjgCBewr4odc9QSDnArET6/iZmZndcS7W/XPeivIJECBAgAABAgQIVFNgPB4b7I7HBq+v5iTGJkCgOgICrOq4GpVATQXiPKy5c7G+HZM+sqYTm4wAAQIECBAgQIBADgQiuBq76KKLOrdu3Tqbg3KVSIDAYQQEWG4LAgkJxCOFb4523pJQS1ohQIAAAQIECBAgsFSBj8cjgy+MQRzWvlRJ1xOoo4AAq474piZQDYF4pPCxcbj7N6oxtjEJECBAgAABAgQI5Emgubn5hYODgx/LU81qJUDg8AICLHcGgQQFNmzYcNKBAweujtaci5Xg+mqJAAECBAgQIEDgvgXikcH9LS0t5/b391/FigCBNAQEWGmsoy4I3Eugt7f32L179/5LHO5+Dh4CBAgQIECAAAECBRL4SQRYZ8Vh7T8rUM9aJZC8gAAr+SXWYNEFurq6PjU9Pf1bRXfQPwECBAgQIECAQPoCpVLpG8PDw49Pv1MdEiiegACreGuu4wIKxBsKnx5vKvxctN5SwPa1TIAAAQIECBAgkL5AubGx8XUjIyPvSb9VHRIopoAAq5jrrusCCmzcuPHU/fv3XxutNxawfS0TIECAAAECBAikK1COw9rXx2Htg+m2qDMCBARY7gECxRJo6Ojo+I84F+uhxWpbtwQIECBAgAABAokKXHPSSSf1fO973xtPtD9tESBwp4AAy61AoIACEWK9OUKstxSwdS0TIECAAAECBAgkIhCPDF4cjwy+JJF2tEGAwFEEBFhuEQIFFejp6TljfHx87rXC/j1Q0HtA2wQIECBAgACBvAo0NTU9aWho6Ct5rV/dBAgsXMAPrgs3cwWBZAQixDouQqwd0dDpyTSlEQIECBAgQIAAgWQFGhoafv6ABzxg3Q9/+MNbk21SYwQIHFZAgOXGIEDgmHik8H3xSOErUBAgQIAAAQIECBDIsMAlq1evflZfX99UhmtUGgECVRIQYFUJ1rAE8ibQ1dX1+Onp6a/lrW71EiBAgAABAgQIpC8Qbxl8Ubxk8KPpd6pDAgSOJCDAcm8QIHCXQG9v77F79uy5Ov7GQ7AQIECAAAECBAgQqLdAPDJ4a6lUOifOuxqrdy3mJ0CgvgICrPr6m51A5gQixGreu3fvx+ORwgszV5yCCBAgQIAAAQIECiMQbxn8t2OPPfaJO3bsuKMwTWuUAIEjCgiw3BwECBxWYP369Y+amJj4l/iHjYgIECBAgAABAgQI1FCgHG8ZfFXsunp/Dec0FQECGRcQYGV8gZRHoJ4C3d3dp8S5WN8tl8tr61mHuQkQIECAAAECBIohEI8M7ovzrh45MDCwsxgd65IAgfkKCLDmK+V7BAoqsGXLltKVV175V95SWNAbQNsECBAgQIAAgRoJRHj15TVr1jx9+/bt0zWa0jQECORIQICVo8VSKoF6CnR2dj4hQqwvx26s5nrWYW4CBAgQIECAAIHkBMrR0SvGxsY+mFxnGiJAoGICAqyKURqIQPoCmzZtWnX77bd/O0KsM9PvVocECBAgQIAAAQLVFohdV9fF5xEjIyM3VHsu4xMgkG8BAVa+10/1BOoh0NjV1fVHcTbWm+sxuTkJECBAgAABAgTSECiVSp+93/3u99y+vr6pNDrSBQEC1RQQYFVT19gEEhaIA95Pn5qauiJaXJVwm1ojQIAAAQIECBCovMCBCK8uGB4e/nblhzYiAQKpCgiwUl1ZfRGogcCpp566vLW19fPxSOGv1WA6UxAgQIAAAQIECORcoLGx8cdNTU2Pi7cM3przVpRPgECNBQRYNQY3HYEUBeKRwsfFI4VfT7E3PREgQIAAAQIECFRGIHZdvTp2Xb23MqMZhQCBogkIsIq24volUCWBdevWPWBycvJfY/h1VZrCsAQIECBAgAABAvkU+GnsuvqVoaGhsXyWr2oCBLIgIMDKwiqogUBCAp2dnb8/MzPz5wm1pBUCBAgQIECAAIFFCsQjg++LNwy+apGXu4wAAQJ3CQiw3AwECFRcYP369Q+amJgYjYGXV3xwAxIgQIAAAQIECORBYDZ2XfXErquBPBSrRgIEsi8gwMr+GqmQQG4F2traPh3FX5jbBhROgAABAgQIECCwYIGGhobLV61a9ZS+vr6pBV/sAgIECBxBQIDl1iBAoKoC8Ujhw+ORwu/EJM1VncjgBAgQIECAAAECdReI8OqC0dHRy+peiAIIEEhOQICV3JJqiEA2Bdrb279dLpfPy2Z1qiJAgAABAgQIEFiKQARXu5YtW/bQXbt2TS5lHNcSIEDgSAICLPcGAQI1E+jq6nrG9PT052PCxppNaiICBAgQIECAAIFqCpSbm5tfOTg4+IFqTmJsAgQICLDcAwQI1FTg1FNPXR7/79yls7Ozj67pxCYjQIAAAQIECBCoqEDsuhqO8OrcgYGBWys6sMEIECBwGAEBltuCAIG6CKxbt+6Zk5OTfxuTt9alAJMSIECAAAECBAgsVmAqgqvfi11Xf7nYAVxHgACBhQoIsBYq5vsECFRM4Nxzz13+s5/97AtxNtb5FRvUQAQIECBAgAABAtUU+HFra+sF/f39N1dzEmMTIEDgngICLPcEAQJ1F4izsR4ZZ2PNvanQHwQIECBAgAABAhkViF1Xz45dV3PnmZYzWqKyCBBIWECAlfDiao1AngR6enpaDh48+OXYjfX4PNWtVgIECBAgQIBA6gJx1tUVxx577ON37ty5J/Ve9UeAQHYFBFjZXRuVESikQHd392NjN9ZlEWQ1FxJA0wQIECBAgACB7AjMNDU1XTg0NPS57JSkEgIEiiogwCrqyuubQMYFOjo65t5U6GysjK+T8ggQIECAAIE0BUql0u4Irtpi95XHBdNcYl0RyJ2AACt3S6ZgAsURaGtr+6Xo9p/ic3JxutYpAQIECBAgQKCuAvsitHre6Ojol+pahckJECBwDwEBlluCAIFMC8ydjTUxMfGW2I31xkwXqjgCBAgQIECAQM4FGhsbPx1nXb1sx44dd+S8FeUTIJCggAArwUXVEoEUBZ7//Ocv+853vrM7zsY6KcX+9ESAAAECBAgQqJdA7Li6LYKr3jikfaxeNZiXAAECRxMQYB1NyD8nQCBTAnHI+2umpqbeHUX591emVkYxBAgQIECAQA4FynFI+5/HWVd/kMPalUyAQMEE/ABYsAXXLoEUBOJsrJXx/xReEruxzkuhHz0QIECAAAECBOogsDt2Xf3yVVdd9dM6zG1KAgQILFhAgLVgMhcQIJAVgc7OzofPzMxcGvWszkpN6iBAgAABAgQIZFzgjth1dVHsuvpixutUHgECBO4mIMByQxAgkGuB3t7e5ttuu+1PYjfW7+e6EcUTIECAAAECBKosEDvY/2bVqlWv7OvrO1DlqQxPgACBigsIsCpOakACBOoh0NHRcb+Yd1e8rfDUesxvTgIECBAgQIBAVgXmDmmP/7PvrLGxseuyWqO6CBAgcDQBAdbRhPxzAgRyJRDnYz0nCr44PityVbhiCRAgQIAAAQKVFzgY4dWbR0dH/6LyQxuRAAECtRUQYNXW22wECNRAYPPmzU033njjX8T5WL9Tg+lMQYAAAQIECBDInEAEV38fu65eEruu9mauOAURIEBgEQICrEWguYQAgXwIvOQlL2n+5je/+fN4rHDu8UJ/ECBAgAABAgSSF4jganzNmjUnbt++fX/yzWqQAIFCCQiwCrXcmiVQTIGurq7/FbuxLo7/F/L4YgromgABAgQIECiAwGS8XfCN8XbBdxegVy0SIFBAAQFWARddywSKKHDnY4V/EEHWHxexfz0TIECAAAEC6Qo0NjZ+ZOXKla/xdsF011hnBAgcc4wAy11AgEChBHp7e5v37NkzGE2fXqjGNUuAAAECBAikKPDT7u7uh1x66aUTKTanJwIECBwqIMByPxAgUEiBeKzwkbEb6+/iscJTCwmgaQIECBAgQCDPAne0tLQ8b2Bg4B/y3ITaCRAgsBABAdZCtHyXAIHUBBo7OzufHkGW//GX2srqhwABAgQIJCoQjwu+/uyzz/7Lbdu2zSTaorYIECBwWAEBlhuDAIHCC8QurIYIsv4u3lb47MDw78XC3xEACBAgQIBA5gTKpVLpu3FA+6PiLYPlzFWnIAIECNRAwA9qNUA2BQEC+RDYsGHDSQcPHvxUBFlPyEfFqiRAgAABAgRSF4gdVz+Oz29EeDWQeq/6I0CAwH0JCLDcHwQIELiHQGzLP2Xfvn39sTPrfnAIECBAgAABAnUSGF++fPnDdu3adXWd5jctAQIEMiUgwMrUciiGAIEsCcRB78+I87EujiDrAVmqSy0ECBAgQIBAugLxiODt0d3/HR0dfW+6XeqMAAECCxcQYC3czBUECBRMoKOj45URYr07Ps0Fa127BAgQIECAQO0EyvGo4FtbW1vfFruuJms3rZkIECCQDwEBVj7WSZUECNRfoDF2ZH1oenr6RfUvRQUECBAgQIBASgIRXF06MjLy5OhpNqW+9EKAAIFKCgiwKqlpLAIEkhfo7u4+PkKsT8RurGck36wGCRAgQIAAgaoKxOOC31qxYsWzd+zY8bOqTmRwAgQIJCAgwEpgEbVAgEDtBXp6ek6bmJj4RLyxcHPtZzcjAQIECBAgkGeBCK4G4/PM2HXlgPY8L6TaCRCoqYAAq6bcJiNAIDWBTZs2rdq/f/9QBFknpNabfggQIECAAIHKCkRodVtzc/PZAwMDuys7stEIECCQvoAAK/011iEBAjUQiPOxzosQ68PxWVeD6UxBgAABAgQI5EgggqsbSqXSq4eGhr6Yo7KVSoAAgUwJCLAytRyKIUAg7wLxxsJfjhDrK9HH6rz3on4CBAgQIEBgyQIzTU1NT4ng6vIYyQHtS+Y0AAECRRYQYBV59fVOgEDVBNavX/+EOCPrszHB/as2iYEJECBAgACBrArcHsHV6yK4+khWC1QXAQIE8iYgwMrbiqmXAIFcCaxbt+45U1NT74u3FtqRlauVUywBAgQIEFi4QDwquD8eFfyDwcHB98Wflxc+gisIECBA4EgCAiz3BgECBKov0BhB1uMnJyf/OaZqrv50ZiBAgAABAgRqLRA7rp53/PHH/11fX99Urec2HwECBIogIMAqwirrkQCBzAh0dnY+f2Zm5i+ioAdmpiiFECBAgAABAosV2B/B1Z/Go4J/GgPYcbVYRdcRIEBgHgICrHkg+QoBAgQqLNDQ3d3969PT0x/yaGGFZQ1HgAABAgRqI3BHPCr4+gsvvPDirVu3Opy9NuZmIUCg4AICrILfANonQKCuAg09PT2PGB8f/05dqzA5AQIECBAgMG+BlpaWZw0MDHwpLhBczVvNFwkQILB0AQHW0g2NQIAAgSULxI6sp8Vh7++JgdYueTADECBAgAABAhUViAPZb4kdV38Yjwp+uKIDG4wAAQIE5i0gwJo3lS8SIECg+gIRZD0iHi38RDxa2F792cxAgAABAgQI3JdABFe3RnD13AiuvkKKAAECBOorIMCqr7/ZCRAgcFiBc8455wG33nrr1RFknRBf8O9q9wkBAgQIEKitwJ4VK1Y8bOfOnWO1ndZsBAgQIHAkAT8UuTcIECCQYYHYkdUdby38q9nZ2SdmuEylESBAgACBJARix9X3Gxsbf2d4ePgHSTSkCQIECCQkIMBKaDG1QoBAugJx2PvJk5OTfxZh1vPS7VJnBAgQIECgPgIRWn21ubn5Jf39/dfWpwKzEiBAgMDRBARYRxPyzwkQIJAxgba2tr+Okl4Qn+UZK005BAgQIEAgNwKx22o6iv2nZcuWPWfXrl2TuSlcoQQIECiogACroAuvbQIE8i2wdevWxs985jOvjB1Zb45OHpjvblRPgAABAgRqKnAgDmb/0wsvvPDt8d/T2ZrObDICBAgQWLSAAGvRdC4kQIBAJgRKXV1dGyLI+lYc+L4yExUpggABAgQIZFPgQOy2Ov/EE0/83vbt2+d2X/mDAAECBHIkIMDK0WIplQABAvclEOdknXbw4MHPRZD18Pief7+7XQgQIECAwDHHlAPhqpaWlgsHBgZ2AiFAgACB/Ar4ASe/a6dyAgQIHFbg7LPPPmHfvn2/F0HW7wqy3CQECBAgUFSBOOPqI01NTW8fHBy8pqgG+iZAgEBKAgKslFZTLwQIELi7wNzjhb8ajxd+KcKsZjgECBAgQKAIAhFavfSUU075mMcEi7DaeiRAoEgCAqwirbZeCRAorEBHR8fZEWL9dXzODQT/7i/snaBxAgQIJCvwo8bGxjeMjIx8NdkONUaAAIGCC/ghpuA3gPYJECiWQOzIevDs7OwrIsh6Y3wai9W9bgkQIEAgMYFyvE3w4vjv2TsiuBpNrDftECBAgMA9BARYbgkCBAgUVOCMM854XBz6fkm0v7ygBNomQIAAgXwKHGxubn5RnG31mXyWr2oCBAgQWIyAAGsxaq4hQIBAQgLr1q3rmpycfHu09Iz42JWV0NpqhQABAgkJlONQ9q/Gjqs3DQ0N/XtCfWmFAAECBOYpIMCaJ5SvESBAIHWBjRs3rogdWU+JRww/EZ+W1PvVHwECBAhkXyDOtZqO4OpVy5Yt+/udO3fuyX7FKiRAgACBagkIsKola1wCBAjkWGDDhg0nTUxM/FO8wfDsaMMbDHO8lkonQIBADgVmYqfVNfE2wV/r7+8fzmH9SiZAgACBKggIsKqAakgCBAikItDb29t82223vSz6eX0ckvuQVPrSBwECBAhkTyB2Wt0SO67+Mv578944lH1f9ipUEQECBAjUU0CAVU99cxMgQCBHAt3d3afEo4V/EbuyfjNHZSuVAAECBDIuEKHVN2O31QsHBgaujVLLGS9XeQQIECBQJwEBVp3gTUuAAIE8C3R2dj4rwqy3xf9L3p3nPtROgAABAnUT2B3B1Ttip9UHhVZ1WwMTEyBAIFcCAqxcLZdiCRAgkC2BO8/KelEEWW+IQOv4bFWnGgIECBDIkkA8IjgT9bwzzrf6ULxJcCxLtamFAAECBLIvIMDK/hqpkAABAnkQaDjzzDNXjY+P/0MEWY/JQ8FqJECAAIHaCMROq/74b8P5Y2Nj18eMHhGsDbtZCBAgkJyAACu5JdUQAQIE6i/Q3t7+G1HF78bOrIfGr/5bU/8lUQEBAgRqKhC7ra6Kz/vjEcEPxcSzNZ3cZAQIECCQpIAfKpJcVk0RIEAgGwKxK2v1wYMHnxYHv789KnpQNqpSBQECBAhUSeBA7Lb6v83NzZ/r7++/uUpzGJYAAQIECiogwCrowmubAAECdRBo6OjoeFc8RvLKmLu5DvObkgABAgQqLBC7rKYjtPp8/Pv9+ZdeeulEhYc3HAECBAgQuEtAgOVmIECAAIGaC3R1dbVFkPXGeMRwS3xW1bwAExIgQIDAogUitBqPi7809xbB4eHhHy16IBcSIECAAIEFCAiwFoDlqwQIECBQeYH4f+3PiFFfG4HWC+NX/12qPLERCRAgUBGBCK6+EKHVWy+88MIdW7duda5VRVQNQoAAAQLzFfCDwnylfI8AAQIEqi7Q09Nz8uTk5KfjzKxfjslWVH1CExAgQIDAfQkcLJVKA/GF34ydVv2oCBAgQIBAPQUEWPXUNzcBAgQIHFGgs7Pz4fF44Yvjc2F8lqEiQIAAgeoLxC6ryZjlixFcXTw0NPTN+PNy9Wc1AwECBAgQOLqAAOvoRr5BgAABAvUVaIydWafGzqzXx86sV9e3FLMTIEAgTYEIrD6zbNmyN7e0tFzf19c3lWaXuiJAgACBPAsIsPK8emonQIBAAQV6e3tX7t27909jV9ZT4/PgAhJomQABApUQ+FmcZ/X1Y4899rU7duz4WSUGNAYBAgQIEKimgACrmrrGJkCAAIGqCsTbDB8cj7s8NXZmvSQOgd9U1ckMToAAgZwLRGA1Gv/O/FCE/18YGRkZzXk7yidAgACBggkIsAq24NolQIBAqgLxNsPWeASme3p6+jPxw9mGVPvUFwECBBYiEIHVjU1NTRfdcccd37/hhhvGF3Kt7xIgQIAAgSwJCLCytBpqIUCAAIGKCbS3t2+IH9zeGGHWo+NzasUGNhABAgQyLBD/3pt7HPD7EVq9Y3Bw8LsZLlVpBAgQIEBgQQICrAVx+TIBAgQI5FFg7lHDeMTwsfGZOwT+YXnsQc0ECBC4D4GBCK7eE7tQvxZvDhwjRYAAAQIEUhQQYKW4qnoiQIAAgfsUiEDrgRFmvT8+z4wvlnARIEAgZwIzcZ7Vt+Lz3AisbsxZ7colQIAAAQKLEhBgLYrNRQQIECCQisAFF1zQGj8APj/6+fV41PC8+LU1ld70QYBAGgKxu2o6/v30/ejmi83NzRfHo4G3p9GZLggQIECAwPwFBFjzt/JNAgQIEEhfoGHdunWd8VbDx8YPi78XO7Ta0m9ZhwQIZFTgJxFcvTs+Xz711FMHt2/fPp3ROpVFgAABAgRqIiDAqgmzSQgQIEAgrwI9PT0nT05Ovj3CrKdGqLUq+vDIYV4XU90EsiswG6XtjTOstsdjga+PHVbXZLdUlREgQIAAgfoICLDq425WAgQIEMihQARYczu0HjM9Pf3UKP/8+OvuHLahZAIEMiAQO6uujTIuj8Dqkk2bNl26bdu2mQyUpQQCBAgQIJBZAQFWZpdGYQQIECCQdYHYnXVcPG54SgRaz48dWq+Keo/Pes3qI0CgbgIHI6z6aGtr6/vHx8dvHBsb21u3SkxMgAABAgRyKCDAyuGiKZkAAQIEsiuwYcOGk+KH09fH7qy5XVpr4nNsdqtVGQECVRI4GDusbozA6ustLS3/b9euXSNVmsewBAgQIECgMAICrMIstUYJECBAoB4CbW1tnfFD7HkRaD0xfqC9IHZq3a8edZiTAIHqCcTv8cn4PX5Z/B6/LH79zujo6K6YrVy9GY1MgAABAgSKJyDAKt6a65gAAQIE6igQbxNbHjsyTogfdH87fuh9dTyC2FLHckxNgMAiBOL37nQEVR9vamp6ZzwSeMOOHTsOCKwWAekSAgQIECCwAAEB1gKwfJUAAQIECFRDYPPmzctuvvnmX48wa0v8UHxGfE6PebztsBrYxiSwMIG5twNeF5+heEPgFyJ8/kw8Drh/YUP4NgECBAgQIFAJAQFWJRSNQYAAAQIEKiiwZcuW0pVXXjn3hsMz4nN+fJ4Sjx6eWMEpDEWAwGEEYmfV7fG3L4nPV+LPr4rfdwMjIyMTsAgQIECAAIH6Cwiw6r8GKiBAgAABAvMW6O7ufmzs0Hp1vPnwKXHR3H/H/bd83nq+SOAugbnzqcrxCOD2CKn+KkKqf2RDgAABAgQIZFvA/+jN9vqojgABAgQI3KfABRdc0Do0NPSYeLzpifEI4tnx5a4IuE7BRoDAfwvEeXM/i1+G4tcd8Xvj6yeffPLXv/vd787ttPIHAQIECBAgkCMBAVaOFkupBAgQIEBgPgLnnnvu8ttuu+3U2FmyJkKtx8UP7k+OX8+c+1l+Ptf7DoG8CsRjf8NR+z/HzqrL4v6/rrm5+QZnVuV1NdVNgAABAgTuLuB/yLojCBAgQIBAgQRiB0rD+vXrHz01NfW/ou0nxV+vjF+Xx6e5QAxazalAhLFTcc8ejPLviLDqa/H57ODg4GXx9+cOW/cHAQIECBAgkLCAACvhxdUaAQIECBCYr8CmTZtWHTx4cFOcrbUpdq5siEBgXQQF6+P6+893DN8jUCmBuP9uj09/3IMDc4epx68/jrGvjLOqbqnUHMYhQIAAAQIE8iUgwMrXeqmWAAECBAjUVGDt2rXLIkhYGZ/7xWNZHfEo4mOjgMdEoNBb00JMlqRA3Fe7orFvxhlu35wLrCYmJvZOTk7uu+mmmw4k2bCmCBAgQIAAgUULCLAWTedCAgQIECBA4E6BxjPOOOOsCB8eGSHEIyLcOjM+x8c/Oy4+K+LTQqpQAtPR7f64F/bHfbA/dlANxq//Gn/9rytXruyLP6YKpaFZAgQIECBAoCICAqyKMBqEAAECBAgQOJLA3OOJ+/btWxO7bE6LHVynRZCxNr77kLlWv+XrAAAFKklEQVRPBBtzvz6IXn4EYv3mHuO7NtZud/z5tfHnc79eF79eH7v0rhsYGLg1P92olAABAgQIEMiLgAArLyulTgIECBAgkK5AQ0dHR0tra2vz7bffHi+Oa25uaWk5de7NiXEe19zbE+d+3Ri/npwuQf07ixDq1vjsiM/cmVM7Yg12jo+P7z722GOn4my0qViPyTiDam73lAPT679cKiBAgAABAoUTEGAVbsk1TIAAAQIE0hLo7e1duX///rmdXKdEyHJKhC8PihDmvz4RfN0//nruLYtzn7lHGVvj77fG31t2yJ835UxkJuqduPMz90a+X/z53K8Ho7/x+NwWn5uiz5/E5+Z4jO+myAVvOu6446774Q9/aIdUzhZcuQQIECBAgMAxxwiw3AUECBAgQIBAoQU2b97cdMsttyyL8Gsu3GqJtzHG5qOWZXGY+H/9dYQ/TXO/RhhWmvvz+N7c35v789KdodhdfhEWNcb3mg8Fje9Nx/VzodOhf0zG9+b+mI5HKydjzNn4dSqun4zvz0xNTU1G4DQRfz4XSE3M/f25TwRQB50hVejbVfMECBAgQKCwAgKswi69xgkQIECAAAECBAgQIECAAAEC+RAQYOVjnVRJgAABAgQIECBAgAABAgQIECisgACrsEuvcQIECBAgQIAAAQIECBAgQIBAPgQEWPlYJ1USIECAAAECBAgQIECAAAECBAorIMAq7NJrnAABAgQIECBAgAABAgQIECCQDwEBVj7WSZUECBAgQIAAAQIECBAgQIAAgcIKCLAKu/QaJ0CAAAECBAgQIECAAAECBAjkQ0CAlY91UiUBAgQIECBAgAABAgQIECBAoLACAqzCLr3GCRAgQIAAAQIECBAgQIAAAQL5EBBg5WOdVEmAAAECBAgQIECAAAECBAgQKKyAAKuwS69xAgQIECBAgAABAgQIECBAgEA+BARY+VgnVRIgQIAAAQIECBAgQIAAAQIECisgwCrs0mucAAECBAgQIECAAAECBAgQIJAPAQFWPtZJlQQIECBAgAABAgQIECBAgACBwgoIsAq79BonQIAAAQIECBAgQIAAAQIECORDQICVj3VSJQECBAgQIECAAAECBAgQIECgsAICrMIuvcYJECBAgAABAgQIECBAgAABAvkQEGDlY51USYAAAQIECBAgQIAAAQIECBAorIAAq7BLr3ECBAgQIECAAAECBAgQIECAQD4EBFj5WCdVEiBAgAABAgQIECBAgAABAgQKKyDAKuzSa5wAAQIECBAgQIAAAQIECBAgkA8BAVY+1kmVBAgQIECAAAECBAgQIECAAIHCCgiwCrv0GidAgAABAgQIECBAgAABAgQI5ENAgJWPdVIlAQIECBAgQIAAAQIECBAgQKCwAgKswi69xgkQIECAAAECBAgQIECAAAEC+RAQYOVjnVRJgAABAgQIECBAgAABAgQIECisgACrsEuvcQIECBAgQIAAAQIECBAgQIBAPgQEWPlYJ1USIECAAAECBAgQIECAAAECBAorIMAq7NJrnAABAgQIECBAgAABAgQIECCQDwEBVj7WSZUECBAgQIAAAQIECBAgQIAAgcIKCLAKu/QaJ0CAAAECBAgQIECAAAECBAjkQ0CAlY91UiUBAgQIECBAgAABAgQIECBAoLACAqzCLr3GCRAgQIAAAQIECBAgQIAAAQL5EBBg5WOdVEmAAAECBAgQIECAAAECBAgQKKyAAKuwS69xAgQIECBAgAABAgQIECBAgEA+BP4/wboT2r4+ZKEAAAAASUVORK5CYII=;" vertex="1" parent="1">
          <mxGeometry x="1560" y="434" width="70" height="70" as="geometry" />
        </mxCell>
        <mxCell id="8MkO7Q4THgauLzWzDWwj-14" value="" style="shape=image;verticalLabelPosition=bottom;verticalAlign=top;imageAspect=0;aspect=fixed;image=data:image/svg+xml,PHN2ZyB4bWxucz0iaHR0cDovL3d3dy53My5vcmcvMjAwMC9zdmciIHZpZXdCb3g9IjAgMCA0OCA0OCI+PGcgZmlsbC1ydWxlPSJldmVub2RkIj48cGF0aCBmaWxsPSIjNDFiZGY1IiBkPSJNMCAwaDQ4djQ4SDB6Ii8+PHBhdGggZmlsbD0iI2ZmZiIgZD0iTTIzLjk4NyA2LjcyMWExLjExNyAxLjExNyAwIDAgMC0uNzkuMzM1TDUuMjQ0IDI1LjMxNmEuODk0Ljg5NCAwIDAgMC0uMjUyLjU4NHYuMDg3YS44OTQuODk0IDAgMCAwIC44OTEuODUzSDkuMjJ2MTIuODNjMCAuNDEyLjMzNC43NDYuNzQ2Ljc0NkgzOC4wMmEuNzQ3Ljc0NyAwIDAgMCAuNzQ3LS43NDZWMjYuODRoMy4zNWEuODkuODkgMCAwIDAgLjg5Mi0uODQ2bC0uMDAxLS4wODhhLjg4OS44ODkgMCAwIDAtLjI1LS41ODdsLTMuOTkxLTQuMDkydi02LjQ0NWEuNzQ3Ljc0NyAwIDAgMC0uNzQ3LS43NDdoLTMuMTFhLjc0Ny43NDcgMCAwIDAtLjc0Ny43NDd2MS43NTdsLTkuMzctOS40ODUtLjAxMS0uMDExYTEuMTE2IDEuMTE2IDAgMCAwLS43OTUtLjMyMnptLTMuMDYzIDkuMTQzYTEuNDQyIDEuNDQyIDAgMCAxIDEuMjk5IDIuMDY3bDEuNzcgMS43NzcgMS43NzItMS43NzdjLS4wOS0uMTg5LS4xNC0uNC0uMTQtLjYyMyAwLS43OTcuNjQ0LTEuNDQ0IDEuNDM4LTEuNDQ0Ljc5NSAwIDEuNDQuNjQ3IDEuNDQgMS40NDRhMS40NDIgMS40NDIgMCAwIDEtMi4wNiAxLjMwNGwtMS45NyAxLjk3NnYxNC4xNGwyLjM5OC0yLjQwOHYtMi44NjdhMS40NDUgMS40NDUgMCAwIDEtLjk1OS0xLjM2MiAxLjQ0IDEuNDQgMCAxIDEgMi44NzggMGMwIC42MjktLjQgMS4xNjQtLjk2IDEuMzYydjEuOTA1bDIuNTkxLTIuNlYyNi43NWwtMi4wNjYtMi4wNzNhMS40NDIgMS40NDIgMCAwIDEtMi4wNi0xLjMwM2MwLS43OTguNjQ1LTEuNDQ1IDEuNDQtMS40NDVhMS40NDEgMS40NDEgMCAwIDEgMS4yOTggMi4wNjdsMS4zODggMS4zOTJ2LTQuNDA3YTEuNDQ1IDEuNDQ1IDAgMCAxLS45Ni0xLjM2MmMwLS43OTguNjQ1LTEuNDQ1IDEuNDQtMS40NDVhMS40NDYgMS40NDYgMCAwIDEgLjQ3OSAyLjgwN3Y0LjQwN2wxLjM4Ny0xLjM5MmExLjQ0MiAxLjQ0MiAwIDAgMSAxLjI5OS0yLjA2N2MuNzk1IDAgMS40MzkuNjQ3IDEuNDM5IDEuNDQ1YTEuNDQxIDEuNDQxIDAgMCAxLTIuMDYgMS4zMDNMMzEuMzggMjYuNzV2Mi40MDdsLTIuODcxIDIuODgxaDQuMDA4YTEuNDQgMS40NCAwIDAgMSAxLjM1Ny0uOTYyYy43OTUgMCAxLjQ0LjY0NiAxLjQ0IDEuNDQ0cy0uNjQ1IDEuNDQ0LTEuNDQgMS40NDRhMS40NCAxLjQ0IDAgMCAxLTEuMzU3LS45NjNIMjcuNTVsLTMuMDc3IDMuMDg4djMuMTYzbDIuNTgzLTIuNTkyaDIuOTY3YTEuNDQgMS40NCAwIDAgMSAxLjM1Ny0uOTYzYy43OTUgMCAxLjQzOS42NDcgMS40MzkgMS40NDRzLS42NDQgMS40NDQtMS40MzkgMS40NDRhMS40NCAxLjQ0IDAgMCAxLTEuMzU3LS45NjJoLTIuNTdsLTIuNzgxIDIuNzkyaC0xLjM1N2wtMi42ODYtMi42OTZoLTIuNjY2YTEuNDQgMS40NCAwIDAgMS0xLjM1Ny45NjMgMS40NDEgMS40NDEgMCAwIDEtMS40MzktMS40NDQgMS40NCAxLjQ0IDAgMCAxIDIuNzk2LS40ODJoMS43MDZsLTMuMjEtMy4yMjJhMS40NDEgMS40NDEgMCAwIDEtMi4wNi0xLjMwM2MwLS43OTguNjQ1LTEuNDQ0IDEuNDQtMS40NDRhMS40NDEgMS40NDEgMCAwIDEgMS4yOTkgMi4wNjdsMy4yMSAzLjIyMXYtMS44MDhhMS40NDQgMS40NDQgMCAwIDEtLjk2LTEuMzYyYzAtLjc5OC42NDUtMS40NDQgMS40NC0xLjQ0NGExLjQ0IDEuNDQgMCAwIDEgMS40MzggMS40NDRjMCAuNjI5LS40IDEuMTY0LS45NTkgMS4zNjJ2Mi43NzFsMi4yMDYgMi4yMTR2LTcuMjA3bC00LjEzMS00LjE0N2gtMi42NjZhMS40NCAxLjQ0IDAgMCAxLTEuMzU3Ljk2MyAxLjQ0MSAxLjQ0MSAwIDAgMS0xLjQzOS0xLjQ0NCAxLjQzOSAxLjQzOSAwIDAgMSAyLjc5Ni0uNDgxaDEuNzA2bC0yLjk2Ny0yLjk3OHYtMy4wNzRhMS40NDUgMS40NDUgMCAwIDEtLjk2LTEuMzYyYzAtLjc5Ny42NDUtMS40NDQgMS40NC0xLjQ0NGExLjQ0NSAxLjQ0NSAwIDAgMSAuNDggMi44MDZ2Mi42NzVsMi42ODUgMi42OTZ2LTEuODA5YTEuNDQ0IDEuNDQ0IDAgMCAxLS45NTktMS4zNjJjMC0uNzk3LjY0NC0xLjQ0NCAxLjQzOS0xLjQ0NHMxLjQ0LjY0NyAxLjQ0IDEuNDQ0YzAgLjYzLS40MDEgMS4xNjQtLjk2IDEuMzYydjIuNzcxbDMuNDUzIDMuNDY3VjIwLjU4OGwtMS45Ny0xLjk3N2ExLjQ0MSAxLjQ0MSAwIDAgMS0yLjA2LTEuMzAzIDEuNDQzIDEuNDQzIDAgMCAxIDEuNDQtMS40NDR6bTAgLjg2N2EuNTc3LjU3NyAwIDEgMCAuMDAyIDEuMTUzLjU3Ny41NzcgMCAwIDAtLjAwMi0xLjE1M3ptNi4xNCAwYS41NzcuNTc3IDAgMSAwIC4wMDIgMS4xNTMuNTc3LjU3NyAwIDAgMC0uMDAzLTEuMTUzem0tMTEuMTI5IDIuMjE0YS41NzcuNTc3IDAgMSAwIC4wMDIgMS4xNTMuNTc3LjU3NyAwIDAgMC0uMDAyLTEuMTUzem0xNC45NjYuMDk2YS41NzcuNTc3IDAgMSAwIC4wMDIgMS4xNTQuNTc3LjU3NyAwIDAgMC0uMDAyLTEuMTU0em0tMTEuMzIgMy40NjZhLjU3Ny41NzcgMCAxIDAgLjAwMSAxLjE1My41NzcuNTc3IDAgMCAwLS4wMDItMS4xNTN6bTguMTU0LjI4OWEuNTc3LjU3NyAwIDEgMCAuMDAyIDEuMTUzLjU3Ny41NzcgMCAwIDAtLjAwMi0xLjE1M3ptNi4zMzEgMGEuNTc3LjU3NyAwIDEgMCAuMDAyIDEuMTUzLjU3Ny41NzcgMCAwIDAtLjAwMi0xLjE1M3pNMTUuMzYgMjYuODRhLjU3Ny41NzcgMCAxIDAgLjAwMiAxLjE1My41NzcuNTc3IDAgMCAwLS4wMDItMS4xNTN6bTExLjk5LjY3M2EuNTc3LjU3NyAwIDEgMCAuMDAzIDEuMTU0LjU3Ny41NzcgMCAwIDAtLjAwMi0xLjE1NHptLTExLjUxMSA0LjE0YS41NzcuNTc3IDAgMSAwIC4wMDIgMS4xNTQuNTc3LjU3NyAwIDAgMC0uMDAyLTEuMTU0em0xOC4wMzUuMjlhLjU3Ny41NzcgMCAxIDAgLjAwMiAxLjE1My41NzcuNTc3IDAgMCAwLS4wMDItMS4xNTR6bS0xMy4wNDYuMzg0YS41NzcuNTc3IDAgMSAwIC4wMDIgMS4xNTQuNTc3LjU3NyAwIDAgMC0uMDAyLTEuMTU0em0xMC41NTIgNC4yMzdhLjU3Ny41NzcgMCAxIDAgLjAwMiAxLjE1My41NzcuNTc3IDAgMCAwLS4wMDItMS4xNTN6bS0xNC43NzMuMDk2YS41NzcuNTc3IDAgMSAwIC4wMDIgMS4xNTMuNTc3LjU3NyAwIDAgMC0uMDAyLTEuMTUzeiIvPjwvZz48L3N2Zz4=;" vertex="1" parent="1">
          <mxGeometry x="1410" y="436" width="68" height="68" as="geometry" />
        </mxCell>
        <mxCell id="8MkO7Q4THgauLzWzDWwj-15" value="PBS" style="shape=image;verticalLabelPosition=bottom;verticalAlign=top;imageAspect=0;aspect=fixed;image=data:image/svg+xml,PHN2ZyB4bWxucz0iaHR0cDovL3d3dy53My5vcmcvMjAwMC9zdmciIHZpZXdCb3g9IjAgMCA0OCA0OCI+PGRlZnM+PGNsaXBQYXRoIGlkPSJwcm94bW94X3N2Z19fYSIgY2xpcFBhdGhVbml0cz0idXNlclNwYWNlT25Vc2UiPjxwYXRoIGQ9Ik0tODMtMzQ3LjcxNGg0MzYuNDAydjMyNi40MUgtODN6IiBzdHlsZT0iZmlsbDojZTU3MDAwO2ZpbGwtb3BhY2l0eToxO2ZpbGwtcnVsZTpldmVub2RkO3N0cm9rZTpub25lIiB0cmFuc2Zvcm09Im1hdHJpeCguNzM0NSAuNjc4NjIgLS43ODQ5NyAuNjE5NTMgMCAwKSIvPjwvY2xpcFBhdGg+PC9kZWZzPjxnIHN0eWxlPSJmaWxsOiMwMDAiPjxnIGNsaXAtcGF0aD0idXJsKCNwcm94bW94X3N2Z19fYSkiIHN0eWxlPSJmb250LXN0eWxlOm5vcm1hbDtmb250LXZhcmlhbnQ6bm9ybWFsO2ZvbnQtd2VpZ2h0OjQwMDtmb250LXN0cmV0Y2g6bm9ybWFsO2ZvbnQtc2l6ZToxNDRweDtsaW5lLWhlaWdodDoxMjUlO2ZvbnQtZmFtaWx5OkhlbGlvbjstaW5rc2NhcGUtZm9udC1zcGVjaWZpY2F0aW9uOkhlbGlvbjtsZXR0ZXItc3BhY2luZzowO3dvcmQtc3BhY2luZzowO2ZpbGw6IzAwMDtmaWxsLW9wYWNpdHk6MTtzdHJva2U6bm9uZSIgdHJhbnNmb3JtPSJtYXRyaXgoLS4wODM0MyAwIDAgLjA4MzQzIDQ3LjA1MSAzLjc1NikiPjxwYXRoIGQ9Ik0yNzYuMzA0IDIyNi42MjMgNDY2Ljg5MiAxNy4wMjFDNDU5LjUgOS42MjggNDUwLjg4OCAzLjgxOSA0NDEuMDU4LS40MDVjLTkuODMtNC4yMjUtMjAuMzkyLTYuMzc3LTMxLjY4NC02LjQ1OS0xMS45OTMuMDkyLTIyLjk4IDIuNDY4LTMyLjk2MyA3LjEyOS05Ljk4MiA0LjY2MS0xOC42NTUgMTEuMDU5LTI2LjAxNyAxOS4xOTNsLTc0LjA5IDgwLjkxNUwyMDIuNyAxOS40NThjLTcuNjI3LTguMTM0LTE2LjUwMi0xNC41MzItMjYuNjI3LTE5LjE5My0xMC4xMjQtNC42NjEtMjEuMDcxLTcuMDM3LTMyLjg0LTcuMTI5LTExLjI5My4wODItMjEuODU0IDIuMjM0LTMxLjY4NCA2LjQ1OS05LjgzIDQuMjI0LTE4LjQ0MiAxMC4wMzMtMjUuODM1IDE3LjQyNmwxOTAuNTk0IDIwOS41OTciIHN0eWxlPSJmaWxsOiMwMDA7ZmlsbC1vcGFjaXR5OjEiLz48L2c+PGcgY2xpcC1wYXRoPSJ1cmwoI3Byb3htb3hfc3ZnX19hKSIgc3R5bGU9ImZvbnQtc3R5bGU6bm9ybWFsO2ZvbnQtdmFyaWFudDpub3JtYWw7Zm9udC13ZWlnaHQ6NDAwO2ZvbnQtc3RyZXRjaDpub3JtYWw7Zm9udC1zaXplOjE0NHB4O2xpbmUtaGVpZ2h0OjEyNSU7Zm9udC1mYW1pbHk6SGVsaW9uOy1pbmtzY2FwZS1mb250LXNwZWNpZmljYXRpb246SGVsaW9uO2xldHRlci1zcGFjaW5nOjA7d29yZC1zcGFjaW5nOjA7ZmlsbDojMDAwO2ZpbGwtb3BhY2l0eToxO3N0cm9rZTpub25lIiB0cmFuc2Zvcm09Im1hdHJpeCguMDgzNDMgMCAwIC0uMDgzNDMgLjk1IDQ0LjI0NCkiPjxwYXRoIGQ9Ik0yNzYuMzA0IDIyNi42MjMgNDY2Ljg5MiAxNy4wMjFDNDU5LjUgOS42MjggNDUwLjg4OCAzLjgxOSA0NDEuMDU4LS40MDVjLTkuODMtNC4yMjUtMjAuMzkyLTYuMzc3LTMxLjY4NC02LjQ1OS0xMS45OTMuMDkyLTIyLjk4IDIuNDY4LTMyLjk2MyA3LjEyOS05Ljk4MiA0LjY2MS0xOC42NTUgMTEuMDU5LTI2LjAxNyAxOS4xOTNsLTc0LjA5IDgwLjkxNUwyMDIuNyAxOS40NThjLTcuNjI3LTguMTM0LTE2LjUwMi0xNC41MzItMjYuNjI3LTE5LjE5My0xMC4xMjQtNC42NjEtMjEuMDcxLTcuMDM3LTMyLjg0LTcuMTI5LTExLjI5My4wODItMjEuODU0IDIuMjM0LTMxLjY4NCA2LjQ1OS05LjgzIDQuMjI0LTE4LjQ0MiAxMC4wMzMtMjUuODM1IDE3LjQyNmwxOTAuNTk0IDIwOS41OTciIHN0eWxlPSJmaWxsOiMwMDA7ZmlsbC1vcGFjaXR5OjEiLz48L2c+PHBhdGggZD0ibTExNjAuNjMgOTg4LjIwNS0xNDMuMjY3LTE1Ny4xMTJjLTguMzMzLTguODg3LTE4LjAzLTE1Ljg3Ny0yOS4wOTMtMjAuOTctMTEuMDYzLTUuMDkzLTIzLjAyNC03LjY5LTM1Ljg4NC03Ljc5LTEyLjMzOC4wOS0yMy44NzcgMi40NDItMzQuNjE4IDcuMDU3LTEwLjc0IDQuNjE2LTIwLjE1IDEwLjk2My0yOC4yMjcgMTkuMDRsMTQ1LjM5NyAxNTkuNzc4LTE0NS4zOTcgMTU5Ljc3N2M4LjA3NyA4LjMzMyAxNy40ODYgMTQuODM1IDI4LjIyNyAxOS41MDcgMTAuNzQgNC42NyAyMi4yOCA3LjA0NSAzNC42MTggNy4xMjMgMTIuODk0LS4xIDI0LjkyMS0yLjY5NiAzNi4wODQtNy43OSAxMS4xNjItNS4wOTIgMjAuNzkzLTEyLjA4MiAyOC44OTMtMjAuOTdsMTQzLjI2Ni0xNTcuNjVtMzEuOTkxIDAgMTQzLjI2Ny0xNTcuMTEyYzguMzMzLTguODg3IDE4LjAzLTE1Ljg3NyAyOS4wOTMtMjAuOTcgMTEuMDYzLTUuMDkzIDIzLjAyNC03LjY5IDM1Ljg4My03Ljc5IDEyLjMzOS4wOSAyMy44NzggMi40NDIgMzQuNjE5IDcuMDU3IDEwLjc0IDQuNjE2IDIwLjE1IDEwLjk2MyAyOC4yMjcgMTkuMDRsLTE0NS4zOTcgMTU5Ljc3OCAxNDUuMzk3IDE1OS43NzdjLTguMDc3IDguMzMzLTE3LjQ4NiAxNC44MzUtMjguMjI3IDE5LjUwNy0xMC43NCA0LjY3LTIyLjI4IDcuMDQ1LTM0LjYxOCA3LjEyMy0xMi44OTQtLjEtMjQuOTIxLTIuNjk2LTM2LjA4NC03Ljc5LTExLjE2Mi01LjA5Mi0yMC43OTMtMTIuMDgyLTI4Ljg5My0yMC45N2wtMTQzLjI2Ni0xNTcuNjUiIHN0eWxlPSJmb250LXN0eWxlOm5vcm1hbDtmb250LXZhcmlhbnQ6bm9ybWFsO2ZvbnQtd2VpZ2h0OjQwMDtmb250LXN0cmV0Y2g6bm9ybWFsO2ZvbnQtc2l6ZToxMDU5LjYxcHg7bGluZS1oZWlnaHQ6MTI1JTtmb250LWZhbWlseTpIZWxpb247LWlua3NjYXBlLWZvbnQtc3BlY2lmaWNhdGlvbjpIZWxpb247bGV0dGVyLXNwYWNpbmc6MDt3b3JkLXNwYWNpbmc6MDtmaWxsOiNlNTcwMDA7ZmlsbC1vcGFjaXR5OjE7c3Ryb2tlOm5vbmUiIHRyYW5zZm9ybT0idHJhbnNsYXRlKC03NC4zNjUgLTU4LjYxMykgc2NhbGUoLjA4MzYpIi8+PC9nPjwvc3ZnPg==" vertex="1" parent="1">
          <mxGeometry x="1129.7" y="526" width="48" height="48" as="geometry" />
        </mxCell>
        <mxCell id="8MkO7Q4THgauLzWzDWwj-16" value="" style="shape=image;verticalLabelPosition=bottom;verticalAlign=top;imageAspect=0;aspect=fixed;image=data:image/svg+xml,PHN2ZyB4bWxucz0iaHR0cDovL3d3dy53My5vcmcvMjAwMC9zdmciIHZpZXdCb3g9IjAgMCA0OCA0OCI+PGRlZnM+PGxpbmVhckdyYWRpZW50IGlkPSJtaWNyb3NvZnRhenVyZV9zdmdfX2EiIHgxPSItMTAzMi4yIiB4Mj0iLTEwNTkuMiIgeTE9IjE0NS4zMSIgeTI9IjY1LjQyNiIgZ3JhZGllbnRUcmFuc2Zvcm09Im1hdHJpeCgxIDAgMCAtMSAxMDc1IDE1OCkiIGdyYWRpZW50VW5pdHM9InVzZXJTcGFjZU9uVXNlIj48c3RvcCBvZmZzZXQ9IjAiIHN0b3AtY29sb3I9IiMxMTRhOGIiLz48c3RvcCBvZmZzZXQ9IjEiIHN0b3AtY29sb3I9IiMwNjY5YmMiLz48L2xpbmVhckdyYWRpZW50PjxsaW5lYXJHcmFkaWVudCBpZD0ibWljcm9zb2Z0YXp1cmVfc3ZnX19iIiB4MT0iLTEwMjMuNyIgeDI9Ii0xMDMwIiB5MT0iMTA4LjA4IiB5Mj0iMTA1Ljk3IiBncmFkaWVudFRyYW5zZm9ybT0ibWF0cml4KDEgMCAwIC0xIDEwNzUgMTU4KSIgZ3JhZGllbnRVbml0cz0idXNlclNwYWNlT25Vc2UiPjxzdG9wIG9mZnNldD0iMCIgc3RvcC1vcGFjaXR5PSIuMyIvPjxzdG9wIG9mZnNldD0iLjA3MSIgc3RvcC1vcGFjaXR5PSIuMiIvPjxzdG9wIG9mZnNldD0iLjMyMSIgc3RvcC1vcGFjaXR5PSIuMSIvPjxzdG9wIG9mZnNldD0iLjYyMyIgc3RvcC1vcGFjaXR5PSIuMDUiLz48c3RvcCBvZmZzZXQ9IjEiIHN0b3Atb3BhY2l0eT0iMCIvPjwvbGluZWFyR3JhZGllbnQ+PGxpbmVhckdyYWRpZW50IGlkPSJtaWNyb3NvZnRhenVyZV9zdmdfX2MiIHgxPSItMTAyNy4yIiB4Mj0iLTk5Ny40OCIgeTE9IjE0Ny42NCIgeTI9IjY4LjU2MSIgZ3JhZGllbnRUcmFuc2Zvcm09Im1hdHJpeCgxIDAgMCAtMSAxMDc1IDE1OCkiIGdyYWRpZW50VW5pdHM9InVzZXJTcGFjZU9uVXNlIj48c3RvcCBvZmZzZXQ9IjAiIHN0b3AtY29sb3I9IiMzY2NiZjQiLz48c3RvcCBvZmZzZXQ9IjEiIHN0b3AtY29sb3I9IiMyODkyZGYiLz48L2xpbmVhckdyYWRpZW50PjwvZGVmcz48cGF0aCBmaWxsPSJ1cmwoI21pY3Jvc29mdGF6dXJlX3N2Z19fYSkiIGQ9Ik0zMy4zMzggNi41NDRoMjYuMDM4bC0yNy4wMyA4MC4wODdhNC4xNTIgNC4xNTIgMCAwIDEtMy45MzMgMi44MjRIOC4xNDlhNC4xNDUgNC4xNDUgMCAwIDEtMy45MjgtNS40N0wyOS40MDQgOS4zNjhhNC4xNTIgNC4xNTIgMCAwIDEgMy45MzQtMi44MjV6IiB0cmFuc2Zvcm09InRyYW5zbGF0ZSgtMi4xODQgLTIuMTg0KSBzY2FsZSguNTQ1NSkiLz48cGF0aCBmaWxsPSIjMDA3OGQ0IiBkPSJNMzYuNjQyIDMwLjY4OUgxNC4xMThhMS4wNDIgMS4wNDIgMCAwIDAtLjcxMiAxLjgwNUwyNy44OCA0Ni4wMDNhMi4yNzUgMi4yNzUgMCAwIDAgMS41NTIuNjExaDEyLjc1NHoiLz48cGF0aCBmaWxsPSJ1cmwoI21pY3Jvc29mdGF6dXJlX3N2Z19fYikiIGQ9Ik0zMy4zMzggNi41NDRhNC4xMTggNC4xMTggMCAwIDAtMy45NDMgMi44NzlMNC4yNTIgODMuOTE3YTQuMTQgNC4xNCAwIDAgMCAzLjkwOCA1LjUzOGgyMC43ODdhNC40NDMgNC40NDMgMCAwIDAgMy40MS0yLjlsNS4wMTQtMTQuNzc3IDE3LjkxIDE2LjcwNWE0LjIzNyA0LjIzNyAwIDAgMCAyLjY2Ni45NzJIODEuMjRMNzEuMDI0IDYwLjI2MWwtMjkuNzgxLjAwN0w1OS40NyA2LjU0NHoiIHRyYW5zZm9ybT0idHJhbnNsYXRlKC0yLjE4NCAtMi4xODQpIHNjYWxlKC41NDU1KSIvPjxwYXRoIGZpbGw9InVybCgjbWljcm9zb2Z0YXp1cmVfc3ZnX19jKSIgZD0iTTY2LjU5NSA5LjM2NGE0LjE0NSA0LjE0NSAwIDAgMC0zLjkyOC0yLjgySDMzLjY0OGE0LjE0NiA0LjE0NiAwIDAgMSAzLjkyOCAyLjgybDI1LjE4NCA3NC42MmE0LjE0NiA0LjE0NiAwIDAgMS0zLjkyOCA1LjQ3MmgyOS4wMmE0LjE0NiA0LjE0NiAwIDAgMCAzLjkyNy01LjQ3MnoiIHRyYW5zZm9ybT0idHJhbnNsYXRlKC0yLjE4NCAtMi4xODQpIHNjYWxlKC41NDU1KSIvPjwvc3ZnPg==;" vertex="1" parent="1">
          <mxGeometry x="1630" y="50" width="48" height="48" as="geometry" />
        </mxCell>
      </root>
    </mxGraphModel>
  </diagram>
</mxfile>
